Mont_NUM_170818_Bold.ufo
<glyph name="exclam" format="1">
  <advance width="193"/>
  <unicode hex="0021"/>
  <outline>
    <contour>
      <point x="142" y="156" type="line"/>
      <point x="169" y="306" type="line"/>
      <point x="169" y="416" type="line"/>
      <point x="24" y="416" type="line"/>
      <point x="24" y="306" type="line"/>
      <point x="51" y="156" type="line"/>
    </contour>
    <component base="period" xOffset="6.391"/>
  </outline>
</glyph>
<glyph name="numbersign" format="1">
  <advance width="481"/>
  <unicode hex="0023"/>
  <outline>
    <contour>
      <point x="352" y="0" type="line"/>
      <point x="408" y="416" type="line"/>
      <point x="300" y="416" type="line"/>
      <point x="244" y="0" type="line"/>
    </contour>
    <contour>
      <point x="445" y="79" type="line"/>
      <point x="458" y="175" type="line"/>
      <point x="14" y="175" type="line"/>
      <point x="1" y="79" type="line"/>
    </contour>
    <contour>
      <point x="181" y="0" type="line"/>
      <point x="237" y="416" type="line"/>
      <point x="129" y="416" type="line"/>
      <point x="73" y="0" type="line"/>
    </contour>
    <contour>
      <point x="467" y="235" type="line"/>
      <point x="480" y="331" type="line"/>
      <point x="35" y="331" type="line"/>
      <point x="23" y="235" type="line"/>
    </contour>
  </outline>
</glyph>
<glyph name="dollar" format="1">
  <advance width="430"/>
  <unicode hex="0024"/>
  <outline>
    <contour>
      <point x="281" y="369" type="line"/>
      <point x="281" y="543" type="line"/>
      <point x="168" y="543" type="line"/>
      <point x="168" y="369" type="line"/>
    </contour>
    <contour>
      <point x="281" y="-129" type="line"/>
      <point x="281" y="45" type="line"/>
      <point x="168" y="45" type="line"/>
      <point x="168" y="-129" type="line"/>
    </contour>
    <component base="S"/>
  </outline>
</glyph>
<glyph name="percent" format="1">
  <advance width="586"/>
  <unicode hex="0025"/>
  <outline>
    <contour>
      <point x="184" y="0" type="line"/>
      <point x="495" y="416" type="line"/>
      <point x="394" y="416" type="line"/>
      <point x="83" y="0" type="line"/>
    </contour>
    <contour>
      <point x="240" y="303" type="curve" smooth="yes"/>
      <point x="240" y="372"/>
      <point x="194" y="418"/>
      <point x="127" y="418" type="curve" smooth="yes"/>
      <point x="59" y="418"/>
      <point x="13" y="372"/>
      <point x="13" y="303" type="curve" smooth="yes"/>
      <point x="13" y="233"/>
      <point x="59" y="186"/>
      <point x="127" y="186" type="curve" smooth="yes"/>
      <point x="194" y="186"/>
      <point x="240" y="233"/>
    </contour>
    <contour>
      <point x="105" y="303" type="curve" smooth="yes"/>
      <point x="105" y="328"/>
      <point x="114" y="346"/>
      <point x="127" y="346" type="curve" smooth="yes"/>
      <point x="139" y="346"/>
      <point x="149" y="328"/>
      <point x="149" y="303" type="curve" smooth="yes"/>
      <point x="149" y="276"/>
      <point x="139" y="259"/>
      <point x="127" y="259" type="curve" smooth="yes"/>
      <point x="114" y="259"/>
      <point x="105" y="276"/>
    </contour>
    <contour>
      <point x="572" y="114" type="curve" smooth="yes"/>
      <point x="572" y="183"/>
      <point x="527" y="229"/>
      <point x="460" y="229" type="curve" smooth="yes"/>
      <point x="391" y="229"/>
      <point x="345" y="183"/>
      <point x="345" y="114" type="curve" smooth="yes"/>
      <point x="345" y="44"/>
      <point x="391" y="-3"/>
      <point x="460" y="-3" type="curve" smooth="yes"/>
      <point x="527" y="-3"/>
      <point x="572" y="44"/>
    </contour>
    <contour>
      <point x="437" y="114" type="curve" smooth="yes"/>
      <point x="437" y="139"/>
      <point x="447" y="157"/>
      <point x="460" y="157" type="curve" smooth="yes"/>
      <point x="472" y="157"/>
      <point x="482" y="139"/>
      <point x="482" y="114" type="curve" smooth="yes"/>
      <point x="482" y="87"/>
      <point x="472" y="69"/>
      <point x="460" y="69" type="curve" smooth="yes"/>
      <point x="447" y="69"/>
      <point x="437" y="87"/>
    </contour>
  </outline>
</glyph>
<glyph name="ampersand" format="1">
  <advance width="457"/>
  <unicode hex="0026"/>
  <outline>
    <contour>
      <point x="454" y="33" type="curve"/>
      <point x="240" y="215"/>
      <point x="186" y="273"/>
      <point x="186" y="324" type="curve"/>
      <point x="189" y="351"/>
      <point x="204" y="369"/>
      <point x="228" y="369" type="curve" smooth="yes"/>
      <point x="249" y="369"/>
      <point x="264" y="355"/>
      <point x="264" y="334" type="curve" smooth="yes"/>
      <point x="264" y="247"/>
      <point x="19" y="248"/>
      <point x="19" y="105" type="curve" smooth="yes"/>
      <point x="19" y="25"/>
      <point x="94" y="-32"/>
      <point x="198" y="-32" type="curve" smooth="yes"/>
      <point x="308" y="-32"/>
      <point x="402" y="39"/>
      <point x="443" y="150" type="curve" smooth="yes"/>
      <point x="443" y="155"/>
      <point x="340" y="224"/>
      <point x="330" y="234" type="curve"/>
      <point x="311" y="152"/>
      <point x="254" y="91"/>
      <point x="192" y="91" type="curve"/>
      <point x="171" y="81"/>
      <point x="154" y="93"/>
      <point x="154" y="116" type="curve" smooth="yes"/>
      <point x="154" y="188"/>
      <point x="378" y="189"/>
      <point x="375" y="318" type="curve" smooth="yes"/>
      <point x="372" y="379"/>
      <point x="307" y="424"/>
      <point x="220" y="427" type="curve" smooth="yes"/>
      <point x="129" y="433"/>
      <point x="86" y="390"/>
      <point x="86" y="328" type="curve" smooth="yes"/>
      <point x="86" y="253"/>
      <point x="138" y="200"/>
      <point x="390" y="-25" type="curve" smooth="yes"/>
      <point x="385" y="-25"/>
      <point x="457" y="39"/>
    </contour>
  </outline>
</glyph>
<glyph name="quotesingle" format="1">
  <advance width="191"/>
  <unicode hex="0027"/>
  <outline>
    <contour>
      <point x="152" y="233" type="line"/>
      <point x="152" y="416" type="line"/>
      <point x="39" y="416" type="line"/>
      <point x="39" y="233" type="line"/>
    </contour>
  </outline>
</glyph>
<glyph name="parenleft" format="1">
  <advance width="242"/>
  <unicode hex="0028"/>
  <outline>
    <contour>
      <point x="251" y="-74" type="line"/>
      <point x="204" y="-2"/>
      <point x="171" y="89"/>
      <point x="171" y="183" type="curve" smooth="yes"/>
      <point x="171" y="278"/>
      <point x="204" y="368"/>
      <point x="251" y="440" type="curve"/>
      <point x="114" y="440" type="line"/>
      <point x="59" y="368"/>
      <point x="28" y="278"/>
      <point x="28" y="183" type="curve" smooth="yes"/>
      <point x="28" y="89"/>
      <point x="59" y="-2"/>
      <point x="114" y="-74" type="curve"/>
    </contour>
  </outline>
</glyph>
<glyph name="asterisk" format="1">
  <advance width="265"/>
  <unicode hex="002A"/>
  <outline>
    <contour>
      <point x="170" y="209" type="line"/>
      <point x="168" y="260" type="line"/>
      <point x="216" y="233" type="line"/>
      <point x="253" y="293" type="line"/>
      <point x="203" y="318" type="line"/>
      <point x="253" y="341" type="line"/>
      <point x="216" y="401" type="line"/>
      <point x="168" y="374" type="line"/>
      <point x="170" y="426" type="line"/>
      <point x="95" y="426" type="line"/>
      <point x="97" y="374" type="line"/>
      <point x="50" y="402" type="line"/>
      <point x="12" y="341" type="line"/>
      <point x="62" y="318" type="line"/>
      <point x="12" y="293" type="line"/>
      <point x="50" y="234" type="line"/>
      <point x="98" y="261" type="line"/>
      <point x="95" y="209" type="line"/>
    </contour>
  </outline>
</glyph>
<glyph name="comma" format="1">
  <advance width="205"/>
  <unicode hex="002C"/>
  <outline>
    <contour>
      <point x="118" y="-96" type="line"/>
      <point x="165" y="-7" type="line"/>
      <point x="189" y="40"/>
      <point x="191" y="55"/>
      <point x="191" y="75" type="curve" smooth="yes"/>
      <point x="191" y="125"/>
      <point x="155" y="156"/>
      <point x="102" y="156" type="curve" smooth="yes"/>
      <point x="50" y="156"/>
      <point x="13" y="125"/>
      <point x="13" y="75" type="curve" smooth="yes"/>
      <point x="13" y="26"/>
      <point x="50" y="-3"/>
      <point x="102" y="-3" type="curve"/>
      <point x="80" y="76" type="line"/>
      <point x="24" y="-96" type="line"/>
    </contour>
  </outline>
</glyph>
<glyph name="hyphen" format="1">
  <advance width="245"/>
  <unicode hex="002D"/>
  <outline>
    <contour>
      <point x="214" y="140" type="line"/>
      <point x="214" y="227" type="line"/>
      <point x="31" y="227" type="line"/>
      <point x="31" y="140" type="line"/>
    </contour>
  </outline>
</glyph>
<glyph name="period" format="1">
  <advance width="205"/>
  <unicode hex="002E"/>
  <outline>
    <contour>
      <point x="191" y="75" type="curve" smooth="yes"/>
      <point x="191" y="125"/>
      <point x="155" y="156"/>
      <point x="102" y="156" type="curve" smooth="yes"/>
      <point x="50" y="156"/>
      <point x="13" y="125"/>
      <point x="13" y="75" type="curve" smooth="yes"/>
      <point x="13" y="26"/>
      <point x="50" y="-6"/>
      <point x="102" y="-6" type="curve" smooth="yes"/>
      <point x="155" y="-6"/>
      <point x="191" y="26"/>
    </contour>
  </outline>
</glyph>
<glyph name="slash" format="1">
  <advance width="243"/>
  <unicode hex="002F"/>
  <outline>
    <contour>
      <point x="93" y="-61" type="line"/>
      <point x="306" y="477" type="line"/>
      <point x="178" y="477" type="line"/>
      <point x="-34" y="-61" type="line"/>
    </contour>
  </outline>
</glyph>
<glyph name="zero" format="1">
  <advance width="441"/>
  <unicode hex="0030"/>
  <outline>
    <contour>
      <point x="424" y="208" type="curve" smooth="yes"/>
      <point x="424" y="346"/>
      <point x="339" y="425"/>
      <point x="221" y="425" type="curve" smooth="yes"/>
      <point x="102" y="425"/>
      <point x="17" y="346"/>
      <point x="17" y="208" type="curve" smooth="yes"/>
      <point x="17" y="69"/>
      <point x="102" y="-10"/>
      <point x="221" y="-10" type="curve" smooth="yes"/>
      <point x="339" y="-10"/>
      <point x="424" y="69"/>
    </contour>
    <contour>
      <point x="176" y="208" type="curve" smooth="yes"/>
      <point x="176" y="285"/>
      <point x="195" y="307"/>
      <point x="221" y="307" type="curve" smooth="yes"/>
      <point x="246" y="307"/>
      <point x="266" y="285"/>
      <point x="266" y="208" type="curve" smooth="yes"/>
      <point x="266" y="130"/>
      <point x="246" y="108"/>
      <point x="221" y="108" type="curve" smooth="yes"/>
      <point x="195" y="108"/>
      <point x="176" y="130"/>
    </contour>
  </outline>
</glyph>
<glyph name="one" format="1">
  <advance width="272"/>
  <unicode hex="0031"/>
  <outline>
    <contour>
      <point x="238" y="0" type="line"/>
      <point x="238" y="415" type="line"/>
      <point x="3" y="415" type="line"/>
      <point x="3" y="304" type="line"/>
      <point x="146" y="304" type="line"/>
      <point x="78" y="364" type="line"/>
      <point x="78" y="0" type="line"/>
    </contour>
  </outline>
</glyph>
<glyph name="two" format="1">
  <advance width="393"/>
  <unicode hex="0032"/>
  <outline>
    <contour>
      <point x="382" y="0" type="line"/>
      <point x="382" y="114" type="line"/>
      <point x="152" y="114" type="line"/>
      <point x="177" y="63" type="line"/>
      <point x="294" y="161" type="line" smooth="yes"/>
      <point x="358" y="216"/>
      <point x="370" y="253"/>
      <point x="370" y="294" type="curve" smooth="yes"/>
      <point x="370" y="373"/>
      <point x="295" y="425"/>
      <point x="188" y="425" type="curve" smooth="yes"/>
      <point x="90" y="425"/>
      <point x="25" y="385"/>
      <point x="-7" y="326" type="curve"/>
      <point x="111" y="271" type="line"/>
      <point x="123" y="295"/>
      <point x="148" y="309"/>
      <point x="173" y="309" type="curve" smooth="yes"/>
      <point x="199" y="309"/>
      <point x="212" y="298"/>
      <point x="212" y="280" type="curve" smooth="yes"/>
      <point x="212" y="267"/>
      <point x="208" y="252"/>
      <point x="178" y="227" type="curve" smooth="yes"/>
      <point x="18" y="91" type="line"/>
      <point x="18" y="0" type="line"/>
    </contour>
  </outline>
</glyph>
<glyph name="three" format="1">
  <advance width="395"/>
  <unicode hex="0033"/>
  <outline>
    <contour>
      <point x="380" y="134" type="curve" smooth="yes"/>
      <point x="380" y="208"/>
      <point x="320" y="260"/>
      <point x="208" y="260" type="curve" smooth="yes"/>
      <point x="167" y="260" type="line"/>
      <point x="244" y="220" type="line"/>
      <point x="355" y="324" type="line"/>
      <point x="355" y="415" type="line"/>
      <point x="18" y="415" type="line"/>
      <point x="18" y="304" type="line"/>
      <point x="238" y="304" type="line"/>
      <point x="224" y="353" type="line"/>
      <point x="112" y="249" type="line"/>
      <point x="112" y="158" type="line"/>
      <point x="174" y="158" type="line" smooth="yes"/>
      <point x="209" y="158"/>
      <point x="222" y="149"/>
      <point x="222" y="134" type="curve" smooth="yes"/>
      <point x="222" y="115"/>
      <point x="199" y="106"/>
      <point x="168" y="106" type="curve" smooth="yes"/>
      <point x="132" y="106"/>
      <point x="88" y="115"/>
      <point x="49" y="135" type="curve"/>
      <point x="-2" y="26" type="line"/>
      <point x="46" y="2"/>
      <point x="113" y="-10"/>
      <point x="174" y="-10" type="curve" smooth="yes"/>
      <point x="318" y="-10"/>
      <point x="380" y="63"/>
    </contour>
  </outline>
</glyph>
<glyph name="four" format="1">
  <advance width="460"/>
  <unicode hex="0034"/>
  <outline>
    <contour>
      <point x="458" y="68" type="line"/>
      <point x="458" y="182" type="line"/>
      <point x="111" y="182" type="line"/>
      <point x="185" y="162" type="line"/>
      <point x="365" y="415" type="line"/>
      <point x="201" y="415" type="line"/>
      <point x="14" y="162" type="line"/>
      <point x="14" y="68" type="line"/>
    </contour>
    <contour>
      <point x="401" y="0" type="line"/>
      <point x="401" y="243" type="line"/>
      <point x="250" y="243" type="line"/>
      <point x="250" y="182" type="line"/>
      <point x="246" y="68" type="line"/>
      <point x="246" y="0" type="line"/>
    </contour>
  </outline>
</glyph>
<glyph name="five" format="1">
  <advance width="395"/>
  <unicode hex="0035"/>
  <outline>
    <contour>
      <point x="386" y="138" type="curve" smooth="yes"/>
      <point x="386" y="212"/>
      <point x="336" y="271"/>
      <point x="205" y="271" type="curve" smooth="yes"/>
      <point x="99" y="271" type="line"/>
      <point x="180" y="208" type="line"/>
      <point x="193" y="367" type="line"/>
      <point x="112" y="304" type="line"/>
      <point x="356" y="304" type="line"/>
      <point x="356" y="415" type="line"/>
      <point x="56" y="415" type="line"/>
      <point x="33" y="160" type="line"/>
      <point x="166" y="160" type="line" smooth="yes"/>
      <point x="216" y="160"/>
      <point x="228" y="150"/>
      <point x="228" y="135" type="curve" smooth="yes"/>
      <point x="228" y="116"/>
      <point x="205" y="104"/>
      <point x="174" y="104" type="curve" smooth="yes"/>
      <point x="138" y="104"/>
      <point x="94" y="115"/>
      <point x="55" y="135" type="curve"/>
      <point x="4" y="26" type="line"/>
      <point x="52" y="2"/>
      <point x="119" y="-10"/>
      <point x="180" y="-10" type="curve" smooth="yes"/>
      <point x="325" y="-10"/>
      <point x="386" y="63"/>
    </contour>
  </outline>
</glyph>
<glyph name="six" format="1">
  <advance width="422"/>
  <unicode hex="0036"/>
  <outline>
    <contour>
      <point x="415" y="137" type="curve" smooth="yes"/>
      <point x="415" y="218"/>
      <point x="344" y="270"/>
      <point x="263" y="270" type="curve" smooth="yes"/>
      <point x="201" y="270"/>
      <point x="165" y="249"/>
      <point x="138" y="211" type="curve"/>
      <point x="175" y="186" type="line"/>
      <point x="175" y="197"/>
      <point x="176" y="207"/>
      <point x="176" y="218" type="curve" smooth="yes"/>
      <point x="176" y="278"/>
      <point x="213" y="311"/>
      <point x="271" y="311" type="curve" smooth="yes"/>
      <point x="299" y="311"/>
      <point x="326" y="306"/>
      <point x="352" y="288" type="curve"/>
      <point x="407" y="392" type="line"/>
      <point x="373" y="413"/>
      <point x="321" y="425"/>
      <point x="267" y="425" type="curve" smooth="yes"/>
      <point x="119" y="425"/>
      <point x="17" y="339"/>
      <point x="17" y="194" type="curve" smooth="yes"/>
      <point x="17" y="57"/>
      <point x="106" y="-10"/>
      <point x="234" y="-10" type="curve" smooth="yes"/>
      <point x="335" y="-10"/>
      <point x="415" y="47"/>
    </contour>
    <contour>
      <point x="182" y="130" type="curve" smooth="yes"/>
      <point x="182" y="154"/>
      <point x="199" y="168"/>
      <point x="223" y="168" type="curve" smooth="yes"/>
      <point x="246" y="168"/>
      <point x="264" y="153"/>
      <point x="264" y="130" type="curve" smooth="yes"/>
      <point x="264" y="106"/>
      <point x="246" y="92"/>
      <point x="222" y="92" type="curve" smooth="yes"/>
      <point x="199" y="92"/>
      <point x="182" y="105"/>
    </contour>
  </outline>
</glyph>
<glyph name="seven" format="1">
  <advance width="418"/>
  <unicode hex="0037"/>
  <outline>
    <contour>
      <point x="256" y="0" type="line"/>
      <point x="402" y="324" type="line"/>
      <point x="402" y="415" type="line"/>
      <point x="13" y="415" type="line"/>
      <point x="13" y="242" type="line"/>
      <point x="145" y="242" type="line"/>
      <point x="145" y="368" type="line"/>
      <point x="83" y="301" type="line"/>
      <point x="291" y="301" type="line"/>
      <point x="249" y="363" type="line"/>
      <point x="81" y="0" type="line"/>
    </contour>
  </outline>
</glyph>
<glyph name="eight" format="1">
  <advance width="442"/>
  <unicode hex="0038"/>
  <outline>
    <contour>
      <point x="422" y="124" type="curve" smooth="yes"/>
      <point x="422" y="206"/>
      <point x="336" y="252"/>
      <point x="221" y="252" type="curve" smooth="yes"/>
      <point x="106" y="252"/>
      <point x="20" y="206"/>
      <point x="20" y="124" type="curve" smooth="yes"/>
      <point x="20" y="43"/>
      <point x="103" y="-10"/>
      <point x="221" y="-10" type="curve" smooth="yes"/>
      <point x="340" y="-10"/>
      <point x="422" y="43"/>
    </contour>
    <contour>
      <point x="178" y="129" type="curve" smooth="yes"/>
      <point x="178" y="154"/>
      <point x="196" y="169"/>
      <point x="221" y="169" type="curve" smooth="yes"/>
      <point x="246" y="169"/>
      <point x="264" y="154"/>
      <point x="264" y="129" type="curve" smooth="yes"/>
      <point x="264" y="105"/>
      <point x="246" y="89"/>
      <point x="221" y="89" type="curve" smooth="yes"/>
      <point x="196" y="89"/>
      <point x="178" y="105"/>
    </contour>
    <contour>
      <point x="406" y="300" type="curve" smooth="yes"/>
      <point x="406" y="376"/>
      <point x="330" y="425"/>
      <point x="221" y="425" type="curve" smooth="yes"/>
      <point x="112" y="425"/>
      <point x="36" y="376"/>
      <point x="36" y="300" type="curve" smooth="yes"/>
      <point x="36" y="224"/>
      <point x="116" y="181"/>
      <point x="221" y="181" type="curve" smooth="yes"/>
      <point x="326" y="181"/>
      <point x="406" y="224"/>
    </contour>
    <contour>
      <point x="191" y="294" type="curve" smooth="yes"/>
      <point x="191" y="314"/>
      <point x="204" y="326"/>
      <point x="221" y="326" type="curve" smooth="yes"/>
      <point x="238" y="326"/>
      <point x="251" y="314"/>
      <point x="251" y="294" type="curve" smooth="yes"/>
      <point x="251" y="273"/>
      <point x="238" y="261"/>
      <point x="221" y="261" type="curve" smooth="yes"/>
      <point x="204" y="261"/>
      <point x="191" y="273"/>
    </contour>
  </outline>
</glyph>
<glyph name="less" format="1">
  <advance width="336"/>
  <unicode hex="003C"/>
  <outline>
    <contour>
      <point x="317" y="124" type="line"/>
      <point x="116" y="191" type="line"/>
      <point x="317" y="259" type="line"/>
      <point x="317" y="357" type="line"/>
      <point x="19" y="247" type="line"/>
      <point x="19" y="136" type="line"/>
      <point x="317" y="26" type="line"/>
    </contour>
  </outline>
</glyph>
<glyph name="question" format="1">
  <advance width="324"/>
  <unicode hex="003F"/>
  <outline>
    <contour>
      <point x="217" y="150" type="line"/>
      <point x="217" y="210"/>
      <point x="325" y="229"/>
      <point x="325" y="314" type="curve" smooth="yes"/>
      <point x="325" y="382"/>
      <point x="270" y="423"/>
      <point x="175" y="423" type="curve" smooth="yes"/>
      <point x="72" y="423"/>
      <point x="13" y="365"/>
      <point x="13" y="267" type="curve"/>
      <point x="130" y="267" type="line"/>
      <point x="130" y="298"/>
      <point x="139" y="312"/>
      <point x="161" y="312" type="curve" smooth="yes"/>
      <point x="178" y="312"/>
      <point x="183" y="305"/>
      <point x="183" y="290" type="curve" smooth="yes"/>
      <point x="183" y="248"/>
      <point x="104" y="237"/>
      <point x="104" y="150" type="curve"/>
    </contour>
    <component base="period" xOffset="70.704"/>
  </outline>
</glyph>
<glyph name="at" format="1">
  <advance width="569"/>
  <unicode hex="0040"/>
  <outline>
    <contour>
      <point x="434" y="-39" type="curve"/>
      <point x="400" y="15" type="line"/>
      <point x="363" y="-12"/>
      <point x="317" y="-23"/>
      <point x="281" y="-23" type="curve" smooth="yes"/>
      <point x="173" y="-23"/>
      <point x="90" y="55"/>
      <point x="90" y="159" type="curve" smooth="yes"/>
      <point x="90" y="264"/>
      <point x="180" y="352"/>
      <point x="289" y="352" type="curve" smooth="yes"/>
      <point x="412" y="352"/>
      <point x="479" y="268"/>
      <point x="479" y="162" type="curve" smooth="yes"/>
      <point x="479" y="112"/>
      <point x="456" y="77"/>
      <point x="435" y="77" type="curve" smooth="yes"/>
      <point x="425" y="77"/>
      <point x="418" y="82"/>
      <point x="418" y="101" type="curve" smooth="yes"/>
      <point x="418" y="290" type="line"/>
      <point x="327" y="290" type="line"/>
      <point x="327" y="270" type="line"/>
      <point x="328" y="266"/>
      <point x="302" y="297"/>
      <point x="257" y="297" type="curve" smooth="yes"/>
      <point x="182" y="297"/>
      <point x="136" y="234"/>
      <point x="136" y="161" type="curve" smooth="yes"/>
      <point x="136" y="79"/>
      <point x="202" y="27"/>
      <point x="267" y="27" type="curve" smooth="yes"/>
      <point x="295" y="27"/>
      <point x="325" y="37"/>
      <point x="348" y="66" type="curve"/>
      <point x="350" y="64" type="line"/>
      <point x="360" y="34"/>
      <point x="388" y="21"/>
      <point x="427" y="21" type="curve" smooth="yes"/>
      <point x="499" y="21"/>
      <point x="552" y="78"/>
      <point x="552" y="164" type="curve" smooth="yes"/>
      <point x="552" y="308"/>
      <point x="438" y="413"/>
      <point x="289" y="413" type="curve" smooth="yes"/>
      <point x="139" y="413"/>
      <point x="17" y="301"/>
      <point x="17" y="159" type="curve" smooth="yes"/>
      <point x="17" y="19"/>
      <point x="132" y="-85"/>
      <point x="281" y="-85" type="curve" smooth="yes"/>
      <point x="332" y="-85"/>
      <point x="397" y="-67"/>
    </contour>
    <contour>
      <point x="236" y="164" type="curve" smooth="yes"/>
      <point x="236" y="194"/>
      <point x="252" y="220"/>
      <point x="276" y="220" type="curve" smooth="yes"/>
      <point x="305" y="220"/>
      <point x="320" y="194"/>
      <point x="320" y="163" type="curve" smooth="yes"/>
      <point x="320" y="131"/>
      <point x="306" y="102"/>
      <point x="277" y="102" type="curve" smooth="yes"/>
      <point x="251" y="102"/>
      <point x="236" y="132"/>
    </contour>
  </outline>
</glyph>
<glyph name="A" format="1">
  <advance width="523"/>
  <unicode hex="0041"/>
  <outline>
    <contour>
      <point x="149" y="0" type="line"/>
      <point x="291" y="345" type="line"/>
      <point x="229" y="345" type="line"/>
      <point x="371" y="0" type="line"/>
      <point x="536" y="0" type="line"/>
      <point x="340" y="415" type="line"/>
      <point x="183" y="415" type="line"/>
      <point x="-13" y="0" type="line"/>
    </contour>
    <contour>
      <point x="390" y="57" type="line"/>
      <point x="349" y="164" type="line"/>
      <point x="148" y="164" type="line"/>
      <point x="107" y="57" type="line"/>
    </contour>
    <contour>
      <point x="536" y="0" type="move" name="ogonek"/>
    </contour>
    <contour>
      <point x="261" y="415" type="move" name="top"/>
    </contour>
    <contour>
      <point x="78" y="416" type="move" name="topleft"/>
    </contour>
    <contour>
      <point x="261" y="0" type="move" name="bottom"/>
    </contour>
  </outline>
</glyph>
<glyph name="B" format="1">
  <advance width="498"/>
  <unicode hex="0042"/>
  <outline>
    <contour>
      <point x="291" y="0" type="line"/>
      <point x="416" y="0"/>
      <point x="483" y="42"/>
      <point x="483" y="115" type="curve" smooth="yes"/>
      <point x="483" y="187"/>
      <point x="416" y="230"/>
      <point x="311" y="230" type="curve"/>
      <point x="298" y="197" type="line"/>
      <point x="404" y="197"/>
      <point x="462" y="244"/>
      <point x="462" y="306" type="curve" smooth="yes"/>
      <point x="462" y="369"/>
      <point x="404" y="415"/>
      <point x="278" y="415" type="curve" smooth="yes"/>
      <point x="34" y="415" type="line"/>
      <point x="34" y="0" type="line"/>
    </contour>
    <contour>
      <point x="191" y="161" type="line"/>
      <point x="277" y="161" type="line" smooth="yes"/>
      <point x="307" y="161"/>
      <point x="321" y="150"/>
      <point x="321" y="132" type="curve" smooth="yes"/>
      <point x="321" y="113"/>
      <point x="307" y="103"/>
      <point x="277" y="103" type="curve" smooth="yes"/>
      <point x="191" y="103" type="line"/>
    </contour>
    <contour>
      <point x="191" y="312" type="line"/>
      <point x="256" y="312" type="line" smooth="yes"/>
      <point x="287" y="312"/>
      <point x="300" y="303"/>
      <point x="300" y="285" type="curve" smooth="yes"/>
      <point x="300" y="267"/>
      <point x="287" y="258"/>
      <point x="256" y="258" type="curve" smooth="yes"/>
      <point x="191" y="258" type="line"/>
    </contour>
    <contour>
      <point x="246" y="415" type="move" name="top"/>
    </contour>
    <contour>
      <point x="246" y="0" type="move" name="bottom"/>
    </contour>
  </outline>
</glyph>
<glyph name="C" format="1">
  <advance width="480"/>
  <unicode hex="0043"/>
  <outline>
    <contour>
      <point x="474" y="75" type="curve"/>
      <point x="373" y="158" type="line"/>
      <point x="348" y="128"/>
      <point x="317" y="110"/>
      <point x="278" y="110" type="curve" smooth="yes"/>
      <point x="218" y="110"/>
      <point x="179" y="147"/>
      <point x="179" y="208" type="curve" smooth="yes"/>
      <point x="179" y="268"/>
      <point x="218" y="306"/>
      <point x="278" y="306" type="curve" smooth="yes"/>
      <point x="317" y="306"/>
      <point x="348" y="288"/>
      <point x="373" y="257" type="curve"/>
      <point x="474" y="340" type="line"/>
      <point x="430" y="395"/>
      <point x="359" y="425"/>
      <point x="269" y="425" type="curve" smooth="yes"/>
      <point x="124" y="425"/>
      <point x="17" y="336"/>
      <point x="17" y="208" type="curve" smooth="yes"/>
      <point x="17" y="80"/>
      <point x="124" y="-10"/>
      <point x="269" y="-10" type="curve" smooth="yes"/>
      <point x="359" y="-10"/>
      <point x="430" y="20"/>
    </contour>
    <contour>
      <point x="269" y="416" type="move" name="top"/>
    </contour>
    <contour>
      <point x="251" y="0" type="move" name="bottom"/>
    </contour>
  </outline>
</glyph>
<glyph name="D" format="1">
  <advance width="531"/>
  <unicode hex="0044"/>
  <outline>
    <contour>
      <point x="259" y="0" type="line"/>
      <point x="410" y="0"/>
      <point x="514" y="78"/>
      <point x="514" y="208" type="curve" smooth="yes"/>
      <point x="514" y="337"/>
      <point x="410" y="415"/>
      <point x="259" y="415" type="curve" smooth="yes"/>
      <point x="34" y="415" type="line"/>
      <point x="34" y="0" type="line"/>
    </contour>
    <contour>
      <point x="194" y="300" type="line"/>
      <point x="252" y="300" type="line" smooth="yes"/>
      <point x="311" y="300"/>
      <point x="352" y="268"/>
      <point x="352" y="208" type="curve" smooth="yes"/>
      <point x="352" y="147"/>
      <point x="311" y="115"/>
      <point x="252" y="115" type="curve" smooth="yes"/>
      <point x="194" y="115" type="line"/>
    </contour>
    <contour>
      <point x="230" y="415" type="move" name="top"/>
    </contour>
    <contour>
      <point x="133" y="210" type="move" name="center"/>
    </contour>
    <contour>
      <point x="231" y="0" type="move" name="bottom"/>
    </contour>
  </outline>
</glyph>
<glyph name="E" format="1">
  <advance width="431"/>
  <unicode hex="0045"/>
  <outline>
    <contour>
      <point x="412" y="0" type="line"/>
      <point x="412" y="111" type="line"/>
      <point x="191" y="111" type="line"/>
      <point x="191" y="157" type="line"/>
      <point x="378" y="157" type="line"/>
      <point x="378" y="264" type="line"/>
      <point x="191" y="264" type="line"/>
      <point x="191" y="304" type="line"/>
      <point x="404" y="304" type="line"/>
      <point x="404" y="415" type="line"/>
      <point x="34" y="415" type="line"/>
      <point x="34" y="0" type="line"/>
    </contour>
    <contour>
      <point x="412" y="0" type="move" name="ogonek"/>
    </contour>
    <contour>
      <point x="219" y="415" type="move" name="top"/>
    </contour>
    <contour>
      <point x="-8" y="415" type="move" name="topleft"/>
    </contour>
    <contour>
      <point x="219" y="0" type="move" name="bottom"/>
    </contour>
  </outline>
</glyph>
<glyph name="F" format="1">
  <advance width="413"/>
  <unicode hex="0046"/>
  <outline>
    <contour>
      <point x="194" y="0" type="line"/>
      <point x="194" y="129" type="line"/>
      <point x="378" y="129" type="line"/>
      <point x="378" y="240" type="line"/>
      <point x="194" y="240" type="line"/>
      <point x="194" y="304" type="line"/>
      <point x="404" y="304" type="line"/>
      <point x="404" y="415" type="line"/>
      <point x="34" y="415" type="line"/>
      <point x="34" y="0" type="line"/>
    </contour>
  </outline>
</glyph>
<glyph name="G" format="1">
  <advance width="494"/>
  <unicode hex="0047"/>
  <outline>
    <contour>
      <point x="469" y="43" type="curve"/>
      <point x="379" y="144" type="line"/>
      <point x="343" y="119"/>
      <point x="312" y="110"/>
      <point x="280" y="110" type="curve" smooth="yes"/>
      <point x="218" y="110"/>
      <point x="179" y="148"/>
      <point x="179" y="208" type="curve" smooth="yes"/>
      <point x="179" y="269"/>
      <point x="218" y="306"/>
      <point x="282" y="306" type="curve" smooth="yes"/>
      <point x="320" y="306"/>
      <point x="352" y="290"/>
      <point x="380" y="260" type="curve"/>
      <point x="482" y="343" type="line"/>
      <point x="436" y="396"/>
      <point x="364" y="425"/>
      <point x="273" y="425" type="curve" smooth="yes"/>
      <point x="124" y="425"/>
      <point x="17" y="336"/>
      <point x="17" y="208" type="curve" smooth="yes"/>
      <point x="17" y="80"/>
      <point x="124" y="-10"/>
      <point x="270" y="-10" type="curve" smooth="yes"/>
      <point x="337" y="-10"/>
      <point x="413" y="8"/>
    </contour>
    <contour>
      <point x="469" y="43" type="line"/>
      <point x="469" y="220" type="line"/>
      <point x="330" y="220" type="line"/>
      <point x="330" y="62" type="line"/>
    </contour>
    <contour>
      <point x="273" y="416" type="move" name="top"/>
    </contour>
    <contour>
      <point x="264" y="0" type="move" name="bottom"/>
    </contour>
  </outline>
</glyph>
<glyph name="H" format="1">
  <advance width="517"/>
  <unicode hex="0048"/>
  <outline>
    <contour>
      <point x="194" y="0" type="line"/>
      <point x="194" y="150" type="line"/>
      <point x="323" y="150" type="line"/>
      <point x="323" y="0" type="line"/>
      <point x="483" y="0" type="line"/>
      <point x="483" y="415" type="line"/>
      <point x="323" y="415" type="line"/>
      <point x="323" y="271" type="line"/>
      <point x="194" y="271" type="line"/>
      <point x="194" y="415" type="line"/>
      <point x="34" y="415" type="line"/>
      <point x="34" y="0" type="line"/>
    </contour>
    <contour>
      <point x="258" y="415" type="move" name="top"/>
    </contour>
    <contour>
      <point x="258" y="343" type="move" name="center"/>
    </contour>
    <contour>
      <point x="258" y="0" type="move" name="bottom"/>
    </contour>
  </outline>
</glyph>
<glyph name="I" format="1">
  <advance width="228"/>
  <unicode hex="0049"/>
  <outline>
    <contour>
      <point x="194" y="0" type="line"/>
      <point x="194" y="415" type="line"/>
      <point x="34" y="415" type="line"/>
      <point x="34" y="0" type="line"/>
    </contour>
    <contour>
      <point x="194" y="0" type="move" name="ogonek"/>
    </contour>
    <contour>
      <point x="114" y="415" type="move" name="top"/>
    </contour>
    <contour>
      <point x="-8" y="415" type="move" name="topleft"/>
    </contour>
    <contour>
      <point x="114" y="0" type="move" name="bottom"/>
    </contour>
  </outline>
</glyph>
<glyph name="J" format="1">
  <advance width="373"/>
  <unicode hex="004A"/>
  <outline>
    <contour>
      <point x="343" y="163" type="curve" smooth="yes"/>
      <point x="343" y="415" type="line"/>
      <point x="33" y="415" type="line"/>
      <point x="33" y="304" type="line"/>
      <point x="185" y="304" type="line"/>
      <point x="185" y="154" type="line" smooth="yes"/>
      <point x="185" y="123"/>
      <point x="168" y="106"/>
      <point x="139" y="106" type="curve" smooth="yes"/>
      <point x="115" y="106"/>
      <point x="93" y="119"/>
      <point x="70" y="146" type="curve"/>
      <point x="-17" y="52" type="line"/>
      <point x="22" y="11"/>
      <point x="81" y="-10"/>
      <point x="153" y="-10" type="curve" smooth="yes"/>
      <point x="276" y="-10"/>
      <point x="343" y="47"/>
    </contour>
    <contour>
      <point x="188" y="415" type="move" name="top"/>
    </contour>
  </outline>
</glyph>
<glyph name="K" format="1">
  <advance width="495"/>
  <unicode hex="004B"/>
  <outline>
    <contour>
      <point x="225" y="138" type="line"/>
      <point x="314" y="222" type="line"/>
      <point x="504" y="415" type="line"/>
      <point x="330" y="415" type="line"/>
      <point x="168" y="250" type="line"/>
      <point x="177" y="88" type="line"/>
    </contour>
    <contour>
      <point x="191" y="0" type="line"/>
      <point x="191" y="415" type="line"/>
      <point x="34" y="415" type="line"/>
      <point x="34" y="0" type="line"/>
    </contour>
    <contour>
      <point x="512" y="0" type="line"/>
      <point x="303" y="259" type="line"/>
      <point x="200" y="157" type="line"/>
      <point x="327" y="0" type="line"/>
    </contour>
    <contour>
      <point x="247" y="415" type="move" name="top"/>
    </contour>
    <contour>
      <point x="247" y="0" type="move" name="bottom"/>
    </contour>
  </outline>
</glyph>
<glyph name="L" format="1">
  <advance width="398"/>
  <unicode hex="004C"/>
  <outline>
    <contour>
      <point x="393" y="0" type="line"/>
      <point x="393" y="114" type="line"/>
      <point x="194" y="114" type="line"/>
      <point x="194" y="415" type="line"/>
      <point x="34" y="415" type="line"/>
      <point x="34" y="0" type="line"/>
    </contour>
    <contour>
      <point x="114" y="239" type="move" name="center"/>
    </contour>
    <contour>
      <point x="312" y="268" type="move" name="dot"/>
    </contour>
    <contour>
      <point x="114" y="415" type="move" name="top"/>
    </contour>
    <contour>
      <point x="271" y="415" type="move" name="topright"/>
    </contour>
    <contour>
      <point x="221" y="0" type="move" name="bottom"/>
    </contour>
  </outline>
</glyph>
<glyph name="M" format="1">
  <advance width="613"/>
  <unicode hex="004D"/>
  <outline>
    <contour>
      <point x="179" y="0" type="line"/>
      <point x="179" y="212" type="line"/>
      <point x="151" y="212" type="line"/>
      <point x="271" y="36" type="line"/>
      <point x="341" y="36" type="line"/>
      <point x="455" y="212" type="line"/>
      <point x="432" y="212" type="line"/>
      <point x="434" y="0" type="line"/>
      <point x="580" y="0" type="line"/>
      <point x="578" y="415" type="line"/>
      <point x="447" y="415" type="line"/>
      <point x="274" y="149" type="line"/>
      <point x="343" y="149" type="line"/>
      <point x="165" y="415" type="line"/>
      <point x="34" y="415" type="line"/>
      <point x="34" y="0" type="line"/>
    </contour>
    <contour>
      <point x="306" y="415" type="move" name="top"/>
    </contour>
    <contour>
      <point x="306" y="0" type="move" name="bottom"/>
    </contour>
  </outline>
</glyph>
<glyph name="N" format="1">
  <advance width="517"/>
  <unicode hex="004E"/>
  <outline>
    <contour>
      <point x="190" y="0" type="line"/>
      <point x="190" y="244" type="line"/>
      <point x="129" y="244" type="line"/>
      <point x="351" y="0" type="line"/>
      <point x="483" y="0" type="line"/>
      <point x="483" y="415" type="line"/>
      <point x="327" y="415" type="line"/>
      <point x="327" y="172" type="line"/>
      <point x="388" y="172" type="line"/>
      <point x="165" y="415" type="line"/>
      <point x="34" y="415" type="line"/>
      <point x="34" y="0" type="line"/>
    </contour>
    <contour>
      <point x="258" y="415" type="move" name="top"/>
    </contour>
    <contour>
      <point x="258" y="0" type="move" name="bottom"/>
    </contour>
  </outline>
</glyph>
<glyph name="O" format="1">
  <advance width="546"/>
  <unicode hex="004F"/>
  <outline>
    <contour>
      <point x="528" y="208" type="curve" smooth="yes"/>
      <point x="528" y="334"/>
      <point x="420" y="425"/>
      <point x="273" y="425" type="curve" smooth="yes"/>
      <point x="125" y="425"/>
      <point x="17" y="334"/>
      <point x="17" y="208" type="curve" smooth="yes"/>
      <point x="17" y="81"/>
      <point x="125" y="-10"/>
      <point x="273" y="-10" type="curve" smooth="yes"/>
      <point x="420" y="-10"/>
      <point x="528" y="81"/>
    </contour>
    <contour>
      <point x="179" y="208" type="curve" smooth="yes"/>
      <point x="179" y="269"/>
      <point x="221" y="306"/>
      <point x="273" y="306" type="curve" smooth="yes"/>
      <point x="325" y="306"/>
      <point x="367" y="269"/>
      <point x="367" y="208" type="curve" smooth="yes"/>
      <point x="367" y="146"/>
      <point x="325" y="110"/>
      <point x="273" y="110" type="curve" smooth="yes"/>
      <point x="221" y="110"/>
      <point x="179" y="146"/>
    </contour>
    <contour>
      <point x="273" y="0" type="move" name="bottom"/>
    </contour>
    <contour>
      <point x="355" y="0" type="move" name="ogonek"/>
    </contour>
    <contour>
      <point x="273" y="415" type="move" name="top"/>
    </contour>
    <contour>
      <point x="376" y="415" type="move" name="topright"/>
    </contour>
    <contour>
      <point x="21" y="415" type="move" name="topleft"/>
    </contour>
    <contour>
      <point x="273" y="208" type="move" name="center"/>
    </contour>
  </outline>
</glyph>
<glyph name="P" format="1">
  <advance width="479"/>
  <unicode hex="0050"/>
  <outline>
    <contour>
      <point x="194" y="0" type="line"/>
      <point x="194" y="163" type="line"/>
      <point x="123" y="100" type="line"/>
      <point x="254" y="100" type="line" smooth="yes"/>
      <point x="381" y="100"/>
      <point x="461" y="161"/>
      <point x="461" y="257" type="curve" smooth="yes"/>
      <point x="461" y="354"/>
      <point x="381" y="415"/>
      <point x="254" y="415" type="curve" smooth="yes"/>
      <point x="34" y="415" type="line"/>
      <point x="34" y="0" type="line"/>
    </contour>
    <contour>
      <point x="194" y="368" type="line"/>
      <point x="123" y="301" type="line"/>
      <point x="244" y="301" type="line" smooth="yes"/>
      <point x="282" y="301"/>
      <point x="300" y="285"/>
      <point x="300" y="257" type="curve" smooth="yes"/>
      <point x="300" y="230"/>
      <point x="282" y="213"/>
      <point x="244" y="213" type="curve" smooth="yes"/>
      <point x="123" y="213" type="line"/>
      <point x="194" y="146" type="line"/>
    </contour>
  </outline>
</glyph>
<glyph name="Q" format="1">
  <advance width="546"/>
  <unicode hex="0051"/>
  <outline>
    <contour>
      <point x="528" y="208" type="curve" smooth="yes"/>
      <point x="528" y="334"/>
      <point x="420" y="425"/>
      <point x="273" y="425" type="curve" smooth="yes"/>
      <point x="125" y="425"/>
      <point x="17" y="334"/>
      <point x="17" y="208" type="curve" smooth="yes"/>
      <point x="17" y="81"/>
      <point x="125" y="-10"/>
      <point x="273" y="-10" type="curve" smooth="yes"/>
      <point x="420" y="-10"/>
      <point x="528" y="81"/>
    </contour>
    <contour>
      <point x="553" y="-54" type="curve"/>
      <point x="484" y="21" type="line"/>
      <point x="466" y="5"/>
      <point x="444" y="-4"/>
      <point x="423" y="-4" type="curve" smooth="yes"/>
      <point x="397" y="-4"/>
      <point x="384" y="6"/>
      <point x="355" y="50" type="curve"/>
      <point x="189" y="12" type="line"/>
      <point x="282" y="-81"/>
      <point x="333" y="-107"/>
      <point x="420" y="-107" type="curve" smooth="yes"/>
      <point x="475" y="-107"/>
      <point x="521" y="-88"/>
    </contour>
    <contour>
      <point x="179" y="208" type="curve" smooth="yes"/>
      <point x="179" y="269"/>
      <point x="221" y="306"/>
      <point x="273" y="306" type="curve" smooth="yes"/>
      <point x="325" y="306"/>
      <point x="367" y="269"/>
      <point x="367" y="208" type="curve" smooth="yes"/>
      <point x="367" y="146"/>
      <point x="325" y="110"/>
      <point x="273" y="110" type="curve" smooth="yes"/>
      <point x="221" y="110"/>
      <point x="179" y="146"/>
    </contour>
    <contour>
      <point x="274" y="415" type="move" name="top"/>
    </contour>
  </outline>
</glyph>
<glyph name="R" format="1">
  <advance width="480"/>
  <unicode hex="0052"/>
  <outline>
    <contour>
      <point x="194" y="0" type="line"/>
      <point x="194" y="163" type="line"/>
      <point x="123" y="102" type="line"/>
      <point x="254" y="102" type="line" smooth="yes"/>
      <point x="381" y="102"/>
      <point x="461" y="161"/>
      <point x="461" y="257" type="curve" smooth="yes"/>
      <point x="461" y="354"/>
      <point x="381" y="415"/>
      <point x="254" y="415" type="curve" smooth="yes"/>
      <point x="34" y="415" type="line"/>
      <point x="34" y="0" type="line"/>
    </contour>
    <contour>
      <point x="471" y="0" type="line"/>
      <point x="359" y="151" type="line"/>
      <point x="190" y="151" type="line"/>
      <point x="300" y="0" type="line"/>
    </contour>
    <contour>
      <point x="194" y="368" type="line"/>
      <point x="123" y="301" type="line"/>
      <point x="244" y="301" type="line" smooth="yes"/>
      <point x="282" y="301"/>
      <point x="300" y="285"/>
      <point x="300" y="257" type="curve" smooth="yes"/>
      <point x="300" y="230"/>
      <point x="282" y="213"/>
      <point x="244" y="213" type="curve" smooth="yes"/>
      <point x="123" y="213" type="line"/>
      <point x="194" y="146" type="line"/>
    </contour>
    <contour>
      <point x="244" y="415" type="move" name="top"/>
    </contour>
    <contour>
      <point x="244" y="0" type="move" name="bottom"/>
    </contour>
  </outline>
</glyph>
<glyph name="S" format="1">
  <advance width="425"/>
  <unicode hex="0053"/>
  <outline>
    <contour>
      <point x="418" y="132" type="curve" smooth="yes"/>
      <point x="418" y="285"/>
      <point x="171" y="246"/>
      <point x="171" y="291" type="curve" smooth="yes"/>
      <point x="171" y="302"/>
      <point x="184" y="312"/>
      <point x="225" y="312" type="curve" smooth="yes"/>
      <point x="264" y="312"/>
      <point x="306" y="303"/>
      <point x="351" y="282" type="curve"/>
      <point x="399" y="389" type="line"/>
      <point x="351" y="413"/>
      <point x="288" y="425"/>
      <point x="227" y="425" type="curve" smooth="yes"/>
      <point x="85" y="425"/>
      <point x="13" y="361"/>
      <point x="13" y="283" type="curve" smooth="yes"/>
      <point x="13" y="128"/>
      <point x="260" y="168"/>
      <point x="260" y="121" type="curve" smooth="yes"/>
      <point x="260" y="109"/>
      <point x="246" y="103"/>
      <point x="206" y="103" type="curve" smooth="yes"/>
      <point x="158" y="103"/>
      <point x="101" y="117"/>
      <point x="58" y="140" type="curve"/>
      <point x="7" y="32" type="line"/>
      <point x="53" y="7"/>
      <point x="129" y="-10"/>
      <point x="205" y="-10" type="curve" smooth="yes"/>
      <point x="347" y="-10"/>
      <point x="418" y="55"/>
    </contour>
    <contour>
      <point x="212" y="415" type="move" name="top"/>
    </contour>
    <contour>
      <point x="212" y="0" type="move" name="bottom"/>
    </contour>
  </outline>
</glyph>
<glyph name="T" format="1">
  <advance width="425"/>
  <unicode hex="0054"/>
  <outline>
    <contour>
      <point x="292" y="0" type="line"/>
      <point x="292" y="301" type="line"/>
      <point x="422" y="301" type="line"/>
      <point x="422" y="415" type="line"/>
      <point x="3" y="415" type="line"/>
      <point x="3" y="301" type="line"/>
      <point x="132" y="301" type="line"/>
      <point x="132" y="0" type="line"/>
    </contour>
    <contour>
      <point x="212" y="415" type="move" name="top"/>
    </contour>
    <contour>
      <point x="212" y="185" type="move" name="center"/>
    </contour>
    <contour>
      <point x="212" y="0" type="move" name="bottom"/>
    </contour>
  </outline>
</glyph>
<glyph name="U" format="1">
  <advance width="504"/>
  <unicode hex="0055"/>
  <outline>
    <contour>
      <point x="474" y="188" type="curve" smooth="yes"/>
      <point x="474" y="415" type="line"/>
      <point x="317" y="415" type="line"/>
      <point x="317" y="192" type="line" smooth="yes"/>
      <point x="317" y="131"/>
      <point x="292" y="110"/>
      <point x="253" y="110" type="curve" smooth="yes"/>
      <point x="214" y="110"/>
      <point x="190" y="131"/>
      <point x="190" y="192" type="curve" smooth="yes"/>
      <point x="190" y="415" type="line"/>
      <point x="30" y="415" type="line"/>
      <point x="30" y="188" type="line" smooth="yes"/>
      <point x="30" y="63"/>
      <point x="112" y="-10"/>
      <point x="252" y="-10" type="curve" smooth="yes"/>
      <point x="392" y="-10"/>
      <point x="474" y="63"/>
    </contour>
    <contour>
      <point x="400" y="0" type="move" name="ogonek"/>
    </contour>
    <contour>
      <point x="253" y="415" type="move" name="top"/>
    </contour>
    <contour>
      <point x="410" y="415" type="move" name="topright"/>
    </contour>
    <contour>
      <point x="253" y="0" type="move" name="bottom"/>
    </contour>
  </outline>
</glyph>
<glyph name="V" format="1">
  <advance width="510"/>
  <unicode hex="0056"/>
  <outline>
    <contour>
      <point x="334" y="0" type="line"/>
      <point x="523" y="415" type="line"/>
      <point x="366" y="415" type="line"/>
      <point x="209" y="68" type="line"/>
      <point x="311" y="68" type="line"/>
      <point x="159" y="415" type="line"/>
      <point x="-13" y="415" type="line"/>
      <point x="176" y="0" type="line"/>
    </contour>
  </outline>
</glyph>
<glyph name="W" format="1">
  <advance width="809"/>
  <unicode hex="0057"/>
  <outline>
    <contour>
      <point x="328" y="0" type="line"/>
      <point x="430" y="280" type="line"/>
      <point x="384" y="280" type="line"/>
      <point x="481" y="0" type="line"/>
      <point x="653" y="0" type="line"/>
      <point x="802" y="415" type="line"/>
      <point x="648" y="415" type="line"/>
      <point x="522" y="68" type="line"/>
      <point x="606" y="68" type="line"/>
      <point x="487" y="415" type="line"/>
      <point x="335" y="415" type="line"/>
      <point x="207" y="68" type="line"/>
      <point x="294" y="68" type="line"/>
      <point x="173" y="415" type="line"/>
      <point x="7" y="415" type="line"/>
      <point x="156" y="0" type="line"/>
    </contour>
    <contour>
      <point x="404" y="415" type="move" name="top"/>
    </contour>
    <contour>
      <point x="404" y="0" type="move" name="bottom"/>
    </contour>
  </outline>
</glyph>
<glyph name="X" format="1">
  <advance width="495"/>
  <unicode hex="0058"/>
  <outline>
    <contour>
      <point x="176" y="0" type="line"/>
      <point x="283" y="159" type="line"/>
      <point x="209" y="158" type="line"/>
      <point x="319" y="0" type="line"/>
      <point x="502" y="0" type="line"/>
      <point x="296" y="266" type="line"/>
      <point x="296" y="163" type="line"/>
      <point x="492" y="415" type="line"/>
      <point x="320" y="415" type="line"/>
      <point x="212" y="263" type="line"/>
      <point x="289" y="263" type="line"/>
      <point x="179" y="415" type="line"/>
      <point x="-1" y="415" type="line"/>
      <point x="195" y="158" type="line"/>
      <point x="195" y="261" type="line"/>
      <point x="-6" y="0" type="line"/>
    </contour>
  </outline>
</glyph>
<glyph name="Y" format="1">
  <advance width="499"/>
  <unicode hex="0059"/>
  <outline>
    <contour>
      <point x="330" y="0" type="line"/>
      <point x="330" y="155" type="line"/>
      <point x="294" y="66" type="line"/>
      <point x="518" y="415" type="line"/>
      <point x="361" y="415" type="line"/>
      <point x="205" y="173" type="line"/>
      <point x="307" y="173" type="line"/>
      <point x="152" y="415" type="line"/>
      <point x="-19" y="415" type="line"/>
      <point x="206" y="66" type="line"/>
      <point x="169" y="155" type="line"/>
      <point x="169" y="0" type="line"/>
    </contour>
    <contour>
      <point x="249" y="415" type="move" name="top"/>
    </contour>
    <contour>
      <point x="249" y="0" type="move" name="bottom"/>
    </contour>
  </outline>
</glyph>
<glyph name="Z" format="1">
  <advance width="444"/>
  <unicode hex="005A"/>
  <outline>
    <contour>
      <point x="437" y="0" type="line"/>
      <point x="437" y="114" type="line"/>
      <point x="161" y="114" type="line"/>
      <point x="181" y="63" type="line"/>
      <point x="426" y="325" type="line"/>
      <point x="426" y="416" type="line"/>
      <point x="27" y="416" type="line"/>
      <point x="27" y="301" type="line"/>
      <point x="285" y="301" type="line"/>
      <point x="266" y="353" type="line"/>
      <point x="20" y="91" type="line"/>
      <point x="20" y="0" type="line"/>
    </contour>
    <contour>
      <point x="229" y="415" type="move" name="top"/>
    </contour>
    <contour>
      <point x="228" y="0" type="move" name="bottom"/>
    </contour>
  </outline>
</glyph>
<glyph name="bracketleft" format="1">
  <advance width="249"/>
  <unicode hex="005B"/>
  <outline>
    <contour>
      <point x="243" y="-74" type="line"/>
      <point x="243" y="30" type="line"/>
      <point x="168" y="30" type="line"/>
      <point x="168" y="336" type="line"/>
      <point x="243" y="336" type="line"/>
      <point x="243" y="440" type="line"/>
      <point x="33" y="440" type="line"/>
      <point x="33" y="-74" type="line"/>
    </contour>
  </outline>
</glyph>
<glyph name="underscore" format="1">
  <advance width="388"/>
  <unicode hex="005F"/>
  <outline>
    <contour>
      <point x="388" y="-121" type="line"/>
      <point x="388" y="-46" type="line"/>
      <point x="0" y="-46" type="line"/>
      <point x="0" y="-121" type="line"/>
    </contour>
  </outline>
</glyph>
<glyph name="a" format="1">
  <advance width="407"/>
  <unicode hex="0061"/>
  <outline>
    <contour>
      <point x="378" y="0" type="line"/>
      <point x="378" y="173" type="line" smooth="yes"/>
      <point x="378" y="283"/>
      <point x="307" y="332"/>
      <point x="184" y="332" type="curve" smooth="yes"/>
      <point x="130" y="332"/>
      <point x="67" y="319"/>
      <point x="25" y="295" type="curve"/>
      <point x="73" y="202" type="line"/>
      <point x="96" y="218"/>
      <point x="131" y="227"/>
      <point x="158" y="227" type="curve" smooth="yes"/>
      <point x="206" y="227"/>
      <point x="225" y="210"/>
      <point x="225" y="181" type="curve" smooth="yes"/>
      <point x="225" y="72" type="line"/>
      <point x="236" y="57" type="line"/>
      <point x="236" y="0" type="line"/>
    </contour>
    <contour>
      <point x="198" y="-6"/>
      <point x="233" y="17"/>
      <point x="244" y="65" type="curve"/>
      <point x="225" y="107" type="line"/>
      <point x="218" y="87"/>
      <point x="201" y="79"/>
      <point x="184" y="79" type="curve" smooth="yes"/>
      <point x="165" y="79"/>
      <point x="153" y="89"/>
      <point x="153" y="102" type="curve" smooth="yes"/>
      <point x="153" y="118"/>
      <point x="166" y="126"/>
      <point x="194" y="126" type="curve" smooth="yes"/>
      <point x="239" y="126" type="line"/>
      <point x="239" y="194" type="line"/>
      <point x="170" y="194" type="line" smooth="yes"/>
      <point x="60" y="194"/>
      <point x="9" y="160"/>
      <point x="9" y="96" type="curve" smooth="yes"/>
      <point x="9" y="40"/>
      <point x="52" y="-6"/>
      <point x="138" y="-6" type="curve" smooth="yes"/>
    </contour>
    <contour>
      <point x="201" y="325" type="move" name="top"/>
    </contour>
    <contour>
      <point x="336" y="0" type="move" name="ogonek"/>
    </contour>
    <contour>
      <point x="185" y="0" type="move" name="bottom"/>
    </contour>
  </outline>
</glyph>
<glyph name="b" format="1">
  <advance width="447"/>
  <unicode hex="0062"/>
  <outline>
    <contour>
      <point x="435" y="163" type="curve" smooth="yes"/>
      <point x="435" y="268"/>
      <point x="358" y="332"/>
      <point x="267" y="332" type="curve" smooth="yes"/>
      <point x="176" y="332"/>
      <point x="137" y="280"/>
      <point x="137" y="163" type="curve" smooth="yes"/>
      <point x="137" y="45"/>
      <point x="171" y="-6"/>
      <point x="267" y="-6" type="curve" smooth="yes"/>
      <point x="358" y="-6"/>
      <point x="435" y="58"/>
    </contour>
    <contour>
      <point x="175" y="0" type="line"/>
      <point x="175" y="40" type="line"/>
      <point x="176" y="163" type="line"/>
      <point x="183" y="286" type="line"/>
      <point x="183" y="440" type="line"/>
      <point x="30" y="440" type="line"/>
      <point x="30" y="0" type="line"/>
    </contour>
    <contour>
      <point x="180" y="163" type="curve" smooth="yes"/>
      <point x="180" y="203"/>
      <point x="203" y="222"/>
      <point x="232" y="222" type="curve" smooth="yes"/>
      <point x="261" y="222"/>
      <point x="284" y="203"/>
      <point x="284" y="163" type="curve" smooth="yes"/>
      <point x="284" y="124"/>
      <point x="261" y="104"/>
      <point x="232" y="104" type="curve" smooth="yes"/>
      <point x="203" y="104"/>
      <point x="180" y="124"/>
    </contour>
  </outline>
</glyph>
<glyph name="c" format="1">
  <advance width="390"/>
  <unicode hex="0063"/>
  <outline>
    <contour>
      <point x="391" y="93" type="curve"/>
      <point x="276" y="146" type="line"/>
      <point x="262" y="116"/>
      <point x="242" y="104"/>
      <point x="218" y="104" type="curve" smooth="yes"/>
      <point x="188" y="104"/>
      <point x="163" y="123"/>
      <point x="163" y="163" type="curve" smooth="yes"/>
      <point x="163" y="203"/>
      <point x="188" y="222"/>
      <point x="218" y="222" type="curve" smooth="yes"/>
      <point x="242" y="222"/>
      <point x="262" y="209"/>
      <point x="276" y="179" type="curve"/>
      <point x="391" y="233" type="line"/>
      <point x="368" y="294"/>
      <point x="304" y="332"/>
      <point x="218" y="332" type="curve" smooth="yes"/>
      <point x="98" y="332"/>
      <point x="12" y="262"/>
      <point x="12" y="163" type="curve" smooth="yes"/>
      <point x="12" y="64"/>
      <point x="98" y="-6"/>
      <point x="218" y="-6" type="curve" smooth="yes"/>
      <point x="304" y="-6"/>
      <point x="368" y="31"/>
    </contour>
    <contour>
      <point x="206" y="325" type="move" name="top"/>
    </contour>
    <contour>
      <point x="200" y="0" type="move" name="bottom"/>
    </contour>
  </outline>
</glyph>
<glyph name="d" format="1">
  <advance width="451"/>
  <unicode hex="0064"/>
  <outline>
    <contour>
      <point x="314" y="163" type="curve" smooth="yes"/>
      <point x="314" y="280"/>
      <point x="274" y="332"/>
      <point x="184" y="332" type="curve" smooth="yes"/>
      <point x="93" y="332"/>
      <point x="16" y="268"/>
      <point x="16" y="163" type="curve" smooth="yes"/>
      <point x="16" y="58"/>
      <point x="93" y="-6"/>
      <point x="184" y="-6" type="curve" smooth="yes"/>
      <point x="280" y="-6"/>
      <point x="314" y="45"/>
    </contour>
    <contour>
      <point x="167" y="163" type="curve" smooth="yes"/>
      <point x="167" y="203"/>
      <point x="190" y="222"/>
      <point x="219" y="222" type="curve" smooth="yes"/>
      <point x="248" y="222"/>
      <point x="270" y="203"/>
      <point x="270" y="163" type="curve" smooth="yes"/>
      <point x="270" y="124"/>
      <point x="248" y="104"/>
      <point x="219" y="104" type="curve" smooth="yes"/>
      <point x="190" y="104"/>
      <point x="167" y="124"/>
    </contour>
    <contour>
      <point x="421" y="0" type="line"/>
      <point x="421" y="440" type="line"/>
      <point x="268" y="440" type="line"/>
      <point x="268" y="286" type="line"/>
      <point x="274" y="163" type="line"/>
      <point x="275" y="40" type="line"/>
      <point x="275" y="0" type="line"/>
    </contour>
    <contour>
      <point x="313" y="380" type="move" name="center"/>
    </contour>
    <contour>
      <point x="244" y="0" type="move" name="bottom"/>
    </contour>
    <contour>
      <point x="467" y="440" type="move" name="topright"/>
    </contour>
  </outline>
</glyph>
<glyph name="e" format="1">
  <advance width="424"/>
  <unicode hex="0065"/>
  <outline>
    <contour>
      <point x="385" y="46" type="curve"/>
      <point x="306" y="120" type="line"/>
      <point x="283" y="105"/>
      <point x="266" y="98"/>
      <point x="234" y="98" type="curve" smooth="yes"/>
      <point x="187" y="98"/>
      <point x="161" y="119"/>
      <point x="161" y="159" type="curve" smooth="yes"/>
      <point x="161" y="180" type="line" smooth="yes"/>
      <point x="161" y="215"/>
      <point x="182" y="235"/>
      <point x="216" y="235" type="curve" smooth="yes"/>
      <point x="250" y="235"/>
      <point x="270" y="215"/>
      <point x="270" y="180" type="curve"/>
      <point x="330" y="198" type="line"/>
      <point x="140" y="198" type="line"/>
      <point x="140" y="130" type="line"/>
      <point x="409" y="130" type="line"/>
      <point x="410" y="140"/>
      <point x="412" y="153"/>
      <point x="412" y="163" type="curve" smooth="yes"/>
      <point x="412" y="274"/>
      <point x="320" y="332"/>
      <point x="215" y="332" type="curve" smooth="yes"/>
      <point x="99" y="332"/>
      <point x="12" y="262"/>
      <point x="12" y="163" type="curve" smooth="yes"/>
      <point x="12" y="66"/>
      <point x="96" y="-6"/>
      <point x="229" y="-6" type="curve" smooth="yes"/>
      <point x="299" y="-6"/>
      <point x="350" y="12"/>
    </contour>
    <contour>
      <point x="215" y="325" type="move" name="top"/>
    </contour>
    <contour>
      <point x="362" y="0" type="move" name="ogonek"/>
    </contour>
    <contour>
      <point x="215" y="0" type="move" name="bottom"/>
    </contour>
  </outline>
</glyph>
<glyph name="f" format="1">
  <advance width="278"/>
  <unicode hex="0066"/>
  <outline>
    <contour>
      <point x="200" y="0" type="line"/>
      <point x="200" y="233" type="line"/>
      <point x="195" y="291" type="line"/>
      <point x="195" y="304" type="line" smooth="yes"/>
      <point x="195" y="329"/>
      <point x="208" y="339"/>
      <point x="228" y="339" type="curve" smooth="yes"/>
      <point x="239" y="339"/>
      <point x="250" y="336"/>
      <point x="259" y="332" type="curve"/>
      <point x="295" y="431" type="line"/>
      <point x="274" y="441"/>
      <point x="239" y="446"/>
      <point x="208" y="446" type="curve" smooth="yes"/>
      <point x="105" y="446"/>
      <point x="46" y="391"/>
      <point x="46" y="305" type="curve" smooth="yes"/>
      <point x="46" y="0" type="line"/>
    </contour>
    <contour>
      <point x="269" y="203" type="line"/>
      <point x="269" y="307" type="line"/>
      <point x="-1" y="307" type="line"/>
      <point x="-1" y="203" type="line"/>
    </contour>
  </outline>
</glyph>
<glyph name="g" format="1">
  <advance width="454"/>
  <unicode hex="0067"/>
  <outline>
    <contour>
      <point x="425" y="67" type="curve" smooth="yes"/>
      <point x="425" y="325" type="line"/>
      <point x="279" y="325" type="line"/>
      <point x="279" y="280" type="line"/>
      <point x="278" y="175" type="line"/>
      <point x="271" y="70" type="line"/>
      <point x="271" y="48" type="line" smooth="yes"/>
      <point x="271" y="7"/>
      <point x="249" y="-16"/>
      <point x="193" y="-16" type="curve" smooth="yes"/>
      <point x="157" y="-16"/>
      <point x="110" y="-4"/>
      <point x="83" y="15" type="curve"/>
      <point x="32" y="-82" type="line"/>
      <point x="76" y="-108"/>
      <point x="139" y="-121"/>
      <point x="208" y="-121" type="curve" smooth="yes"/>
      <point x="343" y="-121"/>
      <point x="425" y="-60"/>
    </contour>
    <contour>
      <point x="308" y="175" type="curve" smooth="yes"/>
      <point x="308" y="283"/>
      <point x="269" y="332"/>
      <point x="180" y="332" type="curve" smooth="yes"/>
      <point x="91" y="332"/>
      <point x="12" y="272"/>
      <point x="12" y="175" type="curve" smooth="yes"/>
      <point x="12" y="79"/>
      <point x="91" y="18"/>
      <point x="180" y="18" type="curve" smooth="yes"/>
      <point x="269" y="18"/>
      <point x="308" y="67"/>
    </contour>
    <contour>
      <point x="163" y="175" type="curve" smooth="yes"/>
      <point x="163" y="204"/>
      <point x="187" y="222"/>
      <point x="214" y="222" type="curve" smooth="yes"/>
      <point x="242" y="222"/>
      <point x="265" y="204"/>
      <point x="265" y="175" type="curve" smooth="yes"/>
      <point x="265" y="147"/>
      <point x="242" y="128"/>
      <point x="214" y="128" type="curve" smooth="yes"/>
      <point x="187" y="128"/>
      <point x="163" y="147"/>
    </contour>
    <contour>
      <point x="226" y="325" type="move" name="top"/>
    </contour>
  </outline>
</glyph>
<glyph name="h" format="1">
  <advance width="453"/>
  <unicode hex="0068"/>
  <outline>
    <contour>
      <point x="424" y="0" type="line"/>
      <point x="424" y="185" type="line" smooth="yes"/>
      <point x="424" y="288"/>
      <point x="360" y="332"/>
      <point x="279" y="332" type="curve" smooth="yes"/>
      <point x="204" y="332"/>
      <point x="141" y="289"/>
      <point x="127" y="200" type="curve"/>
      <point x="183" y="152" type="line"/>
      <point x="183" y="198"/>
      <point x="206" y="213"/>
      <point x="232" y="213" type="curve" smooth="yes"/>
      <point x="256" y="213"/>
      <point x="271" y="199"/>
      <point x="271" y="161" type="curve" smooth="yes"/>
      <point x="271" y="0" type="line"/>
    </contour>
    <contour>
      <point x="183" y="0" type="line"/>
      <point x="183" y="440" type="line"/>
      <point x="30" y="440" type="line"/>
      <point x="30" y="0" type="line"/>
    </contour>
    <contour>
      <point x="139" y="380" type="move" name="center"/>
    </contour>
    <contour>
      <point x="106" y="440" type="move" name="top"/>
    </contour>
    <contour>
      <point x="202" y="325" type="move" name="topright"/>
    </contour>
    <contour>
      <point x="229" y="0" type="move" name="bottom"/>
    </contour>
  </outline>
</glyph>
<glyph name="i" format="1">
  <advance width="212"/>
  <unicode hex="0069"/>
  <outline>
    <component base="dotaccentcomb.i" xOffset="-86.625"/>
    <component base="idotless"/>
    <contour>
      <point x="182" y="0" type="move" name="ogonek"/>
    </contour>
    <contour>
      <point x="106" y="0" type="move" name="bottom"/>
    </contour>
  </outline>
</glyph>
<glyph name="k" format="1">
  <advance width="449"/>
  <unicode hex="006B"/>
  <outline>
    <contour>
      <point x="219" y="111" type="line"/>
      <point x="295" y="168" type="line"/>
      <point x="457" y="325" type="line"/>
      <point x="276" y="325" type="line"/>
      <point x="161" y="218" type="line"/>
      <point x="158" y="51" type="line"/>
    </contour>
    <contour>
      <point x="183" y="0" type="line"/>
      <point x="183" y="440" type="line"/>
      <point x="30" y="440" type="line"/>
      <point x="30" y="0" type="line"/>
    </contour>
    <contour>
      <point x="468" y="0" type="line"/>
      <point x="284" y="216" type="line"/>
      <point x="190" y="109" type="line"/>
      <point x="283" y="0" type="line"/>
    </contour>
    <contour>
      <point x="106" y="440" type="move" name="top"/>
    </contour>
    <contour>
      <point x="199" y="325" type="move" name="topright"/>
    </contour>
    <contour>
      <point x="208" y="0" type="move" name="bottom"/>
    </contour>
  </outline>
</glyph>
<glyph name="l" format="1">
  <advance width="213"/>
  <unicode hex="006C"/>
  <outline>
    <contour>
      <point x="183" y="0" type="line"/>
      <point x="183" y="440" type="line"/>
      <point x="30" y="440" type="line"/>
      <point x="30" y="0" type="line"/>
    </contour>
    <contour>
      <point x="106" y="220" type="move" name="center"/>
    </contour>
    <contour>
      <point x="274" y="220" type="move" name="dot"/>
    </contour>
    <contour>
      <point x="106" y="440" type="move" name="top"/>
    </contour>
    <contour>
      <point x="227" y="440" type="move" name="topright"/>
    </contour>
    <contour>
      <point x="106" y="0" type="move" name="bottom"/>
    </contour>
  </outline>
</glyph>
<glyph name="m" format="1">
  <advance width="668"/>
  <unicode hex="006D"/>
  <outline>
    <contour>
      <point x="639" y="0" type="line"/>
      <point x="639" y="185" type="line" smooth="yes"/>
      <point x="639" y="288"/>
      <point x="578" y="332"/>
      <point x="498" y="332" type="curve" smooth="yes"/>
      <point x="426" y="332"/>
      <point x="368" y="291"/>
      <point x="348" y="224" type="curve"/>
      <point x="411" y="158" type="line"/>
      <point x="411" y="199"/>
      <point x="429" y="213"/>
      <point x="451" y="213" type="curve" smooth="yes"/>
      <point x="471" y="213"/>
      <point x="486" y="199"/>
      <point x="486" y="161" type="curve" smooth="yes"/>
      <point x="486" y="0" type="line"/>
    </contour>
    <contour>
      <point x="183" y="0" type="line"/>
      <point x="183" y="230" type="line"/>
      <point x="175" y="258" type="line"/>
      <point x="175" y="325" type="line"/>
      <point x="30" y="325" type="line"/>
      <point x="30" y="0" type="line"/>
    </contour>
    <contour>
      <point x="411" y="0" type="line"/>
      <point x="411" y="185" type="line" smooth="yes"/>
      <point x="411" y="287"/>
      <point x="350" y="332"/>
      <point x="273" y="332" type="curve" smooth="yes"/>
      <point x="201" y="332"/>
      <point x="140" y="289"/>
      <point x="127" y="200" type="curve"/>
      <point x="183" y="158" type="line"/>
      <point x="183" y="199"/>
      <point x="201" y="213"/>
      <point x="223" y="213" type="curve" smooth="yes"/>
      <point x="245" y="213"/>
      <point x="258" y="199"/>
      <point x="258" y="161" type="curve" smooth="yes"/>
      <point x="258" y="0" type="line"/>
    </contour>
    <contour>
      <point x="333" y="0" type="move" name="bottom"/>
    </contour>
  </outline>
</glyph>
<glyph name="n" format="1">
  <advance width="453"/>
  <unicode hex="006E"/>
  <outline>
    <contour>
      <point x="424" y="0" type="line"/>
      <point x="424" y="185" type="line" smooth="yes"/>
      <point x="424" y="288"/>
      <point x="360" y="332"/>
      <point x="279" y="332" type="curve" smooth="yes"/>
      <point x="204" y="332"/>
      <point x="141" y="289"/>
      <point x="127" y="200" type="curve"/>
      <point x="183" y="152" type="line"/>
      <point x="183" y="198"/>
      <point x="206" y="213"/>
      <point x="232" y="213" type="curve" smooth="yes"/>
      <point x="256" y="213"/>
      <point x="271" y="199"/>
      <point x="271" y="161" type="curve" smooth="yes"/>
      <point x="271" y="0" type="line"/>
    </contour>
    <contour>
      <point x="183" y="0" type="line"/>
      <point x="183" y="230" type="line"/>
      <point x="175" y="258" type="line"/>
      <point x="175" y="325" type="line"/>
      <point x="30" y="325" type="line"/>
      <point x="30" y="0" type="line"/>
    </contour>
    <contour>
      <point x="229" y="325" type="move" name="top"/>
    </contour>
    <contour>
      <point x="229" y="0" type="move" name="bottom"/>
    </contour>
  </outline>
</glyph>
<glyph name="o" format="1">
  <advance width="430"/>
  <unicode hex="006F"/>
  <outline>
    <contour>
      <point x="334" y="-6"/>
      <point x="418" y="64"/>
      <point x="418" y="163" type="curve" smooth="yes"/>
      <point x="418" y="262"/>
      <point x="334" y="332"/>
      <point x="215" y="332" type="curve" smooth="yes"/>
      <point x="97" y="332"/>
      <point x="12" y="262"/>
      <point x="12" y="163" type="curve" smooth="yes"/>
      <point x="12" y="64"/>
      <point x="97" y="-6"/>
      <point x="215" y="-6" type="curve" smooth="yes"/>
    </contour>
    <contour>
      <point x="186" y="104"/>
      <point x="163" y="124"/>
      <point x="163" y="163" type="curve" smooth="yes"/>
      <point x="163" y="203"/>
      <point x="186" y="222"/>
      <point x="215" y="222" type="curve" smooth="yes"/>
      <point x="244" y="222"/>
      <point x="267" y="203"/>
      <point x="267" y="163" type="curve" smooth="yes"/>
      <point x="267" y="124"/>
      <point x="244" y="104"/>
      <point x="215" y="104" type="curve" smooth="yes"/>
    </contour>
    <contour>
      <point x="213" y="163" type="move" name="center"/>
    </contour>
    <contour>
      <point x="294" y="0" type="move" name="ogonek"/>
    </contour>
    <contour>
      <point x="213" y="325" type="move" name="top"/>
    </contour>
    <contour>
      <point x="272" y="325" type="move" name="topright"/>
    </contour>
    <contour>
      <point x="213" y="0" type="move" name="bottom"/>
    </contour>
  </outline>
</glyph>
<glyph name="q" format="1">
  <advance width="447"/>
  <unicode hex="0071"/>
  <outline>
    <contour>
      <point x="311" y="162" type="curve" smooth="yes"/>
      <point x="311" y="281"/>
      <point x="277" y="332"/>
      <point x="180" y="332" type="curve" smooth="yes"/>
      <point x="89" y="332"/>
      <point x="12" y="268"/>
      <point x="12" y="162" type="curve" smooth="yes"/>
      <point x="12" y="57"/>
      <point x="89" y="-6"/>
      <point x="180" y="-6" type="curve" smooth="yes"/>
      <point x="271" y="-6"/>
      <point x="311" y="46"/>
    </contour>
    <contour>
      <point x="163" y="162" type="curve" smooth="yes"/>
      <point x="163" y="202"/>
      <point x="186" y="222"/>
      <point x="215" y="222" type="curve" smooth="yes"/>
      <point x="244" y="222"/>
      <point x="267" y="202"/>
      <point x="267" y="162" type="curve" smooth="yes"/>
      <point x="267" y="123"/>
      <point x="244" y="104"/>
      <point x="215" y="104" type="curve" smooth="yes"/>
      <point x="186" y="104"/>
      <point x="163" y="123"/>
    </contour>
    <contour>
      <point x="417" y="-115" type="line"/>
      <point x="417" y="325" type="line"/>
      <point x="272" y="325" type="line"/>
      <point x="272" y="286" type="line"/>
      <point x="271" y="162" type="line"/>
      <point x="264" y="39" type="line"/>
      <point x="264" y="-115" type="line"/>
    </contour>
    <contour>
      <point x="215" y="325" type="move" name="top"/>
    </contour>
    <contour>
      <point x="180" y="0" type="move" name="bottom"/>
    </contour>
  </outline>
</glyph>
<glyph name="r" format="1">
  <advance width="296"/>
  <unicode hex="0072"/>
  <outline>
    <contour>
      <point x="183" y="0" type="line"/>
      <point x="183" y="230" type="line"/>
      <point x="175" y="258" type="line"/>
      <point x="175" y="325" type="line"/>
      <point x="30" y="325" type="line"/>
      <point x="30" y="0" type="line"/>
    </contour>
    <contour>
      <point x="254" y="209" type="curve" smooth="yes"/>
      <point x="265" y="209"/>
      <point x="275" y="208"/>
      <point x="288" y="207" type="curve"/>
      <point x="287" y="332" type="line"/>
      <point x="199" y="332"/>
      <point x="141" y="287"/>
      <point x="141" y="192" type="curve"/>
      <point x="183" y="143" type="line"/>
      <point x="183" y="193"/>
      <point x="213" y="209"/>
    </contour>
    <contour>
      <point x="158" y="325" type="move" name="top"/>
    </contour>
    <contour>
      <point x="106" y="0" type="move" name="bottom"/>
    </contour>
  </outline>
</glyph>
<glyph name="s" format="1">
  <advance width="377"/>
  <unicode hex="0073"/>
  <outline>
    <contour>
      <point x="361" y="105" type="curve" smooth="yes"/>
      <point x="361" y="236"/>
      <point x="161" y="194"/>
      <point x="161" y="223" type="curve" smooth="yes"/>
      <point x="161" y="229"/>
      <point x="169" y="235"/>
      <point x="205" y="235" type="curve" smooth="yes"/>
      <point x="234" y="235"/>
      <point x="270" y="230"/>
      <point x="307" y="212" type="curve"/>
      <point x="348" y="305" type="line"/>
      <point x="307" y="323"/>
      <point x="255" y="332"/>
      <point x="203" y="332" type="curve" smooth="yes"/>
      <point x="75" y="332"/>
      <point x="19" y="281"/>
      <point x="19" y="220" type="curve" smooth="yes"/>
      <point x="19" y="88"/>
      <point x="220" y="131"/>
      <point x="220" y="102" type="curve" smooth="yes"/>
      <point x="220" y="95"/>
      <point x="212" y="90"/>
      <point x="179" y="90" type="curve" smooth="yes"/>
      <point x="138" y="90"/>
      <point x="90" y="100"/>
      <point x="56" y="118" type="curve"/>
      <point x="14" y="25" type="line"/>
      <point x="51" y="7"/>
      <point x="115" y="-6"/>
      <point x="176" y="-6" type="curve" smooth="yes"/>
      <point x="307" y="-6"/>
      <point x="361" y="46"/>
    </contour>
    <contour>
      <point x="184" y="325" type="move" name="top"/>
    </contour>
    <contour>
      <point x="184" y="0" type="move" name="bottom"/>
    </contour>
  </outline>
</glyph>
<glyph name="t" format="1">
  <advance width="299"/>
  <unicode hex="0074"/>
  <outline>
    <contour>
      <point x="295" y="11" type="curve"/>
      <point x="259" y="109" type="line"/>
      <point x="250" y="103"/>
      <point x="239" y="101"/>
      <point x="228" y="101" type="curve" smooth="yes"/>
      <point x="212" y="101"/>
      <point x="200" y="111"/>
      <point x="200" y="130" type="curve" smooth="yes"/>
      <point x="200" y="399" type="line"/>
      <point x="46" y="399" type="line"/>
      <point x="46" y="129" type="line" smooth="yes"/>
      <point x="46" y="37"/>
      <point x="105" y="-6"/>
      <point x="204" y="-6" type="curve" smooth="yes"/>
      <point x="239" y="-6"/>
      <point x="272" y="-1"/>
    </contour>
    <contour>
      <point x="269" y="203" type="line"/>
      <point x="269" y="307" type="line"/>
      <point x="-1" y="307" type="line"/>
      <point x="-1" y="203" type="line"/>
    </contour>
    <contour>
      <point x="134" y="153" type="move" name="center"/>
    </contour>
    <contour>
      <point x="123" y="399" type="move" name="top"/>
    </contour>
    <contour>
      <point x="228" y="440" type="move" name="topright"/>
    </contour>
    <contour>
      <point x="177" y="0" type="move" name="bottom"/>
    </contour>
  </outline>
</glyph>
<glyph name="u" format="1">
  <advance width="450"/>
  <unicode hex="0075"/>
  <outline>
    <contour>
      <point x="323" y="125" type="curve"/>
      <point x="267" y="174" type="line"/>
      <point x="267" y="128"/>
      <point x="244" y="113"/>
      <point x="223" y="113" type="curve" smooth="yes"/>
      <point x="197" y="113"/>
      <point x="182" y="127"/>
      <point x="182" y="171" type="curve" smooth="yes"/>
      <point x="182" y="325" type="line"/>
      <point x="29" y="325" type="line"/>
      <point x="29" y="146" type="line" smooth="yes"/>
      <point x="29" y="40"/>
      <point x="93" y="-6"/>
      <point x="177" y="-6" type="curve" smooth="yes"/>
      <point x="248" y="-6"/>
      <point x="310" y="36"/>
    </contour>
    <contour>
      <point x="420" y="0" type="line"/>
      <point x="420" y="325" type="line"/>
      <point x="267" y="325" type="line"/>
      <point x="267" y="96" type="line"/>
      <point x="275" y="68" type="line"/>
      <point x="275" y="0" type="line"/>
    </contour>
    <contour>
      <point x="420" y="0" type="move" name="ogonek"/>
    </contour>
    <contour>
      <point x="224" y="325" type="move" name="top"/>
    </contour>
    <contour>
      <point x="344" y="325" type="move" name="topright"/>
    </contour>
    <contour>
      <point x="224" y="0" type="move" name="bottom"/>
    </contour>
  </outline>
</glyph>
<glyph name="v" format="1">
  <advance width="419"/>
  <unicode hex="0076"/>
  <outline>
    <contour>
      <point x="289" y="0" type="line"/>
      <point x="430" y="325" type="line"/>
      <point x="285" y="325" type="line"/>
      <point x="172" y="64" type="line"/>
      <point x="252" y="64" type="line"/>
      <point x="147" y="325" type="line"/>
      <point x="-10" y="325" type="line"/>
      <point x="130" y="0" type="line"/>
    </contour>
    <contour>
      <point x="210" y="325" type="move" name="top"/>
    </contour>
    <contour>
      <point x="210" y="0" type="move" name="bottom"/>
    </contour>
  </outline>
</glyph>
<glyph name="w" format="1">
  <advance width="684"/>
  <unicode hex="0077"/>
  <outline>
    <contour>
      <point x="285" y="0" type="line"/>
      <point x="367" y="202" type="line"/>
      <point x="320" y="202" type="line"/>
      <point x="399" y="0" type="line"/>
      <point x="558" y="0" type="line"/>
      <point x="690" y="325" type="line"/>
      <point x="546" y="325" type="line"/>
      <point x="437" y="64" type="line"/>
      <point x="520" y="64" type="line"/>
      <point x="419" y="325" type="line"/>
      <point x="276" y="325" type="line"/>
      <point x="167" y="64" type="line"/>
      <point x="251" y="64" type="line"/>
      <point x="149" y="325" type="line"/>
      <point x="-7" y="325" type="line"/>
      <point x="126" y="0" type="line"/>
    </contour>
    <contour>
      <point x="342" y="325" type="move" name="top"/>
    </contour>
    <contour>
      <point x="342" y="0" type="move" name="bottom"/>
    </contour>
  </outline>
</glyph>
<glyph name="x" format="1">
  <advance width="420"/>
  <unicode hex="0078"/>
  <outline>
    <contour>
      <point x="159" y="0" type="line"/>
      <point x="239" y="104" type="line"/>
      <point x="175" y="112" type="line"/>
      <point x="252" y="0" type="line"/>
      <point x="428" y="0" type="line"/>
      <point x="264" y="207" type="line"/>
      <point x="264" y="128" type="line"/>
      <point x="425" y="325" type="line"/>
      <point x="264" y="325" type="line"/>
      <point x="181" y="216" type="line"/>
      <point x="245" y="220" type="line"/>
      <point x="169" y="325" type="line"/>
      <point x="-4" y="325" type="line"/>
      <point x="156" y="121" type="line"/>
      <point x="160" y="203" type="line"/>
      <point x="-7" y="0" type="line"/>
    </contour>
  </outline>
</glyph>
<glyph name="y" format="1">
  <advance width="419"/>
  <unicode hex="0079"/>
  <outline>
    <contour>
      <point x="287" y="-4" type="curve" smooth="yes"/>
      <point x="430" y="325" type="line"/>
      <point x="285" y="325" type="line"/>
      <point x="174" y="63" type="line"/>
      <point x="164" y="49" type="line"/>
      <point x="149" y="16" type="line" smooth="yes"/>
      <point x="142" y="-2"/>
      <point x="131" y="-12"/>
      <point x="105" y="-12" type="curve" smooth="yes"/>
      <point x="88" y="-12"/>
      <point x="68" y="-5"/>
      <point x="54" y="5" type="curve"/>
      <point x="4" y="-92" type="line"/>
      <point x="28" y="-110"/>
      <point x="74" y="-121"/>
      <point x="113" y="-121" type="curve" smooth="yes"/>
      <point x="189" y="-121"/>
      <point x="248" y="-95"/>
    </contour>
    <contour>
      <point x="250" y="76" type="line"/>
      <point x="147" y="325" type="line"/>
      <point x="-10" y="325" type="line"/>
      <point x="142" y="-15" type="line"/>
    </contour>
    <contour>
      <point x="204" y="325" type="move" name="top"/>
    </contour>
    <contour>
      <point x="346" y="0" type="move" name="bottom"/>
    </contour>
  </outline>
</glyph>
<glyph name="z" format="1">
  <advance width="370"/>
  <unicode hex="007A"/>
  <outline>
    <contour>
      <point x="359" y="0" type="line"/>
      <point x="359" y="103" type="line"/>
      <point x="143" y="103" type="line"/>
      <point x="168" y="58" type="line"/>
      <point x="352" y="244" type="line"/>
      <point x="352" y="325" type="line"/>
      <point x="24" y="325" type="line"/>
      <point x="24" y="222" type="line"/>
      <point x="228" y="222" type="line"/>
      <point x="203" y="267" type="line"/>
      <point x="19" y="81" type="line"/>
      <point x="19" y="0" type="line"/>
    </contour>
    <contour>
      <point x="188" y="325" type="move" name="top"/>
    </contour>
    <contour>
      <point x="188" y="0" type="move" name="bottom"/>
    </contour>
  </outline>
</glyph>
<glyph name="braceleft" format="1">
  <advance width="245"/>
  <unicode hex="007B"/>
  <outline>
    <contour>
      <point x="33" y="130" type="line"/>
      <point x="87" y="178" type="line" smooth="yes"/>
      <point x="163" y="184"/>
      <point x="188" y="205"/>
      <point x="188" y="265" type="curve" smooth="yes"/>
      <point x="188" y="304" type="line" smooth="yes"/>
      <point x="188" y="330"/>
      <point x="196" y="338"/>
      <point x="239" y="338" type="curve"/>
      <point x="239" y="441" type="line"/>
      <point x="179" y="441" type="line" smooth="yes"/>
      <point x="83" y="441"/>
      <point x="52" y="419"/>
      <point x="52" y="349" type="curve" smooth="yes"/>
      <point x="52" y="255" type="line" smooth="yes"/>
      <point x="52" y="241"/>
      <point x="47" y="236"/>
      <point x="33" y="236" type="curve" smooth="yes"/>
      <point x="3" y="236" type="line"/>
      <point x="3" y="130" type="line"/>
    </contour>
    <contour>
      <point x="239" y="-75" type="line"/>
      <point x="239" y="28" type="line"/>
      <point x="196" y="28"/>
      <point x="188" y="37"/>
      <point x="188" y="63" type="curve" smooth="yes"/>
      <point x="188" y="102" type="line" smooth="yes"/>
      <point x="188" y="161"/>
      <point x="163" y="182"/>
      <point x="87" y="188" type="curve" smooth="yes"/>
      <point x="33" y="236" type="line"/>
      <point x="3" y="236" type="line"/>
      <point x="3" y="130" type="line"/>
      <point x="33" y="130" type="line" smooth="yes"/>
      <point x="47" y="130"/>
      <point x="52" y="126"/>
      <point x="52" y="111" type="curve" smooth="yes"/>
      <point x="52" y="18" type="line" smooth="yes"/>
      <point x="52" y="-52"/>
      <point x="83" y="-75"/>
      <point x="179" y="-75" type="curve" smooth="yes"/>
    </contour>
  </outline>
</glyph>
<glyph name="asciitilde" format="1">
  <advance width="336"/>
  <unicode hex="007E"/>
  <outline>
    <contour>
      <point x="307" y="256" type="curve"/>
      <point x="207" y="256" type="line"/>
      <point x="207" y="240"/>
      <point x="202" y="232"/>
      <point x="191" y="232" type="curve" smooth="yes"/>
      <point x="175" y="232"/>
      <point x="158" y="258"/>
      <point x="113" y="258" type="curve" smooth="yes"/>
      <point x="56" y="258"/>
      <point x="29" y="218"/>
      <point x="29" y="134" type="curve"/>
      <point x="130" y="134" type="line"/>
      <point x="130" y="150"/>
      <point x="134" y="158"/>
      <point x="145" y="158" type="curve" smooth="yes"/>
      <point x="161" y="158"/>
      <point x="179" y="132"/>
      <point x="223" y="132" type="curve" smooth="yes"/>
      <point x="281" y="132"/>
      <point x="307" y="172"/>
    </contour>
  </outline>
</glyph>
<glyph name="cent" format="1">
  <advance width="386"/>
  <unicode hex="00A2"/>
  <outline>
    <contour>
      <point x="257" y="-99" type="line"/>
      <point x="257" y="61" type="line"/>
      <point x="145" y="61" type="line"/>
      <point x="145" y="-99" type="line"/>
    </contour>
    <contour>
      <point x="257" y="270" type="line"/>
      <point x="257" y="426" type="line"/>
      <point x="145" y="426" type="line"/>
      <point x="145" y="270" type="line"/>
    </contour>
    <component base="c"/>
  </outline>
</glyph>
<glyph name="sterling" format="1">
  <advance width="372"/>
  <unicode hex="00A3"/>
  <outline>
    <contour>
      <point x="364" y="0" type="line"/>
      <point x="364" y="108" type="line"/>
      <point x="145" y="108" type="line"/>
      <point x="214" y="45" type="line"/>
      <point x="214" y="271" type="line" smooth="yes"/>
      <point x="214" y="292"/>
      <point x="224" y="301"/>
      <point x="244" y="301" type="curve" smooth="yes"/>
      <point x="265" y="301"/>
      <point x="289" y="290"/>
      <point x="317" y="268" type="curve"/>
      <point x="374" y="374" type="line"/>
      <point x="336" y="405"/>
      <point x="282" y="422"/>
      <point x="227" y="422" type="curve" smooth="yes"/>
      <point x="118" y="422"/>
      <point x="56" y="368"/>
      <point x="56" y="274" type="curve" smooth="yes"/>
      <point x="56" y="45" type="line"/>
      <point x="124" y="108" type="line"/>
      <point x="12" y="108" type="line"/>
      <point x="12" y="0" type="line"/>
    </contour>
    <contour>
      <point x="315" y="179" type="line"/>
      <point x="315" y="222" type="line"/>
      <point x="12" y="222" type="line"/>
      <point x="12" y="179" type="line"/>
    </contour>
  </outline>
</glyph>
<glyph name="currency" format="1">
  <advance width="444"/>
  <unicode hex="00A4"/>
  <outline>
    <contour>
      <point x="384" y="192" type="curve" smooth="yes"/>
      <point x="384" y="274"/>
      <point x="312" y="342"/>
      <point x="222" y="342" type="curve" smooth="yes"/>
      <point x="132" y="342"/>
      <point x="60" y="274"/>
      <point x="60" y="192" type="curve" smooth="yes"/>
      <point x="60" y="109"/>
      <point x="132" y="42"/>
      <point x="222" y="42" type="curve" smooth="yes"/>
      <point x="311" y="42"/>
      <point x="384" y="109"/>
    </contour>
    <contour>
      <point x="161" y="54" type="line"/>
      <point x="77" y="132" type="line"/>
      <point x="8" y="69" type="line"/>
      <point x="93" y="-9" type="line"/>
    </contour>
    <contour>
      <point x="142" y="340" type="line"/>
      <point x="74" y="403" type="line"/>
      <point x="-11" y="325" type="line"/>
      <point x="58" y="262" type="line"/>
    </contour>
    <contour>
      <point x="455" y="51" type="line"/>
      <point x="387" y="114" type="line"/>
      <point x="302" y="36" type="line"/>
      <point x="370" y="-27" type="line"/>
    </contour>
    <contour>
      <point x="178" y="192" type="curve" smooth="yes"/>
      <point x="178" y="214"/>
      <point x="197" y="233"/>
      <point x="222" y="233" type="curve" smooth="yes"/>
      <point x="246" y="233"/>
      <point x="266" y="214"/>
      <point x="266" y="192" type="curve" smooth="yes"/>
      <point x="266" y="169"/>
      <point x="246" y="151"/>
      <point x="222" y="151" type="curve" smooth="yes"/>
      <point x="197" y="151"/>
      <point x="178" y="169"/>
    </contour>
    <contour>
      <point x="436" y="307" type="line"/>
      <point x="351" y="386" type="line"/>
      <point x="283" y="323" type="line"/>
      <point x="368" y="244" type="line"/>
    </contour>
  </outline>
</glyph>
<glyph name="yen" format="1">
  <advance width="480"/>
  <unicode hex="00A5"/>
  <outline>
    <contour>
      <point x="251" y="3" type="line"/>
      <point x="481" y="416" type="line"/>
      <point x="324" y="416" type="line"/>
      <point x="242" y="261" type="line"/>
      <point x="156" y="416" type="line"/>
      <point x="0" y="416" type="line"/>
      <point x="232" y="3" type="line"/>
    </contour>
    <contour>
      <point x="320" y="0" type="line"/>
      <point x="320" y="189" type="line"/>
      <point x="163" y="189" type="line"/>
      <point x="163" y="0" type="line"/>
    </contour>
    <contour>
      <point x="435" y="95" type="line"/>
      <point x="435" y="139" type="line"/>
      <point x="45" y="139" type="line"/>
      <point x="45" y="95" type="line"/>
    </contour>
    <contour>
      <point x="435" y="164" type="line"/>
      <point x="435" y="207" type="line"/>
      <point x="45" y="207" type="line"/>
      <point x="45" y="164" type="line"/>
    </contour>
  </outline>
</glyph>
<glyph name="brokenbar" format="1">
  <advance width="214"/>
  <unicode hex="00A6"/>
  <outline>
    <contour>
      <point x="163" y="270" type="line"/>
      <point x="163" y="471" type="line"/>
      <point x="51" y="471" type="line"/>
      <point x="51" y="270" type="line"/>
    </contour>
    <contour>
      <point x="163" y="-60" type="line"/>
      <point x="163" y="140" type="line"/>
      <point x="51" y="140" type="line"/>
      <point x="51" y="-60" type="line"/>
    </contour>
  </outline>
</glyph>
<glyph name="section" format="1">
  <advance width="394"/>
  <unicode hex="00A7"/>
  <outline>
    <contour>
      <point x="348" y="50" type="curve" smooth="yes"/>
      <point x="348" y="77"/>
      <point x="339" y="86"/>
      <point x="321" y="101" type="curve"/>
      <point x="359" y="120"/>
      <point x="379" y="148"/>
      <point x="379" y="182" type="curve" smooth="yes"/>
      <point x="379" y="286"/>
      <point x="190" y="286"/>
      <point x="190" y="313" type="curve" smooth="yes"/>
      <point x="190" y="316"/>
      <point x="194" y="319"/>
      <point x="207" y="319" type="curve" smooth="yes"/>
      <point x="231" y="319"/>
      <point x="272" y="307"/>
      <point x="328" y="283" type="curve"/>
      <point x="373" y="370" type="line"/>
      <point x="317" y="398"/>
      <point x="259" y="412"/>
      <point x="205" y="412" type="curve" smooth="yes"/>
      <point x="109" y="412"/>
      <point x="51" y="367"/>
      <point x="51" y="306" type="curve" smooth="yes"/>
      <point x="51" y="287"/>
      <point x="54" y="272"/>
      <point x="76" y="255" type="curve"/>
      <point x="40" y="236"/>
      <point x="20" y="209"/>
      <point x="20" y="173" type="curve" smooth="yes"/>
      <point x="20" y="69"/>
      <point x="205" y="70"/>
      <point x="205" y="45" type="curve" smooth="yes"/>
      <point x="205" y="42"/>
      <point x="201" y="40"/>
      <point x="185" y="40" type="curve" smooth="yes"/>
      <point x="151" y="40"/>
      <point x="105" y="54"/>
      <point x="55" y="80" type="curve"/>
      <point x="14" y="-7" type="line"/>
      <point x="66" y="-38"/>
      <point x="129" y="-54"/>
      <point x="189" y="-54" type="curve" smooth="yes"/>
      <point x="288" y="-54"/>
      <point x="348" y="-11"/>
    </contour>
    <contour>
      <point x="158" y="182" type="curve" smooth="yes"/>
      <point x="158" y="188"/>
      <point x="166" y="192"/>
      <point x="185" y="192" type="curve" smooth="yes"/>
      <point x="211" y="192"/>
      <point x="236" y="185"/>
      <point x="236" y="176" type="curve" smooth="yes"/>
      <point x="236" y="171"/>
      <point x="227" y="167"/>
      <point x="205" y="167" type="curve" smooth="yes"/>
      <point x="179" y="167"/>
      <point x="158" y="173"/>
    </contour>
  </outline>
</glyph>
<glyph name="copyright" format="1">
  <advance width="470"/>
  <unicode hex="00A9"/>
  <outline>
    <contour>
      <point x="453" y="208" type="curve" smooth="yes"/>
      <point x="453" y="318"/>
      <point x="358" y="409"/>
      <point x="235" y="409" type="curve" smooth="yes"/>
      <point x="113" y="409"/>
      <point x="17" y="316"/>
      <point x="17" y="206" type="curve" smooth="yes"/>
      <point x="17" y="97"/>
      <point x="112" y="5"/>
      <point x="234" y="5" type="curve" smooth="yes"/>
      <point x="357" y="5"/>
      <point x="453" y="98"/>
    </contour>
    <contour>
      <point x="326" y="149" type="curve"/>
      <point x="285" y="189" type="line"/>
      <point x="272" y="176"/>
      <point x="255" y="168"/>
      <point x="241" y="168" type="curve" smooth="yes"/>
      <point x="219" y="168"/>
      <point x="203" y="184"/>
      <point x="203" y="208" type="curve" smooth="yes"/>
      <point x="203" y="231"/>
      <point x="219" y="248"/>
      <point x="241" y="248" type="curve" smooth="yes"/>
      <point x="256" y="248"/>
      <point x="274" y="238"/>
      <point x="285" y="222" type="curve"/>
      <point x="326" y="267" type="line"/>
      <point x="305" y="288"/>
      <point x="271" y="302"/>
      <point x="240" y="302" type="curve" smooth="yes"/>
      <point x="177" y="302"/>
      <point x="131" y="262"/>
      <point x="131" y="207" type="curve" smooth="yes"/>
      <point x="131" y="151"/>
      <point x="175" y="112"/>
      <point x="237" y="112" type="curve" smooth="yes"/>
      <point x="269" y="112"/>
      <point x="303" y="126"/>
    </contour>
    <contour>
      <point x="85" y="206" type="curve" smooth="yes"/>
      <point x="85" y="282"/>
      <point x="150" y="346"/>
      <point x="235" y="346" type="curve" smooth="yes"/>
      <point x="320" y="346"/>
      <point x="385" y="284"/>
      <point x="385" y="208" type="curve" smooth="yes"/>
      <point x="385" y="131"/>
      <point x="320" y="68"/>
      <point x="234" y="68" type="curve" smooth="yes"/>
      <point x="150" y="68"/>
      <point x="85" y="130"/>
    </contour>
  </outline>
</glyph>
<glyph name="ordfeminine" format="1">
  <advance width="258"/>
  <unicode hex="00AA"/>
  <outline>
    <contour>
      <point x="243" y="272" type="line"/>
      <point x="243" y="398" type="line" smooth="yes"/>
      <point x="243" y="446"/>
      <point x="203" y="472"/>
      <point x="135" y="472" type="curve" smooth="yes"/>
      <point x="102" y="472"/>
      <point x="61" y="466"/>
      <point x="21" y="455" type="curve"/>
      <point x="43" y="394" type="line"/>
      <point x="69" y="401"/>
      <point x="95" y="405"/>
      <point x="111" y="405" type="curve" smooth="yes"/>
      <point x="131" y="405"/>
      <point x="142" y="398"/>
      <point x="142" y="387" type="curve" smooth="yes"/>
      <point x="142" y="272" type="line"/>
    </contour>
    <contour>
      <point x="153" y="308" type="curve"/>
      <point x="142" y="335" type="line"/>
      <point x="135" y="329"/>
      <point x="126" y="325"/>
      <point x="117" y="325" type="curve" smooth="yes"/>
      <point x="107" y="325"/>
      <point x="102" y="330"/>
      <point x="102" y="338" type="curve" smooth="yes"/>
      <point x="102" y="346"/>
      <point x="107" y="350"/>
      <point x="115" y="350" type="curve" smooth="yes"/>
      <point x="150" y="350" type="line"/>
      <point x="150" y="391" type="line"/>
      <point x="94" y="391" type="line" smooth="yes"/>
      <point x="36" y="391"/>
      <point x="6" y="370"/>
      <point x="6" y="330" type="curve" smooth="yes"/>
      <point x="6" y="292"/>
      <point x="33" y="267"/>
      <point x="81" y="267" type="curve" smooth="yes"/>
      <point x="119" y="267"/>
      <point x="143" y="283"/>
    </contour>
  </outline>
</glyph>
<glyph name="logicalnot" format="1">
  <advance width="365"/>
  <unicode hex="00AC"/>
  <outline>
    <contour>
      <point x="351" y="182" type="line"/>
      <point x="351" y="269" type="line"/>
      <point x="19" y="269" type="line"/>
      <point x="19" y="182" type="line"/>
    </contour>
    <contour>
      <point x="351" y="75" type="line"/>
      <point x="351" y="269" type="line"/>
      <point x="243" y="269" type="line"/>
      <point x="243" y="75" type="line"/>
    </contour>
  </outline>
</glyph>
<glyph name="registered" format="1">
  <advance width="470"/>
  <unicode hex="00AE"/>
  <outline>
    <contour>
      <point x="453" y="208" type="curve" smooth="yes"/>
      <point x="453" y="318"/>
      <point x="358" y="409"/>
      <point x="235" y="409" type="curve" smooth="yes"/>
      <point x="113" y="409"/>
      <point x="17" y="316"/>
      <point x="17" y="206" type="curve" smooth="yes"/>
      <point x="17" y="97"/>
      <point x="112" y="5"/>
      <point x="234" y="5" type="curve" smooth="yes"/>
      <point x="357" y="5"/>
      <point x="453" y="98"/>
    </contour>
    <contour>
      <point x="333" y="127" type="line"/>
      <point x="289" y="193" type="line"/>
      <point x="225" y="193" type="line"/>
      <point x="257" y="127" type="line"/>
    </contour>
    <contour>
      <point x="85" y="206" type="curve" smooth="yes"/>
      <point x="85" y="282"/>
      <point x="150" y="346"/>
      <point x="235" y="346" type="curve" smooth="yes"/>
      <point x="320" y="346"/>
      <point x="385" y="284"/>
      <point x="385" y="208" type="curve" smooth="yes"/>
      <point x="385" y="131"/>
      <point x="320" y="68"/>
      <point x="234" y="68" type="curve" smooth="yes"/>
      <point x="150" y="68"/>
      <point x="85" y="130"/>
    </contour>
    <contour>
      <point x="219" y="127" type="line"/>
      <point x="219" y="171" type="line"/>
      <point x="243" y="171" type="line" smooth="yes"/>
      <point x="295" y="171"/>
      <point x="325" y="196"/>
      <point x="325" y="240" type="curve" smooth="yes"/>
      <point x="325" y="280"/>
      <point x="295" y="302"/>
      <point x="243" y="302" type="curve" smooth="yes"/>
      <point x="152" y="302" type="line"/>
      <point x="152" y="127" type="line"/>
    </contour>
    <contour>
      <point x="219" y="256" type="line"/>
      <point x="243" y="256" type="line" smooth="yes"/>
      <point x="255" y="256"/>
      <point x="261" y="249"/>
      <point x="261" y="237" type="curve" smooth="yes"/>
      <point x="261" y="225"/>
      <point x="255" y="218"/>
      <point x="243" y="218" type="curve" smooth="yes"/>
      <point x="219" y="218" type="line"/>
    </contour>
  </outline>
</glyph>
<glyph name="degree" format="1">
  <advance width="261"/>
  <unicode hex="00B0"/>
  <outline>
    <contour>
      <point x="212" y="417" type="curve" smooth="yes"/>
      <point x="212" y="458"/>
      <point x="177" y="490"/>
      <point x="134" y="490" type="curve" smooth="yes"/>
      <point x="90" y="490"/>
      <point x="56" y="458"/>
      <point x="56" y="417" type="curve" smooth="yes"/>
      <point x="56" y="377"/>
      <point x="90" y="345"/>
      <point x="134" y="345" type="curve" smooth="yes"/>
      <point x="177" y="345"/>
      <point x="212" y="377"/>
    </contour>
    <contour>
      <point x="111" y="417" type="curve" smooth="yes"/>
      <point x="111" y="429"/>
      <point x="121" y="438"/>
      <point x="134" y="438" type="curve" smooth="yes"/>
      <point x="146" y="438"/>
      <point x="156" y="429"/>
      <point x="156" y="417" type="curve" smooth="yes"/>
      <point x="156" y="406"/>
      <point x="146" y="397"/>
      <point x="134" y="397" type="curve" smooth="yes"/>
      <point x="121" y="397"/>
      <point x="111" y="406"/>
    </contour>
  </outline>
</glyph>
<glyph name="paragraph" format="1">
  <advance width="448"/>
  <unicode hex="00B6"/>
  <outline>
    <contour>
      <point x="260" y="-62" type="line"/>
      <point x="260" y="363" type="line"/>
      <point x="302" y="363" type="line"/>
      <point x="302" y="-62" type="line"/>
      <point x="414" y="-62" type="line"/>
      <point x="414" y="440" type="line"/>
      <point x="162" y="440" type="line"/>
      <point x="39" y="440"/>
      <point x="-7" y="372"/>
      <point x="-7" y="302" type="curve" smooth="yes"/>
      <point x="-7" y="250"/>
      <point x="22" y="169"/>
      <point x="134" y="169" type="curve" smooth="yes"/>
      <point x="138" y="169"/>
      <point x="143" y="169"/>
      <point x="147" y="169" type="curve"/>
      <point x="147" y="-62" type="line"/>
    </contour>
  </outline>
</glyph>
<glyph name="periodcentered" format="1">
  <advance width="158"/>
  <unicode hex="00B7"/>
  <outline>
    <contour>
      <point x="156" y="176" type="curve" smooth="yes"/>
      <point x="156" y="213"/>
      <point x="128" y="239"/>
      <point x="87" y="239" type="curve" smooth="yes"/>
      <point x="46" y="239"/>
      <point x="18" y="213"/>
      <point x="18" y="176" type="curve" smooth="yes"/>
      <point x="18" y="138"/>
      <point x="46" y="112"/>
      <point x="87" y="112" type="curve" smooth="yes"/>
      <point x="128" y="112"/>
      <point x="156" y="138"/>
    </contour>
    <contour>
      <point x="87" y="176" type="move" name="_dot"/>
    </contour>
  </outline>
</glyph>
<glyph name="ordmasculine" format="1">
  <advance width="270"/>
  <unicode hex="00BA"/>
  <outline>
    <contour>
      <point x="264" y="370" type="curve" smooth="yes"/>
      <point x="264" y="432"/>
      <point x="214" y="471"/>
      <point x="135" y="471" type="curve" smooth="yes"/>
      <point x="56" y="471"/>
      <point x="6" y="432"/>
      <point x="6" y="370" type="curve" smooth="yes"/>
      <point x="6" y="308"/>
      <point x="56" y="268"/>
      <point x="135" y="268" type="curve" smooth="yes"/>
      <point x="214" y="268"/>
      <point x="264" y="308"/>
    </contour>
    <contour>
      <point x="110" y="369" type="curve" smooth="yes"/>
      <point x="110" y="388"/>
      <point x="119" y="400"/>
      <point x="135" y="400" type="curve" smooth="yes"/>
      <point x="150" y="400"/>
      <point x="160" y="388"/>
      <point x="160" y="369" type="curve" smooth="yes"/>
      <point x="160" y="350"/>
      <point x="150" y="338"/>
      <point x="135" y="338" type="curve" smooth="yes"/>
      <point x="119" y="338"/>
      <point x="110" y="350"/>
    </contour>
  </outline>
</glyph>
<glyph name="AE" format="1">
  <advance width="722"/>
  <unicode hex="00C6"/>
  <outline>
    <contour>
      <point x="149" y="0" type="line"/>
      <point x="341" y="363" type="line"/>
      <point x="245" y="304" type="line"/>
      <point x="380" y="304" type="line"/>
      <point x="380" y="415" type="line"/>
      <point x="221" y="415" type="line"/>
      <point x="-13" y="0" type="line"/>
    </contour>
    <contour>
      <point x="380" y="58" type="line"/>
      <point x="380" y="164" type="line"/>
      <point x="143" y="164" type="line"/>
      <point x="144" y="58" type="line"/>
    </contour>
    <contour>
      <point x="703" y="0" type="line"/>
      <point x="703" y="111" type="line"/>
      <point x="482" y="111" type="line"/>
      <point x="482" y="157" type="line"/>
      <point x="669" y="157" type="line"/>
      <point x="669" y="264" type="line"/>
      <point x="482" y="264" type="line"/>
      <point x="482" y="304" type="line"/>
      <point x="695" y="304" type="line"/>
      <point x="695" y="415" type="line"/>
      <point x="325" y="415" type="line"/>
      <point x="325" y="0" type="line"/>
    </contour>
    <contour>
      <point x="403" y="415" type="move" name="top"/>
    </contour>
    <contour>
      <point x="403" y="0" type="move" name="bottom"/>
    </contour>
  </outline>
</glyph>
<glyph name="multiply" format="1">
  <advance width="336"/>
  <unicode hex="00D7"/>
  <outline>
    <contour>
      <point x="29" y="262" type="line"/>
      <point x="96" y="323" type="line"/>
      <point x="307" y="129" type="line"/>
      <point x="240" y="67" type="line"/>
    </contour>
    <contour>
      <point x="307" y="262" type="line"/>
      <point x="240" y="323" type="line"/>
      <point x="29" y="129" type="line"/>
      <point x="96" y="67" type="line"/>
    </contour>
  </outline>
</glyph>
<glyph name="Oslash" format="1">
  <advance width="546"/>
  <unicode hex="00D8"/>
  <outline>
    <component base="slashlongcomb.case" xOffset="16.011"/>
    <component base="O"/>
    <contour>
      <point x="273" y="415" type="move" name="top"/>
    </contour>
    <contour>
      <point x="273" y="0" type="move" name="bottom"/>
    </contour>
  </outline>
</glyph>
<glyph name="Thorn" format="1">
  <advance width="479"/>
  <unicode hex="00DE"/>
  <outline>
    <contour>
      <point x="254" y="61" type="line"/>
      <point x="381" y="61"/>
      <point x="461" y="122"/>
      <point x="461" y="219" type="curve" smooth="yes"/>
      <point x="461" y="315"/>
      <point x="381" y="377"/>
      <point x="254" y="377" type="curve" smooth="yes"/>
      <point x="161" y="377" type="line"/>
      <point x="161" y="263" type="line"/>
      <point x="244" y="263" type="line" smooth="yes"/>
      <point x="282" y="263"/>
      <point x="300" y="246"/>
      <point x="300" y="219" type="curve" smooth="yes"/>
      <point x="300" y="192"/>
      <point x="282" y="175"/>
      <point x="244" y="175" type="curve" smooth="yes"/>
      <point x="161" y="175" type="line"/>
      <point x="161" y="61" type="line"/>
    </contour>
    <contour>
      <point x="194" y="0" type="line"/>
      <point x="194" y="416" type="line"/>
      <point x="34" y="416" type="line"/>
      <point x="34" y="0" type="line"/>
    </contour>
  </outline>
</glyph>
<glyph name="germandbls" format="1">
  <advance width="457"/>
  <unicode hex="00DF"/>
  <outline>
    <contour>
      <point x="445" y="127" type="curve" smooth="yes"/>
      <point x="445" y="207"/>
      <point x="379" y="251"/>
      <point x="267" y="251" type="curve"/>
      <point x="234" y="191" type="line"/>
      <point x="319" y="191"/>
      <point x="404" y="238"/>
      <point x="404" y="315" type="curve" smooth="yes"/>
      <point x="404" y="388"/>
      <point x="340" y="446"/>
      <point x="224" y="446" type="curve" smooth="yes"/>
      <point x="119" y="446"/>
      <point x="30" y="389"/>
      <point x="30" y="279" type="curve" smooth="yes"/>
      <point x="30" y="0" type="line"/>
      <point x="183" y="0" type="line"/>
      <point x="183" y="298" type="line" smooth="yes"/>
      <point x="183" y="323"/>
      <point x="199" y="337"/>
      <point x="224" y="337" type="curve" smooth="yes"/>
      <point x="246" y="337"/>
      <point x="261" y="323"/>
      <point x="261" y="301" type="curve" smooth="yes"/>
      <point x="261" y="279"/>
      <point x="243" y="265"/>
      <point x="217" y="263" type="curve"/>
      <point x="217" y="157" type="line"/>
      <point x="250" y="157" type="line" smooth="yes"/>
      <point x="280" y="157"/>
      <point x="294" y="148"/>
      <point x="294" y="131" type="curve" smooth="yes"/>
      <point x="294" y="113"/>
      <point x="278" y="104"/>
      <point x="256" y="104" type="curve" smooth="yes"/>
      <point x="241" y="104"/>
      <point x="228" y="106"/>
      <point x="215" y="111" type="curve"/>
      <point x="200" y="3" type="line"/>
      <point x="217" y="-3"/>
      <point x="252" y="-6"/>
      <point x="279" y="-6" type="curve" smooth="yes"/>
      <point x="380" y="-6"/>
      <point x="445" y="43"/>
    </contour>
  </outline>
</glyph>
<glyph name="eth" format="1">
  <advance width="429"/>
  <unicode hex="00F0"/>
  <outline>
    <contour>
      <point x="416" y="200" type="curve" smooth="yes"/>
      <point x="416" y="366"/>
      <point x="314" y="451"/>
      <point x="144" y="451" type="curve" smooth="yes"/>
      <point x="108" y="451"/>
      <point x="78" y="448"/>
      <point x="44" y="442" type="curve"/>
      <point x="58" y="340" type="line"/>
      <point x="84" y="347"/>
      <point x="112" y="350"/>
      <point x="135" y="350" type="curve" smooth="yes"/>
      <point x="220" y="350"/>
      <point x="258" y="311"/>
      <point x="258" y="231" type="curve" smooth="yes"/>
      <point x="258" y="207"/>
      <point x="259" y="197"/>
      <point x="259" y="186" type="curve"/>
      <point x="296" y="210" type="line"/>
      <point x="269" y="248"/>
      <point x="232" y="269"/>
      <point x="168" y="269" type="curve" smooth="yes"/>
      <point x="84" y="269"/>
      <point x="12" y="217"/>
      <point x="12" y="136" type="curve" smooth="yes"/>
      <point x="12" y="48"/>
      <point x="93" y="-10"/>
      <point x="196" y="-10" type="curve" smooth="yes"/>
      <point x="328" y="-10"/>
      <point x="416" y="67"/>
    </contour>
    <contour>
      <point x="164" y="129" type="curve" smooth="yes"/>
      <point x="164" y="153"/>
      <point x="184" y="168"/>
      <point x="208" y="168" type="curve" smooth="yes"/>
      <point x="232" y="168"/>
      <point x="252" y="153"/>
      <point x="252" y="129" type="curve" smooth="yes"/>
      <point x="252" y="105"/>
      <point x="232" y="92"/>
      <point x="208" y="92" type="curve" smooth="yes"/>
      <point x="184" y="92"/>
      <point x="164" y="106"/>
    </contour>
    <contour>
      <point x="406" y="370" type="line"/>
      <point x="383" y="426" type="line"/>
      <point x="65" y="321" type="line"/>
      <point x="88" y="264" type="line"/>
    </contour>
  </outline>
</glyph>
<glyph name="divide" format="1">
  <advance width="336"/>
  <unicode hex="00F7"/>
  <outline>
    <contour>
      <point x="317" y="152" type="line"/>
      <point x="317" y="239" type="line"/>
      <point x="19" y="239" type="line"/>
      <point x="19" y="152" type="line"/>
    </contour>
    <component base="dotaccentcomb" xOffset="93.865" yOffset="-27.786" xScale="0.788" yScale="0.788"/>
    <component base="dotaccentcomb" xOffset="93.865" yOffset="-241.628" xScale="0.788" yScale="0.788"/>
  </outline>
</glyph>
<glyph name="oslash" format="1">
  <advance width="430"/>
  <unicode hex="00F8"/>
  <outline>
    <component base="slashlongcomb" xOffset="1.968"/>
    <component base="o"/>
    <contour>
      <point x="215" y="325" type="move" name="top"/>
    </contour>
  </outline>
</glyph>
<glyph name="thorn" format="1">
  <advance width="447"/>
  <unicode hex="00FE"/>
  <outline>
    <contour>
      <point x="435" y="162" type="curve" smooth="yes"/>
      <point x="435" y="268"/>
      <point x="358" y="332"/>
      <point x="267" y="332" type="curve" smooth="yes"/>
      <point x="171" y="332"/>
      <point x="137" y="281"/>
      <point x="137" y="162" type="curve" smooth="yes"/>
      <point x="137" y="46"/>
      <point x="176" y="-6"/>
      <point x="267" y="-6" type="curve" smooth="yes"/>
      <point x="358" y="-6"/>
      <point x="435" y="57"/>
    </contour>
    <contour>
      <point x="183" y="-115" type="line"/>
      <point x="183" y="39" type="line"/>
      <point x="176" y="162" type="line"/>
      <point x="175" y="286" type="line"/>
      <point x="175" y="440" type="line"/>
      <point x="30" y="440" type="line"/>
      <point x="30" y="-115" type="line"/>
    </contour>
    <contour>
      <point x="180" y="162" type="curve" smooth="yes"/>
      <point x="180" y="202"/>
      <point x="203" y="222"/>
      <point x="232" y="222" type="curve" smooth="yes"/>
      <point x="261" y="222"/>
      <point x="284" y="202"/>
      <point x="284" y="162" type="curve" smooth="yes"/>
      <point x="284" y="123"/>
      <point x="261" y="104"/>
      <point x="232" y="104" type="curve" smooth="yes"/>
      <point x="203" y="104"/>
      <point x="180" y="123"/>
    </contour>
    <contour>
      <point x="267" y="325" type="move" name="top"/>
    </contour>
    <contour>
      <point x="267" y="0" type="move" name="bottom"/>
    </contour>
  </outline>
</glyph>
<glyph name="Dcroat" format="1">
  <advance width="545"/>
  <unicode hex="0110"/>
  <outline>
    <component base="Eth"/>
    <contour>
      <point x="225" y="416" type="move" name="top"/>
    </contour>
    <contour>
      <point x="116" y="208" type="move" name="center"/>
    </contour>
    <contour>
      <point x="232" y="0" type="move" name="bottom"/>
    </contour>
  </outline>
</glyph>
<glyph name="IJ" format="1">
  <advance width="469"/>
  <unicode hex="0132"/>
  <outline>
    <contour>
      <point x="439" y="198" type="curve" smooth="yes"/>
      <point x="439" y="415" type="line"/>
      <point x="279" y="415" type="line"/>
      <point x="279" y="189" type="line" smooth="yes"/>
      <point x="279" y="135"/>
      <point x="257" y="111"/>
      <point x="203" y="111" type="curve" smooth="yes"/>
      <point x="166" y="111"/>
      <point x="118" y="124"/>
      <point x="75" y="149" type="curve"/>
      <point x="16" y="45" type="line"/>
      <point x="64" y="14"/>
      <point x="132" y="-6"/>
      <point x="211" y="-6" type="curve" smooth="yes"/>
      <point x="348" y="-6"/>
      <point x="439" y="66"/>
    </contour>
    <contour>
      <point x="190" y="201" type="line"/>
      <point x="190" y="415" type="line"/>
      <point x="30" y="415" type="line"/>
      <point x="30" y="201" type="line"/>
    </contour>
    <contour>
      <point x="109" y="415" type="move" name="top"/>
    </contour>
  </outline>
</glyph>
<glyph name="Eng" format="1">
  <advance width="517"/>
  <unicode hex="014A"/>
  <outline>
    <contour>
      <point x="190" y="0" type="line"/>
      <point x="190" y="244" type="line"/>
      <point x="129" y="244" type="line"/>
      <point x="351" y="0" type="line"/>
      <point x="388" y="172" type="line"/>
      <point x="165" y="415" type="line"/>
      <point x="34" y="415" type="line"/>
      <point x="34" y="0" type="line"/>
    </contour>
    <contour>
      <point x="483" y="64" type="curve" smooth="yes"/>
      <point x="483" y="415" type="line"/>
      <point x="327" y="415" type="line"/>
      <point x="327" y="42" type="line" smooth="yes"/>
      <point x="327" y="11"/>
      <point x="310" y="-6"/>
      <point x="281" y="-6" type="curve" smooth="yes"/>
      <point x="267" y="-6"/>
      <point x="254" y="-2"/>
      <point x="240" y="6" type="curve"/>
      <point x="167" y="-93" type="line"/>
      <point x="202" y="-113"/>
      <point x="245" y="-121"/>
      <point x="294" y="-121" type="curve" smooth="yes"/>
      <point x="418" y="-121"/>
      <point x="483" y="-64"/>
    </contour>
  </outline>
</glyph>
<glyph name="eng" format="1">
  <advance width="453"/>
  <unicode hex="014B"/>
  <outline>
    <contour>
      <point x="424" y="20" type="curve" smooth="yes"/>
      <point x="424" y="185" type="line" smooth="yes"/>
      <point x="424" y="288"/>
      <point x="360" y="332"/>
      <point x="279" y="332" type="curve" smooth="yes"/>
      <point x="204" y="332"/>
      <point x="141" y="289"/>
      <point x="127" y="200" type="curve"/>
      <point x="183" y="152" type="line"/>
      <point x="183" y="198"/>
      <point x="206" y="213"/>
      <point x="232" y="213" type="curve" smooth="yes"/>
      <point x="256" y="213"/>
      <point x="271" y="199"/>
      <point x="271" y="161" type="curve" smooth="yes"/>
      <point x="271" y="21" type="line" smooth="yes"/>
      <point x="271" y="-4"/>
      <point x="259" y="-14"/>
      <point x="243" y="-14" type="curve" smooth="yes"/>
      <point x="232" y="-14"/>
      <point x="221" y="-12"/>
      <point x="212" y="-7" type="curve"/>
      <point x="175" y="-106" type="line"/>
      <point x="198" y="-116"/>
      <point x="231" y="-121"/>
      <point x="266" y="-121" type="curve" smooth="yes"/>
      <point x="366" y="-121"/>
      <point x="424" y="-66"/>
    </contour>
    <contour>
      <point x="183" y="0" type="line"/>
      <point x="183" y="230" type="line"/>
      <point x="175" y="258" type="line"/>
      <point x="175" y="325" type="line"/>
      <point x="30" y="325" type="line"/>
      <point x="30" y="0" type="line"/>
    </contour>
  </outline>
</glyph>
<glyph name="OE" format="1">
  <advance width="738"/>
  <unicode hex="0152"/>
  <outline>
    <contour>
      <point x="382" y="0" type="line"/>
      <point x="382" y="115" type="line"/>
      <point x="279" y="115" type="line" smooth="yes"/>
      <point x="220" y="115"/>
      <point x="179" y="147"/>
      <point x="179" y="208" type="curve" smooth="yes"/>
      <point x="179" y="268"/>
      <point x="220" y="300"/>
      <point x="279" y="300" type="curve" smooth="yes"/>
      <point x="382" y="300" type="line"/>
      <point x="382" y="415" type="line"/>
      <point x="272" y="415" type="line" smooth="yes"/>
      <point x="121" y="415"/>
      <point x="17" y="337"/>
      <point x="17" y="208" type="curve" smooth="yes"/>
      <point x="17" y="78"/>
      <point x="121" y="0"/>
      <point x="272" y="0" type="curve" smooth="yes"/>
    </contour>
    <contour>
      <point x="720" y="0" type="line"/>
      <point x="720" y="111" type="line"/>
      <point x="498" y="111" type="line"/>
      <point x="498" y="157" type="line"/>
      <point x="685" y="157" type="line"/>
      <point x="685" y="264" type="line"/>
      <point x="498" y="264" type="line"/>
      <point x="498" y="304" type="line"/>
      <point x="711" y="304" type="line"/>
      <point x="711" y="415" type="line"/>
      <point x="341" y="415" type="line"/>
      <point x="341" y="0" type="line"/>
    </contour>
    <contour>
      <point x="420" y="415" type="move" name="top"/>
    </contour>
    <contour>
      <point x="420" y="0" type="move" name="bottom"/>
    </contour>
  </outline>
</glyph>
<glyph name="oe" format="1">
  <advance width="678"/>
  <unicode hex="0153"/>
  <outline>
    <contour>
      <point x="400" y="163" type="curve" smooth="yes"/>
      <point x="400" y="262"/>
      <point x="330" y="332"/>
      <point x="212" y="332" type="curve" smooth="yes"/>
      <point x="97" y="332"/>
      <point x="12" y="262"/>
      <point x="12" y="163" type="curve" smooth="yes"/>
      <point x="12" y="64"/>
      <point x="97" y="-6"/>
      <point x="212" y="-6" type="curve" smooth="yes"/>
      <point x="330" y="-6"/>
      <point x="400" y="64"/>
    </contour>
    <contour>
      <point x="163" y="163" type="curve" smooth="yes"/>
      <point x="163" y="203"/>
      <point x="186" y="222"/>
      <point x="215" y="222" type="curve" smooth="yes"/>
      <point x="244" y="222"/>
      <point x="267" y="203"/>
      <point x="267" y="163" type="curve" smooth="yes"/>
      <point x="267" y="124"/>
      <point x="244" y="104"/>
      <point x="215" y="104" type="curve" smooth="yes"/>
      <point x="186" y="104"/>
      <point x="163" y="124"/>
    </contour>
    <contour>
      <point x="639" y="46" type="curve"/>
      <point x="560" y="120" type="line"/>
      <point x="537" y="105"/>
      <point x="520" y="98"/>
      <point x="489" y="98" type="curve" smooth="yes"/>
      <point x="444" y="98"/>
      <point x="418" y="119"/>
      <point x="418" y="159" type="curve" smooth="yes"/>
      <point x="418" y="180" type="line" smooth="yes"/>
      <point x="418" y="215"/>
      <point x="439" y="235"/>
      <point x="471" y="235" type="curve" smooth="yes"/>
      <point x="504" y="235"/>
      <point x="525" y="215"/>
      <point x="525" y="180" type="curve"/>
      <point x="553" y="196" type="line"/>
      <point x="408" y="196" type="line"/>
      <point x="408" y="128" type="line"/>
      <point x="663" y="128" type="line"/>
      <point x="664" y="138"/>
      <point x="666" y="152"/>
      <point x="666" y="163" type="curve" smooth="yes"/>
      <point x="666" y="274"/>
      <point x="574" y="332"/>
      <point x="473" y="332" type="curve" smooth="yes"/>
      <point x="358" y="332"/>
      <point x="281" y="262"/>
      <point x="281" y="163" type="curve" smooth="yes"/>
      <point x="281" y="66"/>
      <point x="359" y="-6"/>
      <point x="484" y="-6" type="curve" smooth="yes"/>
      <point x="553" y="-6"/>
      <point x="604" y="12"/>
    </contour>
    <contour>
      <point x="343" y="325" type="move" name="top"/>
    </contour>
    <contour>
      <point x="343" y="0" type="move" name="bottom"/>
    </contour>
  </outline>
</glyph>
<glyph name="Uogonek" format="1">
  <advance width="504"/>
  <unicode hex="0172"/>
  <outline>
    <contour>
      <point x="317" y="192" type="line"/>
      <point x="317" y="131"/>
      <point x="292" y="110"/>
      <point x="253" y="110" type="curve" smooth="yes"/>
      <point x="214" y="110"/>
      <point x="190" y="131"/>
      <point x="190" y="192" type="curve" smooth="yes"/>
      <point x="190" y="415" type="line"/>
      <point x="30" y="415" type="line"/>
      <point x="30" y="188" type="line" smooth="yes"/>
      <point x="30" y="63"/>
      <point x="112" y="-10"/>
      <point x="252" y="-10" type="curve" smooth="yes"/>
      <point x="263" y="-10"/>
      <point x="273" y="-9"/>
      <point x="284" y="-9" type="curve"/>
      <point x="280" y="30" type="line"/>
      <point x="213" y="11"/>
      <point x="172" y="-24"/>
      <point x="172" y="-69" type="curve" smooth="yes"/>
      <point x="172" y="-114"/>
      <point x="210" y="-143"/>
      <point x="276" y="-143" type="curve" smooth="yes"/>
      <point x="304" y="-143"/>
      <point x="335" y="-137"/>
      <point x="350" y="-130" type="curve"/>
      <point x="332" y="-72" type="line"/>
      <point x="323" y="-76"/>
      <point x="309" y="-80"/>
      <point x="294" y="-80" type="curve" smooth="yes"/>
      <point x="271" y="-80"/>
      <point x="261" y="-69"/>
      <point x="261" y="-56" type="curve" smooth="yes"/>
      <point x="261" y="-38"/>
      <point x="281" y="-21"/>
      <point x="349" y="4" type="curve" smooth="yes"/>
      <point x="423" y="31"/>
      <point x="474" y="89"/>
      <point x="474" y="188" type="curve" smooth="yes"/>
      <point x="474" y="415" type="line"/>
      <point x="317" y="415" type="line"/>
    </contour>
  </outline>
</glyph>
<glyph name="florin" format="1">
  <advance width="291"/>
  <unicode hex="0192"/>
  <outline>
    <contour>
      <point x="179" y="-10" type="curve" smooth="yes"/>
      <point x="221" y="313" type="line" smooth="yes"/>
      <point x="224" y="328"/>
      <point x="237" y="338"/>
      <point x="256" y="337" type="curve" smooth="yes"/>
      <point x="266" y="337"/>
      <point x="279" y="333"/>
      <point x="289" y="326" type="curve"/>
      <point x="339" y="423" type="line"/>
      <point x="313" y="437"/>
      <point x="270" y="446"/>
      <point x="230" y="446" type="curve" smooth="yes"/>
      <point x="144" y="447"/>
      <point x="82" y="403"/>
      <point x="73" y="334" type="curve" smooth="yes"/>
      <point x="30" y="12" type="line" smooth="yes"/>
      <point x="27" y="-4"/>
      <point x="16" y="-13"/>
      <point x="1" y="-13" type="curve" smooth="yes"/>
      <point x="-9" y="-13"/>
      <point x="-22" y="-9"/>
      <point x="-32" y="-2" type="curve"/>
      <point x="-68" y="-98" type="line"/>
      <point x="-48" y="-112"/>
      <point x="-12" y="-121"/>
      <point x="20" y="-121" type="curve" smooth="yes"/>
      <point x="107" y="-122"/>
      <point x="170" y="-78"/>
    </contour>
    <contour>
      <point x="271" y="188" type="line"/>
      <point x="282" y="277" type="line"/>
      <point x="16" y="277" type="line"/>
      <point x="5" y="188" type="line"/>
    </contour>
  </outline>
</glyph>
<glyph name="Ohorn" format="1">
  <advance width="546"/>
  <unicode hex="01A0"/>
  <outline>
    <contour>
      <point x="528" y="208" type="curve" smooth="yes"/>
      <point x="528" y="276"/>
      <point x="496" y="332"/>
      <point x="445" y="369" type="curve"/>
      <point x="268" y="341" type="line"/>
      <point x="305" y="337"/>
      <point x="341" y="331"/>
      <point x="385" y="331" type="curve" smooth="yes"/>
      <point x="478" y="331"/>
      <point x="537" y="373"/>
      <point x="537" y="445" type="curve" smooth="yes"/>
      <point x="537" y="473"/>
      <point x="527" y="495"/>
      <point x="512" y="512" type="curve"/>
      <point x="412" y="484" type="line"/>
      <point x="420" y="476"/>
      <point x="425" y="464"/>
      <point x="425" y="451" type="curve" smooth="yes"/>
      <point x="425" y="430"/>
      <point x="408" y="417"/>
      <point x="383" y="417" type="curve" smooth="yes"/>
      <point x="358" y="417"/>
      <point x="325" y="425"/>
      <point x="280" y="425" type="curve" smooth="yes"/>
      <point x="125" y="425"/>
      <point x="17" y="334"/>
      <point x="17" y="208" type="curve" smooth="yes"/>
      <point x="17" y="81"/>
      <point x="125" y="-10"/>
      <point x="273" y="-10" type="curve" smooth="yes"/>
      <point x="420" y="-10"/>
      <point x="528" y="81"/>
    </contour>
    <contour>
      <point x="179" y="208" type="curve" smooth="yes"/>
      <point x="179" y="269"/>
      <point x="221" y="306"/>
      <point x="273" y="306" type="curve" smooth="yes"/>
      <point x="325" y="306"/>
      <point x="367" y="269"/>
      <point x="367" y="208" type="curve" smooth="yes"/>
      <point x="367" y="146"/>
      <point x="325" y="110"/>
      <point x="273" y="110" type="curve" smooth="yes"/>
      <point x="221" y="110"/>
      <point x="179" y="146"/>
    </contour>
    <contour>
      <point x="273" y="415" type="move" name="top"/>
    </contour>
    <contour>
      <point x="273" y="0" type="move" name="bottom"/>
    </contour>
  </outline>
</glyph>
<glyph name="ohorn" format="1">
  <advance width="430"/>
  <unicode hex="01A1"/>
  <outline>
    <contour>
      <point x="418" y="163" type="curve" smooth="yes"/>
      <point x="418" y="234"/>
      <point x="376" y="289"/>
      <point x="308" y="315" type="curve"/>
      <point x="205" y="246" type="line"/>
      <point x="226" y="242"/>
      <point x="253" y="239"/>
      <point x="280" y="239" type="curve" smooth="yes"/>
      <point x="367" y="239"/>
      <point x="427" y="282"/>
      <point x="427" y="356" type="curve" smooth="yes"/>
      <point x="427" y="383"/>
      <point x="417" y="405"/>
      <point x="402" y="423" type="curve"/>
      <point x="302" y="395" type="line"/>
      <point x="309" y="387"/>
      <point x="316" y="374"/>
      <point x="316" y="361" type="curve" smooth="yes"/>
      <point x="316" y="339"/>
      <point x="305" y="326"/>
      <point x="285" y="326" type="curve" smooth="yes"/>
      <point x="268" y="326"/>
      <point x="249" y="332"/>
      <point x="217" y="332" type="curve" smooth="yes"/>
      <point x="97" y="332"/>
      <point x="12" y="262"/>
      <point x="12" y="163" type="curve" smooth="yes"/>
      <point x="12" y="64"/>
      <point x="97" y="-6"/>
      <point x="215" y="-6" type="curve" smooth="yes"/>
      <point x="334" y="-6"/>
      <point x="418" y="64"/>
    </contour>
    <contour>
      <point x="163" y="163" type="curve" smooth="yes"/>
      <point x="163" y="203"/>
      <point x="186" y="222"/>
      <point x="215" y="222" type="curve" smooth="yes"/>
      <point x="244" y="222"/>
      <point x="267" y="203"/>
      <point x="267" y="163" type="curve" smooth="yes"/>
      <point x="267" y="124"/>
      <point x="244" y="104"/>
      <point x="215" y="104" type="curve" smooth="yes"/>
      <point x="186" y="104"/>
      <point x="163" y="124"/>
    </contour>
    <contour>
      <point x="215" y="325" type="move" name="top"/>
    </contour>
    <contour>
      <point x="215" y="0" type="move" name="bottom"/>
    </contour>
  </outline>
</glyph>
<glyph name="gravecomb" format="1">
  <advance width="386"/>
  <unicode hex="0300"/>
  <outline>
    <contour>
      <point x="263" y="360" type="line"/>
      <point x="178" y="457" type="line"/>
      <point x="33" y="457" type="line"/>
      <point x="162" y="360" type="line"/>
    </contour>
    <contour>
      <point x="193" y="454" type="move" name="top"/>
    </contour>
    <contour>
      <point x="193" y="325" type="move" name="_top"/>
    </contour>
  </outline>
</glyph>
<glyph name="acutecomb" format="1">
  <advance width="386"/>
  <unicode hex="0301"/>
  <outline>
    <contour>
      <point x="224" y="360" type="line"/>
      <point x="353" y="457" type="line"/>
      <point x="208" y="457" type="line"/>
      <point x="123" y="360" type="line"/>
    </contour>
    <contour>
      <point x="193" y="454" type="move" name="top"/>
    </contour>
    <contour>
      <point x="193" y="325" type="move" name="_top"/>
    </contour>
  </outline>
</glyph>
<glyph name="tildecomb" format="1">
  <advance width="386"/>
  <unicode hex="0303"/>
  <outline>
    <contour>
      <point x="337" y="457" type="curve"/>
      <point x="265" y="457" type="line"/>
      <point x="263" y="441"/>
      <point x="253" y="431"/>
      <point x="236" y="431" type="curve" smooth="yes"/>
      <point x="213" y="431"/>
      <point x="188" y="465"/>
      <point x="140" y="465" type="curve" smooth="yes"/>
      <point x="84" y="465"/>
      <point x="50" y="424"/>
      <point x="49" y="359" type="curve"/>
      <point x="121" y="359" type="line"/>
      <point x="122" y="377"/>
      <point x="133" y="388"/>
      <point x="150" y="388" type="curve" smooth="yes"/>
      <point x="172" y="388"/>
      <point x="197" y="353"/>
      <point x="246" y="353" type="curve" smooth="yes"/>
      <point x="302" y="353"/>
      <point x="336" y="395"/>
    </contour>
    <contour>
      <point x="193" y="448" type="move" name="top"/>
    </contour>
    <contour>
      <point x="193" y="325" type="move" name="_top"/>
    </contour>
  </outline>
</glyph>
<glyph name="hookabovecomb" format="1">
  <advance width="386"/>
  <unicode hex="0309"/>
  <outline>
    <contour>
      <point x="290" y="437" type="curve" smooth="yes"/>
      <point x="290" y="482"/>
      <point x="252" y="512"/>
      <point x="196" y="512" type="curve" smooth="yes"/>
      <point x="165" y="512"/>
      <point x="134" y="504"/>
      <point x="111" y="488" type="curve"/>
      <point x="142" y="435" type="line"/>
      <point x="155" y="444"/>
      <point x="167" y="447"/>
      <point x="179" y="447" type="curve" smooth="yes"/>
      <point x="194" y="447"/>
      <point x="205" y="439"/>
      <point x="205" y="425" type="curve" smooth="yes"/>
      <point x="205" y="415"/>
      <point x="200" y="405"/>
      <point x="176" y="394" type="curve"/>
      <point x="222" y="354" type="line"/>
      <point x="265" y="372"/>
      <point x="290" y="398"/>
    </contour>
    <contour>
      <point x="193" y="496" type="move" name="top"/>
    </contour>
    <contour>
      <point x="193" y="325" type="move" name="_top"/>
    </contour>
  </outline>
</glyph>
<glyph name="dotbelowcomb" format="1">
  <advance width="386"/>
  <unicode hex="0323"/>
  <outline>
    <contour>
      <point x="253" y="-82" type="curve" smooth="yes"/>
      <point x="253" y="-49"/>
      <point x="227" y="-27"/>
      <point x="193" y="-27" type="curve" smooth="yes"/>
      <point x="159" y="-27"/>
      <point x="133" y="-49"/>
      <point x="133" y="-82" type="curve" smooth="yes"/>
      <point x="133" y="-115"/>
      <point x="159" y="-136"/>
      <point x="193" y="-136" type="curve" smooth="yes"/>
      <point x="227" y="-136"/>
      <point x="253" y="-115"/>
    </contour>
    <contour>
      <point x="193" y="0" type="move" name="_bottom"/>
    </contour>
    <contour>
      <point x="193" y="-116" type="move" name="bottom"/>
    </contour>
  </outline>
</glyph>
<glyph name="Delta" format="1">
  <advance width="518"/>
  <unicode hex="0394"/>
  <outline>
    <contour>
      <point x="154" y="0" type="line"/>
      <point x="258" y="271" type="line"/>
      <point x="358" y="0" type="line"/>
      <point x="525" y="0" type="line"/>
      <point x="344" y="416" type="line"/>
      <point x="182" y="416" type="line"/>
      <point x="-7" y="0" type="line"/>
    </contour>
    <contour>
      <point x="378" y="0" type="line"/>
      <point x="378" y="104" type="line"/>
      <point x="129" y="104" type="line"/>
      <point x="129" y="0" type="line"/>
    </contour>
  </outline>
</glyph>
<glyph name="Omega" format="1">
  <advance width="531"/>
  <unicode hex="03A9"/>
  <outline>
    <contour>
      <point x="243" y="0" type="line"/>
      <point x="243" y="129" type="line"/>
      <point x="199" y="148"/>
      <point x="172" y="185"/>
      <point x="172" y="224" type="curve" smooth="yes"/>
      <point x="172" y="272"/>
      <point x="210" y="305"/>
      <point x="265" y="305" type="curve" smooth="yes"/>
      <point x="320" y="305"/>
      <point x="359" y="272"/>
      <point x="359" y="224" type="curve" smooth="yes"/>
      <point x="359" y="185"/>
      <point x="333" y="149"/>
      <point x="288" y="129" type="curve"/>
      <point x="288" y="0" type="line"/>
      <point x="529" y="0" type="line"/>
      <point x="529" y="113" type="line"/>
      <point x="427" y="113" type="line"/>
      <point x="474" y="148"/>
      <point x="498" y="193"/>
      <point x="498" y="241" type="curve" smooth="yes"/>
      <point x="498" y="342"/>
      <point x="396" y="422"/>
      <point x="265" y="422" type="curve" smooth="yes"/>
      <point x="136" y="422"/>
      <point x="33" y="342"/>
      <point x="33" y="241" type="curve" smooth="yes"/>
      <point x="33" y="193"/>
      <point x="58" y="148"/>
      <point x="105" y="113" type="curve"/>
      <point x="3" y="113" type="line"/>
      <point x="3" y="0" type="line"/>
    </contour>
    <contour>
      <point x="13" y="416" type="move" name="topleft"/>
    </contour>
  </outline>
</glyph>
<glyph name="mu" format="1">
  <advance width="456"/>
  <unicode hex="03BC"/>
  <outline>
    <contour>
      <point x="182" y="-115" type="line"/>
      <point x="182" y="325" type="line"/>
      <point x="30" y="325" type="line"/>
      <point x="30" y="-115" type="line"/>
    </contour>
    <component base="u" xOffset="5.967"/>
  </outline>
</glyph>
<glyph name="pi" format="1">
  <advance width="472"/>
  <unicode hex="03C0"/>
  <outline>
    <contour>
      <point x="114" y="171" type="line"/>
      <point x="108" y="183"/>
      <point x="103" y="199"/>
      <point x="103" y="207" type="curve"/>
      <point x="102" y="219"/>
      <point x="112" y="228"/>
      <point x="126" y="228" type="curve"/>
      <point x="463" y="228" type="line"/>
      <point x="463" y="325" type="line"/>
      <point x="106" y="325" type="line"/>
      <point x="35" y="325"/>
      <point x="-16" y="286"/>
      <point x="-15" y="231" type="curve"/>
      <point x="-15" y="203"/>
      <point x="-5" y="167"/>
      <point x="9" y="139" type="curve"/>
    </contour>
    <contour>
      <point x="232" y="0" type="line"/>
      <point x="258" y="237" type="line"/>
      <point x="133" y="237" type="line"/>
      <point x="107" y="0" type="line"/>
    </contour>
    <contour>
      <point x="398" y="0" type="line"/>
      <point x="398" y="237" type="line"/>
      <point x="273" y="237" type="line"/>
      <point x="273" y="0" type="line"/>
    </contour>
  </outline>
</glyph>
<glyph name="figuredash" format="1">
  <advance width="397"/>
  <unicode hex="2012"/>
  <outline>
    <contour>
      <point x="397" y="140" type="line"/>
      <point x="397" y="227" type="line"/>
      <point x="0" y="227" type="line"/>
      <point x="0" y="140" type="line"/>
    </contour>
  </outline>
</glyph>
<glyph name="endash" format="1">
  <advance width="264"/>
  <unicode hex="2013"/>
  <outline>
    <contour>
      <point x="264" y="140" type="line"/>
      <point x="264" y="227" type="line"/>
      <point x="0" y="227" type="line"/>
      <point x="0" y="140" type="line"/>
    </contour>
  </outline>
</glyph>
<glyph name="emdash" format="1">
  <advance width="386"/>
  <unicode hex="2014"/>
  <outline>
    <contour>
      <point x="386" y="140" type="line"/>
      <point x="386" y="227" type="line"/>
      <point x="0" y="227" type="line"/>
      <point x="0" y="140" type="line"/>
    </contour>
  </outline>
</glyph>
<glyph name="dagger" format="1">
  <advance width="396"/>
  <unicode hex="2020"/>
  <outline>
    <contour>
      <point x="272" y="-109" type="line"/>
      <point x="272" y="190" type="line"/>
      <point x="383" y="190" type="line"/>
      <point x="383" y="300" type="line"/>
      <point x="272" y="300" type="line"/>
      <point x="272" y="415" type="line"/>
      <point x="119" y="415" type="line"/>
      <point x="119" y="300" type="line"/>
      <point x="13" y="300" type="line"/>
      <point x="13" y="190" type="line"/>
      <point x="119" y="190" type="line"/>
      <point x="119" y="-109" type="line"/>
    </contour>
  </outline>
</glyph>
<glyph name="daggerdbl" format="1">
  <advance width="396"/>
  <unicode hex="2021"/>
  <outline>
    <contour>
      <point x="272" y="-109" type="line"/>
      <point x="272" y="190" type="line"/>
      <point x="383" y="190" type="line"/>
      <point x="383" y="300" type="line"/>
      <point x="272" y="300" type="line"/>
      <point x="272" y="415" type="line"/>
      <point x="119" y="415" type="line"/>
      <point x="119" y="300" type="line"/>
      <point x="13" y="300" type="line"/>
      <point x="13" y="190" type="line"/>
      <point x="119" y="190" type="line"/>
      <point x="119" y="-109" type="line"/>
    </contour>
    <contour>
      <point x="383" y="8" type="line"/>
      <point x="383" y="118" type="line"/>
      <point x="13" y="118" type="line"/>
      <point x="13" y="8" type="line"/>
    </contour>
  </outline>
</glyph>
<glyph name="bullet" format="1">
  <advance width="243"/>
  <unicode hex="2022"/>
  <outline>
    <contour>
      <point x="225" y="169" type="curve" smooth="yes"/>
      <point x="225" y="225"/>
      <point x="183" y="264"/>
      <point x="121" y="264" type="curve" smooth="yes"/>
      <point x="60" y="264"/>
      <point x="18" y="225"/>
      <point x="18" y="169" type="curve" smooth="yes"/>
      <point x="18" y="112"/>
      <point x="60" y="73"/>
      <point x="121" y="73" type="curve" smooth="yes"/>
      <point x="183" y="73"/>
      <point x="225" y="112"/>
    </contour>
  </outline>
</glyph>
<glyph name="minute" format="1">
  <advance width="168"/>
  <unicode hex="2032"/>
  <outline>
    <contour>
      <point x="110" y="270" type="line"/>
      <point x="141" y="416" type="line"/>
      <point x="37" y="416" type="line"/>
      <point x="26" y="270" type="line"/>
    </contour>
  </outline>
</glyph>
<glyph name="guilsinglleft" format="1">
  <advance width="184"/>
  <unicode hex="2039"/>
  <outline>
    <contour>
      <point x="188" y="46" type="line"/>
      <point x="120" y="163" type="line"/>
      <point x="188" y="279" type="line"/>
      <point x="66" y="279" type="line"/>
      <point x="-14" y="163" type="line"/>
      <point x="66" y="46" type="line"/>
    </contour>
  </outline>
</glyph>
<glyph name="fraction" format="1">
  <advance width="101"/>
  <unicode hex="2044"/>
  <outline>
    <contour>
      <point x="-54" y="0" type="line"/>
      <point x="257" y="416" type="line"/>
      <point x="156" y="416" type="line"/>
      <point x="-155" y="0" type="line"/>
    </contour>
  </outline>
</glyph>
<glyph name="franc" format="1">
  <advance width="440"/>
  <unicode hex="20A3"/>
  <outline>
    <contour>
      <point x="217" y="0" type="line"/>
      <point x="217" y="201" type="line"/>
      <point x="149" y="138" type="line"/>
      <point x="416" y="138" type="line"/>
      <point x="416" y="242" type="line"/>
      <point x="149" y="242" type="line"/>
      <point x="217" y="179" type="line"/>
      <point x="217" y="369" type="line"/>
      <point x="149" y="306" type="line"/>
      <point x="429" y="306" type="line"/>
      <point x="429" y="416" type="line"/>
      <point x="60" y="416" type="line"/>
      <point x="60" y="0" type="line"/>
    </contour>
    <contour>
      <point x="344" y="47" type="line"/>
      <point x="344" y="91" type="line"/>
      <point x="16" y="91" type="line"/>
      <point x="16" y="47" type="line"/>
    </contour>
  </outline>
</glyph>
<glyph name="lira" format="1">
  <advance width="372"/>
  <unicode hex="20A4"/>
  <outline>
    <contour>
      <point x="364" y="0" type="line"/>
      <point x="364" y="108" type="line"/>
      <point x="214" y="108" type="line"/>
      <point x="214" y="271" type="line" smooth="yes"/>
      <point x="214" y="292"/>
      <point x="224" y="301"/>
      <point x="244" y="301" type="curve" smooth="yes"/>
      <point x="265" y="301"/>
      <point x="289" y="290"/>
      <point x="317" y="268" type="curve"/>
      <point x="374" y="374" type="line"/>
      <point x="336" y="405"/>
      <point x="282" y="422"/>
      <point x="227" y="422" type="curve" smooth="yes"/>
      <point x="118" y="422"/>
      <point x="56" y="368"/>
      <point x="56" y="274" type="curve" smooth="yes"/>
      <point x="56" y="0" type="line"/>
    </contour>
    <contour>
      <point x="129" y="0" type="line"/>
      <point x="129" y="108" type="line"/>
      <point x="12" y="108" type="line"/>
      <point x="12" y="0" type="line"/>
    </contour>
    <contour>
      <point x="315" y="136" type="line"/>
      <point x="315" y="179" type="line"/>
      <point x="12" y="179" type="line"/>
      <point x="12" y="136" type="line"/>
    </contour>
    <contour>
      <point x="315" y="204" type="line"/>
      <point x="315" y="248" type="line"/>
      <point x="12" y="248" type="line"/>
      <point x="12" y="204" type="line"/>
    </contour>
  </outline>
</glyph>
<glyph name="peseta" format="1">
  <advance width="1027"/>
  <unicode hex="20A7"/>
  <outline>
    <contour>
      <point x="166" y="0" type="line"/>
      <point x="166" y="106" type="line"/>
      <point x="213" y="106" type="line" smooth="yes"/>
      <point x="325" y="106"/>
      <point x="390" y="163"/>
      <point x="390" y="262" type="curve" smooth="yes"/>
      <point x="390" y="360"/>
      <point x="325" y="416"/>
      <point x="213" y="416" type="curve" smooth="yes"/>
      <point x="29" y="416" type="line"/>
      <point x="29" y="0" type="line"/>
    </contour>
    <contour>
      <point x="166" y="325" type="line"/>
      <point x="197" y="325" type="line" smooth="yes"/>
      <point x="238" y="325"/>
      <point x="261" y="302"/>
      <point x="261" y="262" type="curve" smooth="yes"/>
      <point x="261" y="221"/>
      <point x="238" y="197"/>
      <point x="197" y="197" type="curve" smooth="yes"/>
      <point x="166" y="197" type="line"/>
    </contour>
    <contour>
      <point x="692" y="14" type="curve"/>
      <point x="666" y="110" type="line"/>
      <point x="654" y="105"/>
      <point x="645" y="102"/>
      <point x="634" y="102" type="curve"/>
      <point x="616" y="103"/>
      <point x="605" y="112"/>
      <point x="605" y="130" type="curve"/>
      <point x="605" y="399" type="line"/>
      <point x="474" y="399" type="line"/>
      <point x="474" y="106" type="line"/>
      <point x="474" y="37"/>
      <point x="521" y="-6"/>
      <point x="595" y="-6" type="curve"/>
      <point x="631" y="-6"/>
      <point x="670" y="1"/>
    </contour>
    <contour>
      <point x="685" y="222" type="line"/>
      <point x="685" y="307" type="line"/>
      <point x="425" y="307" type="line"/>
      <point x="425" y="222" type="line"/>
    </contour>
    <contour>
      <point x="1011" y="97" type="curve" smooth="yes"/>
      <point x="1011" y="206"/>
      <point x="850" y="195"/>
      <point x="850" y="233" type="curve" smooth="yes"/>
      <point x="850" y="243"/>
      <point x="860" y="249"/>
      <point x="876" y="249" type="curve" smooth="yes"/>
      <point x="904" y="249"/>
      <point x="931" y="239"/>
      <point x="974" y="220" type="curve"/>
      <point x="1016" y="299" type="line"/>
      <point x="969" y="320"/>
      <point x="927" y="332"/>
      <point x="869" y="332" type="curve" smooth="yes"/>
      <point x="785" y="332"/>
      <point x="731" y="292"/>
      <point x="731" y="229" type="curve" smooth="yes"/>
      <point x="731" y="120"/>
      <point x="888" y="127"/>
      <point x="888" y="92" type="curve" smooth="yes"/>
      <point x="888" y="82"/>
      <point x="880" y="78"/>
      <point x="866" y="78" type="curve" smooth="yes"/>
      <point x="833" y="78"/>
      <point x="798" y="87"/>
      <point x="752" y="106" type="curve"/>
      <point x="715" y="29" type="line"/>
      <point x="759" y="7"/>
      <point x="811" y="-6"/>
      <point x="869" y="-6" type="curve" smooth="yes"/>
      <point x="956" y="-6"/>
      <point x="1011" y="35"/>
    </contour>
  </outline>
</glyph>
<glyph name="dong" format="1">
  <advance width="447"/>
  <unicode hex="20AB"/>
  <outline>
    <contour>
      <point x="301" y="164" type="curve"/>
      <point x="301" y="265"/>
      <point x="248" y="330"/>
      <point x="165" y="330" type="curve" smooth="yes"/>
      <point x="70" y="330"/>
      <point x="8" y="266"/>
      <point x="8" y="165" type="curve" smooth="yes"/>
      <point x="8" y="62"/>
      <point x="72" y="-5"/>
      <point x="170" y="-5" type="curve" smooth="yes"/>
      <point x="250" y="-5"/>
      <point x="301" y="62"/>
    </contour>
    <contour>
      <point x="368" y="-79" type="line"/>
      <point x="368" y="-29" type="line"/>
      <point x="70" y="-29" type="line"/>
      <point x="70" y="-79" type="line"/>
    </contour>
    <contour>
      <point x="162" y="161" type="curve" smooth="yes"/>
      <point x="162" y="196"/>
      <point x="180" y="219"/>
      <point x="209" y="219" type="curve" smooth="yes"/>
      <point x="237" y="219"/>
      <point x="255" y="196"/>
      <point x="255" y="161" type="curve" smooth="yes"/>
      <point x="255" y="126"/>
      <point x="237" y="103"/>
      <point x="209" y="103" type="curve" smooth="yes"/>
      <point x="180" y="103"/>
      <point x="162" y="126"/>
    </contour>
    <contour>
      <point x="408" y="0" type="line"/>
      <point x="408" y="440" type="line"/>
      <point x="255" y="440" type="line"/>
      <point x="255" y="0" type="line"/>
    </contour>
    <contour>
      <point x="448" y="350" type="line"/>
      <point x="448" y="399" type="line"/>
      <point x="189" y="399" type="line"/>
      <point x="189" y="350" type="line"/>
    </contour>
  </outline>
</glyph>
<glyph name="trademark" format="1">
  <advance width="595"/>
  <unicode hex="2122"/>
  <outline>
    <contour>
      <point x="344" y="166" type="line"/>
      <point x="344" y="272" type="line"/>
      <point x="374" y="190" type="line"/>
      <point x="449" y="190" type="line"/>
      <point x="479" y="272" type="line"/>
      <point x="479" y="166" type="line"/>
      <point x="576" y="166" type="line"/>
      <point x="576" y="416" type="line"/>
      <point x="459" y="416" type="line"/>
      <point x="411" y="307" type="line" smooth="yes"/>
      <point x="364" y="416" type="line"/>
      <point x="246" y="416" type="line"/>
      <point x="246" y="166" type="line"/>
    </contour>
    <contour>
      <point x="165" y="166" type="line"/>
      <point x="165" y="336" type="line"/>
      <point x="229" y="336" type="line"/>
      <point x="229" y="416" type="line"/>
      <point x="-7" y="416" type="line"/>
      <point x="-7" y="336" type="line"/>
      <point x="56" y="336" type="line"/>
      <point x="56" y="166" type="line"/>
    </contour>
  </outline>
</glyph>
<glyph name="estimated" format="1">
  <advance width="520"/>
  <unicode hex="212E"/>
  <outline>
    <contour>
      <point x="431" y="80" type="curve" smooth="yes"/>
      <point x="399" y="80" type="line"/>
      <point x="367" y="44"/>
      <point x="316" y="21"/>
      <point x="261" y="21" type="curve" smooth="yes"/>
      <point x="209" y="21"/>
      <point x="161" y="42"/>
      <point x="129" y="74" type="curve" smooth="yes"/>
      <point x="126" y="77"/>
      <point x="123" y="81"/>
      <point x="123" y="85" type="curve" smooth="yes"/>
      <point x="123" y="183" type="line"/>
      <point x="123" y="184"/>
      <point x="125" y="185"/>
      <point x="127" y="185" type="curve" smooth="yes"/>
      <point x="476" y="185" type="line"/>
      <point x="476" y="189" type="line"/>
      <point x="476" y="288"/>
      <point x="379" y="368"/>
      <point x="260" y="368" type="curve" smooth="yes"/>
      <point x="141" y="368"/>
      <point x="45" y="288"/>
      <point x="45" y="189" type="curve" smooth="yes"/>
      <point x="45" y="91"/>
      <point x="141" y="11"/>
      <point x="260" y="11" type="curve" smooth="yes"/>
      <point x="329" y="11"/>
      <point x="392" y="39"/>
    </contour>
    <contour>
      <point x="123" y="197" type="curve" smooth="yes"/>
      <point x="123" y="294" type="line"/>
      <point x="123" y="298"/>
      <point x="126" y="302"/>
      <point x="129" y="305" type="curve" smooth="yes"/>
      <point x="163" y="337"/>
      <point x="209" y="358"/>
      <point x="261" y="358" type="curve" smooth="yes"/>
      <point x="312" y="358"/>
      <point x="358" y="338"/>
      <point x="392" y="307" type="curve" smooth="yes"/>
      <point x="395" y="304"/>
      <point x="397" y="300"/>
      <point x="397" y="295" type="curve" smooth="yes"/>
      <point x="397" y="197" type="line"/>
      <point x="397" y="196"/>
      <point x="396" y="195"/>
      <point x="394" y="195" type="curve" smooth="yes"/>
      <point x="127" y="195" type="line"/>
      <point x="125" y="195"/>
      <point x="123" y="196"/>
    </contour>
  </outline>
</glyph>
<glyph name="partialdiff" format="1">
  <advance width="412"/>
  <unicode hex="2202"/>
  <outline>
    <contour>
      <point x="397" y="210" type="curve" smooth="yes"/>
      <point x="397" y="339"/>
      <point x="312" y="422"/>
      <point x="181" y="422" type="curve" smooth="yes"/>
      <point x="122" y="422"/>
      <point x="57" y="405"/>
      <point x="16" y="379" type="curve"/>
      <point x="76" y="277" type="line"/>
      <point x="102" y="300"/>
      <point x="133" y="311"/>
      <point x="171" y="311" type="curve" smooth="yes"/>
      <point x="221" y="311"/>
      <point x="247" y="292"/>
      <point x="248" y="253" type="curve"/>
      <point x="230" y="267"/>
      <point x="203" y="279"/>
      <point x="165" y="279" type="curve" smooth="yes"/>
      <point x="73" y="279"/>
      <point x="12" y="222"/>
      <point x="12" y="141" type="curve" smooth="yes"/>
      <point x="12" y="51"/>
      <point x="83" y="-6"/>
      <point x="191" y="-6" type="curve" smooth="yes"/>
      <point x="319" y="-6"/>
      <point x="397" y="79"/>
    </contour>
    <contour>
      <point x="157" y="142" type="curve" smooth="yes"/>
      <point x="157" y="163"/>
      <point x="169" y="174"/>
      <point x="196" y="174" type="curve" smooth="yes"/>
      <point x="222" y="174"/>
      <point x="235" y="164"/>
      <point x="235" y="141" type="curve"/>
      <point x="235" y="118"/>
      <point x="222" y="109"/>
      <point x="196" y="109" type="curve" smooth="yes"/>
      <point x="170" y="109"/>
      <point x="157" y="119"/>
    </contour>
  </outline>
</glyph>
<glyph name="emptyset" format="1">
  <advance width="382"/>
  <unicode hex="2205"/>
  <outline>
    <contour>
      <point x="383" y="325" type="line"/>
      <point x="346" y="361" type="line"/>
      <point x="-1" y="64" type="line"/>
      <point x="35" y="28" type="line"/>
    </contour>
    <contour>
      <point x="360" y="195" type="curve" smooth="yes"/>
      <point x="360" y="280"/>
      <point x="285" y="349"/>
      <point x="193" y="349" type="curve" smooth="yes"/>
      <point x="101" y="349"/>
      <point x="27" y="280"/>
      <point x="27" y="195" type="curve" smooth="yes"/>
      <point x="27" y="111"/>
      <point x="101" y="41"/>
      <point x="193" y="41" type="curve" smooth="yes"/>
      <point x="285" y="41"/>
      <point x="360" y="111"/>
    </contour>
    <contour>
      <point x="124" y="195" type="curve" smooth="yes"/>
      <point x="124" y="230"/>
      <point x="155" y="259"/>
      <point x="193" y="259" type="curve" smooth="yes"/>
      <point x="232" y="259"/>
      <point x="263" y="230"/>
      <point x="263" y="195" type="curve" smooth="yes"/>
      <point x="263" y="160"/>
      <point x="232" y="131"/>
      <point x="193" y="131" type="curve" smooth="yes"/>
      <point x="155" y="131"/>
      <point x="124" y="160"/>
    </contour>
  </outline>
</glyph>
<glyph name="product" format="1">
  <advance width="480"/>
  <unicode hex="220F"/>
  <outline>
    <contour>
      <point x="186" y="-115" type="line"/>
      <point x="186" y="330" type="line"/>
      <point x="294" y="330" type="line"/>
      <point x="294" y="-115" type="line"/>
      <point x="446" y="-115" type="line"/>
      <point x="446" y="440" type="line"/>
      <point x="34" y="440" type="line"/>
      <point x="34" y="-115" type="line"/>
    </contour>
  </outline>
</glyph>
<glyph name="summation" format="1">
  <advance width="400"/>
  <unicode hex="2211"/>
  <outline>
    <contour>
      <point x="395" y="-82" type="line"/>
      <point x="395" y="39" type="line"/>
      <point x="205" y="39" type="line"/>
      <point x="328" y="177" type="line"/>
      <point x="205" y="321" type="line"/>
      <point x="388" y="321" type="line"/>
      <point x="388" y="442" type="line"/>
      <point x="23" y="442" type="line"/>
      <point x="23" y="341" type="line"/>
      <point x="162" y="177" type="line"/>
      <point x="14" y="17" type="line"/>
      <point x="14" y="-82" type="line"/>
    </contour>
  </outline>
</glyph>
<glyph name="minus" format="1">
  <advance width="336"/>
  <unicode hex="2212"/>
  <outline>
    <contour>
      <point x="317" y="152" type="line"/>
      <point x="317" y="239" type="line"/>
      <point x="19" y="239" type="line"/>
      <point x="19" y="152" type="line"/>
    </contour>
  </outline>
</glyph>
<glyph name="radical" format="1">
  <advance width="469"/>
  <unicode hex="221A"/>
  <outline>
    <contour>
      <point x="319" y="-96" type="line"/>
      <point x="487" y="439" type="line"/>
      <point x="342" y="439" type="line"/>
      <point x="238" y="43" type="line"/>
      <point x="183" y="249" type="line"/>
      <point x="-5" y="249" type="line"/>
      <point x="-5" y="139" type="line"/>
      <point x="78" y="139" type="line"/>
      <point x="156" y="-96" type="line"/>
    </contour>
  </outline>
</glyph>
<glyph name="infinity" format="1">
  <advance width="542"/>
  <unicode hex="221E"/>
  <outline>
    <contour>
      <point x="530" y="176" type="curve" smooth="yes"/>
      <point x="530" y="255"/>
      <point x="471" y="312"/>
      <point x="391" y="312" type="curve" smooth="yes"/>
      <point x="246" y="312"/>
      <point x="254" y="132"/>
      <point x="157" y="132" type="curve" smooth="yes"/>
      <point x="132" y="132"/>
      <point x="114" y="150"/>
      <point x="114" y="175" type="curve" smooth="yes"/>
      <point x="114" y="200"/>
      <point x="132" y="219"/>
      <point x="157" y="219" type="curve" smooth="yes"/>
      <point x="254" y="219"/>
      <point x="253" y="39"/>
      <point x="391" y="39" type="curve" smooth="yes"/>
      <point x="471" y="39"/>
      <point x="530" y="96"/>
    </contour>
    <contour>
      <point x="384" y="219" type="curve" smooth="yes"/>
      <point x="410" y="219"/>
      <point x="428" y="201"/>
      <point x="428" y="176" type="curve" smooth="yes"/>
      <point x="428" y="151"/>
      <point x="410" y="132"/>
      <point x="384" y="132" type="curve" smooth="yes"/>
      <point x="287" y="132"/>
      <point x="288" y="312"/>
      <point x="151" y="312" type="curve" smooth="yes"/>
      <point x="71" y="312"/>
      <point x="12" y="255"/>
      <point x="12" y="175" type="curve" smooth="yes"/>
      <point x="12" y="96"/>
      <point x="71" y="39"/>
      <point x="151" y="39" type="curve" smooth="yes"/>
      <point x="295" y="39"/>
      <point x="287" y="219"/>
    </contour>
  </outline>
</glyph>
<glyph name="integral" format="1">
  <advance width="286"/>
  <unicode hex="222B"/>
  <outline>
    <contour>
      <point x="211" y="77" type="curve"/>
      <point x="211" y="121"/>
      <point x="192" y="323"/>
      <point x="192" y="360" type="curve"/>
      <point x="192" y="400"/>
      <point x="207" y="414"/>
      <point x="246" y="414" type="curve"/>
      <point x="259" y="414"/>
      <point x="270" y="413"/>
      <point x="286" y="407" type="curve"/>
      <point x="300" y="496" type="line"/>
      <point x="272" y="507"/>
      <point x="253" y="511"/>
      <point x="227" y="511" type="curve"/>
      <point x="121" y="511"/>
      <point x="81" y="466"/>
      <point x="81" y="347" type="curve"/>
      <point x="81" y="307"/>
      <point x="101" y="110"/>
      <point x="101" y="67" type="curve"/>
      <point x="101" y="23"/>
      <point x="84" y="6"/>
      <point x="43" y="6" type="curve"/>
      <point x="30" y="6"/>
      <point x="16" y="9"/>
      <point x="-4" y="19" type="curve"/>
      <point x="-21" y="-71" type="line"/>
      <point x="2" y="-84"/>
      <point x="26" y="-89"/>
      <point x="63" y="-89" type="curve"/>
      <point x="170" y="-89"/>
      <point x="211" y="-43"/>
    </contour>
  </outline>
</glyph>
<glyph name="approxequal" format="1">
  <advance width="336"/>
  <unicode hex="2248"/>
  <outline>
    <contour>
      <point x="307" y="325" type="curve"/>
      <point x="207" y="325" type="line"/>
      <point x="207" y="309"/>
      <point x="202" y="301"/>
      <point x="191" y="301" type="curve" smooth="yes"/>
      <point x="175" y="301"/>
      <point x="158" y="326"/>
      <point x="113" y="326" type="curve" smooth="yes"/>
      <point x="56" y="326"/>
      <point x="29" y="287"/>
      <point x="29" y="203" type="curve"/>
      <point x="130" y="203" type="line"/>
      <point x="130" y="219"/>
      <point x="134" y="226"/>
      <point x="145" y="226" type="curve" smooth="yes"/>
      <point x="161" y="226"/>
      <point x="179" y="201"/>
      <point x="223" y="201" type="curve" smooth="yes"/>
      <point x="281" y="201"/>
      <point x="307" y="240"/>
    </contour>
    <contour>
      <point x="307" y="181" type="curve"/>
      <point x="207" y="181" type="line"/>
      <point x="207" y="165"/>
      <point x="202" y="157"/>
      <point x="191" y="157" type="curve" smooth="yes"/>
      <point x="175" y="157"/>
      <point x="158" y="183"/>
      <point x="113" y="183" type="curve" smooth="yes"/>
      <point x="56" y="183"/>
      <point x="29" y="143"/>
      <point x="29" y="59" type="curve"/>
      <point x="130" y="59" type="line"/>
      <point x="130" y="75"/>
      <point x="134" y="83"/>
      <point x="145" y="83" type="curve" smooth="yes"/>
      <point x="161" y="83"/>
      <point x="179" y="57"/>
      <point x="223" y="57" type="curve" smooth="yes"/>
      <point x="281" y="57"/>
      <point x="307" y="97"/>
    </contour>
  </outline>
</glyph>
<glyph name="notequal" format="1">
  <advance width="336"/>
  <unicode hex="2260"/>
  <outline>
    <contour>
      <point x="158" y="6" type="line"/>
      <point x="286" y="381" type="line"/>
      <point x="172" y="381" type="line"/>
      <point x="44" y="6" type="line"/>
    </contour>
    <contour>
      <point x="317" y="86" type="line"/>
      <point x="317" y="174" type="line"/>
      <point x="19" y="174" type="line"/>
      <point x="19" y="86" type="line"/>
    </contour>
    <contour>
      <point x="317" y="217" type="line"/>
      <point x="317" y="305" type="line"/>
      <point x="19" y="305" type="line"/>
      <point x="19" y="217" type="line"/>
    </contour>
  </outline>
</glyph>
<glyph name="lozenge" format="1">
  <advance width="317"/>
  <unicode hex="25CA"/>
  <outline>
    <contour>
      <point x="305" y="196" type="line"/>
      <point x="159" y="396" type="line"/>
      <point x="12" y="196" type="line"/>
      <point x="158" y="-7" type="line"/>
    </contour>
    <contour>
      <point x="109" y="196" type="line"/>
      <point x="159" y="264" type="line"/>
      <point x="209" y="196" type="line"/>
      <point x="159" y="126" type="line"/>
    </contour>
  </outline>
</glyph>
<glyph name="A.ss01" format="1">
  <advance width="509"/>
  <outline>
    <contour>
      <point x="190" y="0" type="line"/>
      <point x="190" y="232" type="line" smooth="yes"/>
      <point x="190" y="282"/>
      <point x="217" y="306"/>
      <point x="254" y="306" type="curve" smooth="yes"/>
      <point x="292" y="306"/>
      <point x="319" y="282"/>
      <point x="319" y="232" type="curve" smooth="yes"/>
      <point x="319" y="0" type="line"/>
      <point x="479" y="0" type="line"/>
      <point x="479" y="220" type="line" smooth="yes"/>
      <point x="479" y="351"/>
      <point x="387" y="425"/>
      <point x="254" y="425" type="curve" smooth="yes"/>
      <point x="122" y="425"/>
      <point x="30" y="351"/>
      <point x="30" y="220" type="curve" smooth="yes"/>
      <point x="30" y="0" type="line"/>
    </contour>
    <contour>
      <point x="376" y="80" type="line"/>
      <point x="376" y="192" type="line"/>
      <point x="130" y="192" type="line"/>
      <point x="130" y="80" type="line"/>
    </contour>
    <contour>
      <point x="479" y="0" type="move" name="ogonek"/>
    </contour>
    <contour>
      <point x="254" y="415" type="move" name="top"/>
    </contour>
    <contour>
      <point x="31" y="415" type="move" name="topleft"/>
    </contour>
    <contour>
      <point x="254" y="0" type="move" name="bottom"/>
    </contour>
  </outline>
</glyph>
<glyph name="Adieresis.alt" format="1">
  <advance width="523"/>
  <outline>
    <contour>
      <point x="149" y="0" type="line"/>
      <point x="291" y="345" type="line"/>
      <point x="229" y="345" type="line"/>
      <point x="371" y="0" type="line"/>
      <point x="536" y="0" type="line"/>
      <point x="340" y="415" type="line"/>
      <point x="183" y="415" type="line"/>
      <point x="-13" y="0" type="line"/>
    </contour>
    <contour>
      <point x="390" y="57" type="line"/>
      <point x="349" y="164" type="line"/>
      <point x="148" y="164" type="line"/>
      <point x="107" y="57" type="line"/>
    </contour>
    <contour>
      <point x="128" y="360" type="curve" smooth="yes"/>
      <point x="128" y="393"/>
      <point x="102" y="415"/>
      <point x="68" y="415" type="curve" smooth="yes"/>
      <point x="34" y="415"/>
      <point x="8" y="393"/>
      <point x="8" y="360" type="curve" smooth="yes"/>
      <point x="8" y="327"/>
      <point x="34" y="306"/>
      <point x="68" y="306" type="curve" smooth="yes"/>
      <point x="102" y="306"/>
      <point x="128" y="327"/>
    </contour>
    <contour>
      <point x="515" y="360" type="curve" smooth="yes"/>
      <point x="515" y="393"/>
      <point x="489" y="415"/>
      <point x="455" y="415" type="curve" smooth="yes"/>
      <point x="420" y="415"/>
      <point x="394" y="393"/>
      <point x="394" y="360" type="curve" smooth="yes"/>
      <point x="394" y="327"/>
      <point x="420" y="306"/>
      <point x="455" y="306" type="curve" smooth="yes"/>
      <point x="489" y="306"/>
      <point x="515" y="327"/>
    </contour>
  </outline>
</glyph>
<glyph name="E.ss01" format="1">
  <advance width="450"/>
  <outline>
    <contour>
      <point x="447" y="26" type="curve"/>
      <point x="400" y="133" type="line"/>
      <point x="360" y="114"/>
      <point x="304" y="103"/>
      <point x="261" y="103" type="curve" smooth="yes"/>
      <point x="200" y="103"/>
      <point x="177" y="114"/>
      <point x="177" y="130" type="curve" smooth="yes"/>
      <point x="177" y="145"/>
      <point x="189" y="155"/>
      <point x="221" y="155" type="curve" smooth="yes"/>
      <point x="366" y="155" type="line"/>
      <point x="366" y="264" type="line"/>
      <point x="232" y="264" type="line" smooth="yes"/>
      <point x="203" y="264"/>
      <point x="195" y="272"/>
      <point x="195" y="285" type="curve" smooth="yes"/>
      <point x="195" y="302"/>
      <point x="218" y="312"/>
      <point x="270" y="312" type="curve" smooth="yes"/>
      <point x="309" y="312"/>
      <point x="348" y="306"/>
      <point x="391" y="291" type="curve"/>
      <point x="435" y="398" type="line"/>
      <point x="389" y="415"/>
      <point x="327" y="425"/>
      <point x="264" y="425" type="curve" smooth="yes"/>
      <point x="105" y="425"/>
      <point x="34" y="363"/>
      <point x="34" y="294" type="curve" smooth="yes"/>
      <point x="34" y="242"/>
      <point x="77" y="197"/>
      <point x="169" y="197" type="curve"/>
      <point x="166" y="229" type="line"/>
      <point x="70" y="229"/>
      <point x="15" y="181"/>
      <point x="15" y="120" type="curve" smooth="yes"/>
      <point x="15" y="44"/>
      <point x="97" y="-10"/>
      <point x="255" y="-10" type="curve" smooth="yes"/>
      <point x="326" y="-10"/>
      <point x="398" y="4"/>
    </contour>
    <contour>
      <point x="418" y="0" type="move" name="ogonek"/>
    </contour>
    <contour>
      <point x="243" y="415" type="move" name="top"/>
    </contour>
    <contour>
      <point x="-5" y="415" type="move" name="topleft"/>
    </contour>
    <contour>
      <point x="243" y="0" type="move" name="bottom"/>
    </contour>
  </outline>
</glyph>
<glyph name="Eng.ss01" format="1">
  <advance width="510"/>
  <outline>
    <contour>
      <point x="480" y="52" type="curve" smooth="yes"/>
      <point x="480" y="240" type="line" smooth="yes"/>
      <point x="480" y="359"/>
      <point x="419" y="425"/>
      <point x="313" y="425" type="curve" smooth="yes"/>
      <point x="207" y="425"/>
      <point x="145" y="351"/>
      <point x="145" y="234" type="curve" smooth="yes"/>
      <point x="145" y="178" type="line"/>
      <point x="194" y="178" type="line"/>
      <point x="194" y="231" type="line" smooth="yes"/>
      <point x="194" y="282"/>
      <point x="224" y="306"/>
      <point x="259" y="306" type="curve" smooth="yes"/>
      <point x="296" y="306"/>
      <point x="320" y="284"/>
      <point x="320" y="235" type="curve" smooth="yes"/>
      <point x="320" y="45" type="line" smooth="yes"/>
      <point x="320" y="14"/>
      <point x="304" y="-2"/>
      <point x="274" y="-2" type="curve" smooth="yes"/>
      <point x="261" y="-2"/>
      <point x="248" y="1"/>
      <point x="234" y="9" type="curve"/>
      <point x="161" y="-93" type="line"/>
      <point x="196" y="-113"/>
      <point x="239" y="-121"/>
      <point x="288" y="-121" type="curve" smooth="yes"/>
      <point x="412" y="-121"/>
      <point x="480" y="-64"/>
    </contour>
    <contour>
      <point x="194" y="0" type="line"/>
      <point x="194" y="312" type="line"/>
      <point x="189" y="329" type="line"/>
      <point x="189" y="415" type="line"/>
      <point x="34" y="415" type="line"/>
      <point x="34" y="0" type="line"/>
    </contour>
  </outline>
</glyph>
<glyph name="Eogonek.ss01" format="1">
  <advance width="450"/>
  <outline>
    <contour>
      <point x="434" y="-130" type="curve"/>
      <point x="416" y="-72" type="line"/>
      <point x="407" y="-76"/>
      <point x="393" y="-80"/>
      <point x="378" y="-80" type="curve" smooth="yes"/>
      <point x="355" y="-80"/>
      <point x="345" y="-69"/>
      <point x="345" y="-55" type="curve" smooth="yes"/>
      <point x="345" y="-32"/>
      <point x="376" y="-1"/>
      <point x="447" y="26" type="curve"/>
      <point x="400" y="133" type="line"/>
      <point x="360" y="114"/>
      <point x="304" y="103"/>
      <point x="261" y="103" type="curve" smooth="yes"/>
      <point x="200" y="103"/>
      <point x="177" y="114"/>
      <point x="177" y="130" type="curve" smooth="yes"/>
      <point x="177" y="145"/>
      <point x="189" y="155"/>
      <point x="221" y="155" type="curve" smooth="yes"/>
      <point x="366" y="155" type="line"/>
      <point x="366" y="264" type="line"/>
      <point x="232" y="264" type="line" smooth="yes"/>
      <point x="203" y="264"/>
      <point x="195" y="272"/>
      <point x="195" y="285" type="curve" smooth="yes"/>
      <point x="195" y="302"/>
      <point x="218" y="312"/>
      <point x="270" y="312" type="curve" smooth="yes"/>
      <point x="309" y="312"/>
      <point x="348" y="306"/>
      <point x="391" y="291" type="curve"/>
      <point x="435" y="398" type="line"/>
      <point x="389" y="415"/>
      <point x="327" y="425"/>
      <point x="264" y="425" type="curve" smooth="yes"/>
      <point x="105" y="425"/>
      <point x="34" y="363"/>
      <point x="34" y="294" type="curve" smooth="yes"/>
      <point x="34" y="262"/>
      <point x="50" y="233"/>
      <point x="84" y="215" type="curve"/>
      <point x="39" y="196"/>
      <point x="15" y="161"/>
      <point x="15" y="120" type="curve" smooth="yes"/>
      <point x="15" y="44"/>
      <point x="97" y="-10"/>
      <point x="255" y="-10" type="curve" smooth="yes"/>
      <point x="280" y="-10"/>
      <point x="306" y="-7"/>
      <point x="331" y="-5" type="curve"/>
      <point x="331" y="18" type="line"/>
      <point x="284" y="-1"/>
      <point x="256" y="-31"/>
      <point x="256" y="-69" type="curve" smooth="yes"/>
      <point x="256" y="-114"/>
      <point x="294" y="-143"/>
      <point x="360" y="-143" type="curve" smooth="yes"/>
      <point x="388" y="-143"/>
      <point x="419" y="-137"/>
    </contour>
    <contour>
      <point x="-5" y="415" type="move" name="topleft"/>
    </contour>
    <contour>
      <point x="243" y="415" type="move" name="top"/>
    </contour>
    <contour>
      <point x="243" y="0" type="move" name="bottom"/>
    </contour>
  </outline>
</glyph>
<glyph name="F.ss01" format="1">
  <advance width="403"/>
  <outline>
    <contour>
      <point x="190" y="0" type="line"/>
      <point x="190" y="237" type="line" smooth="yes"/>
      <point x="190" y="285"/>
      <point x="223" y="306"/>
      <point x="277" y="306" type="curve" smooth="yes"/>
      <point x="299" y="306"/>
      <point x="327" y="301"/>
      <point x="352" y="289" type="curve"/>
      <point x="398" y="400" type="line"/>
      <point x="365" y="416"/>
      <point x="317" y="425"/>
      <point x="264" y="425" type="curve" smooth="yes"/>
      <point x="115" y="425"/>
      <point x="30" y="357"/>
      <point x="30" y="234" type="curve" smooth="yes"/>
      <point x="30" y="0" type="line"/>
    </contour>
    <contour>
      <point x="345" y="129" type="line"/>
      <point x="345" y="240" type="line"/>
      <point x="128" y="240" type="line"/>
      <point x="128" y="129" type="line"/>
    </contour>
  </outline>
</glyph>
<glyph name="G.ss01" format="1">
  <advance width="494"/>
  <outline>
    <contour>
      <point x="427" y="115" type="curve"/>
      <point x="359" y="154" type="line"/>
      <point x="343" y="122"/>
      <point x="307" y="107"/>
      <point x="268" y="107" type="curve" smooth="yes"/>
      <point x="218" y="107"/>
      <point x="179" y="135"/>
      <point x="179" y="203" type="curve" smooth="yes"/>
      <point x="179" y="269"/>
      <point x="218" y="306"/>
      <point x="282" y="306" type="curve" smooth="yes"/>
      <point x="320" y="306"/>
      <point x="352" y="290"/>
      <point x="380" y="260" type="curve"/>
      <point x="482" y="343" type="line"/>
      <point x="436" y="396"/>
      <point x="364" y="425"/>
      <point x="273" y="425" type="curve" smooth="yes"/>
      <point x="124" y="425"/>
      <point x="17" y="336"/>
      <point x="17" y="202" type="curve" smooth="yes"/>
      <point x="17" y="65"/>
      <point x="119" y="-10"/>
      <point x="245" y="-10" type="curve" smooth="yes"/>
      <point x="332" y="-10"/>
      <point x="396" y="24"/>
    </contour>
    <contour>
      <point x="469" y="0" type="line"/>
      <point x="469" y="217" type="line"/>
      <point x="330" y="217" type="line"/>
      <point x="330" y="69" type="line"/>
      <point x="364" y="53" type="line"/>
      <point x="364" y="0" type="line"/>
    </contour>
    <contour>
      <point x="273" y="416" type="move" name="top"/>
    </contour>
    <contour>
      <point x="264" y="2" type="move" name="bottom"/>
    </contour>
  </outline>
</glyph>
<glyph name="Germandbls" format="1">
  <advance width="515"/>
  <outline>
    <contour>
      <point x="500" y="126" type="curve" smooth="yes"/>
      <point x="500" y="211"/>
      <point x="417" y="262"/>
      <point x="328" y="262" type="curve" smooth="yes"/>
      <point x="309" y="262"/>
      <point x="294" y="260"/>
      <point x="281" y="257" type="curve"/>
      <point x="341" y="181" type="line"/>
      <point x="452" y="302" type="line"/>
      <point x="452" y="386" type="line"/>
      <point x="408" y="411"/>
      <point x="335" y="425"/>
      <point x="278" y="425" type="curve" smooth="yes"/>
      <point x="119" y="425"/>
      <point x="30" y="347"/>
      <point x="30" y="223" type="curve" smooth="yes"/>
      <point x="30" y="0" type="line"/>
      <point x="190" y="0" type="line"/>
      <point x="190" y="220" type="line" smooth="yes"/>
      <point x="190" y="278"/>
      <point x="220" y="313"/>
      <point x="280" y="313" type="curve" smooth="yes"/>
      <point x="322" y="313"/>
      <point x="354" y="301"/>
      <point x="388" y="284" type="curve"/>
      <point x="377" y="377" type="line"/>
      <point x="228" y="215" type="line"/>
      <point x="255" y="156" type="line"/>
      <point x="266" y="159"/>
      <point x="280" y="162"/>
      <point x="294" y="162" type="curve" smooth="yes"/>
      <point x="325" y="162"/>
      <point x="339" y="151"/>
      <point x="339" y="132" type="curve" smooth="yes"/>
      <point x="339" y="113"/>
      <point x="325" y="103"/>
      <point x="292" y="103" type="curve" smooth="yes"/>
      <point x="275" y="103"/>
      <point x="254" y="107"/>
      <point x="239" y="114" type="curve"/>
      <point x="217" y="3" type="line"/>
      <point x="244" y="-5"/>
      <point x="276" y="-10"/>
      <point x="319" y="-10" type="curve" smooth="yes"/>
      <point x="418" y="-10"/>
      <point x="500" y="40"/>
    </contour>
  </outline>
</glyph>
<glyph name="I.ss01" format="1">
  <advance width="335"/>
  <outline>
    <contour>
      <point x="248" y="12" type="line"/>
      <point x="248" y="404" type="line"/>
      <point x="88" y="404" type="line"/>
      <point x="88" y="12" type="line"/>
    </contour>
    <contour>
      <point x="313" y="0" type="line"/>
      <point x="313" y="111" type="line"/>
      <point x="22" y="111" type="line"/>
      <point x="22" y="0" type="line"/>
    </contour>
    <contour>
      <point x="313" y="304" type="line"/>
      <point x="313" y="415" type="line"/>
      <point x="22" y="415" type="line"/>
      <point x="22" y="304" type="line"/>
    </contour>
    <contour>
      <point x="248" y="0" type="move" name="ogonek"/>
    </contour>
    <contour>
      <point x="168" y="415" type="move" name="top"/>
    </contour>
    <contour>
      <point x="-14" y="415" type="move" name="topleft"/>
    </contour>
    <contour>
      <point x="168" y="0" type="move" name="bottom"/>
    </contour>
  </outline>
</glyph>
<glyph name="IJ.ss01" format="1">
  <advance width="469"/>
  <outline>
    <contour>
      <point x="439" y="138" type="curve" smooth="yes"/>
      <point x="439" y="415" type="line"/>
      <point x="279" y="415" type="line"/>
      <point x="279" y="128" type="line" smooth="yes"/>
      <point x="279" y="74"/>
      <point x="257" y="50"/>
      <point x="203" y="50" type="curve" smooth="yes"/>
      <point x="166" y="50"/>
      <point x="118" y="63"/>
      <point x="75" y="90" type="curve"/>
      <point x="16" y="-14" type="line"/>
      <point x="64" y="-46"/>
      <point x="132" y="-65"/>
      <point x="211" y="-65" type="curve" smooth="yes"/>
      <point x="348" y="-65"/>
      <point x="439" y="7"/>
    </contour>
    <contour>
      <point x="190" y="142" type="line"/>
      <point x="190" y="415" type="line"/>
      <point x="30" y="415" type="line"/>
      <point x="30" y="142" type="line"/>
    </contour>
    <contour>
      <point x="109" y="415" type="move" name="top"/>
    </contour>
  </outline>
</glyph>
<glyph name="Iacute_J.loclNLD" format="1">
  <advance width="469"/>
  <outline>
    <contour>
      <point x="439" y="198" type="curve" smooth="yes"/>
      <point x="439" y="415" type="line"/>
      <point x="279" y="415" type="line"/>
      <point x="279" y="189" type="line" smooth="yes"/>
      <point x="279" y="135"/>
      <point x="257" y="111"/>
      <point x="203" y="111" type="curve" smooth="yes"/>
      <point x="166" y="111"/>
      <point x="118" y="124"/>
      <point x="75" y="149" type="curve"/>
      <point x="16" y="45" type="line"/>
      <point x="64" y="14"/>
      <point x="132" y="-6"/>
      <point x="211" y="-6" type="curve" smooth="yes"/>
      <point x="348" y="-6"/>
      <point x="439" y="66"/>
    </contour>
    <contour>
      <point x="190" y="201" type="line"/>
      <point x="190" y="415" type="line"/>
      <point x="30" y="415" type="line"/>
      <point x="30" y="201" type="line"/>
    </contour>
    <contour>
      <point x="140" y="449" type="line"/>
      <point x="268" y="546" type="line"/>
      <point x="123" y="546" type="line"/>
      <point x="39" y="449" type="line"/>
    </contour>
    <contour>
      <point x="389" y="449" type="line"/>
      <point x="517" y="546" type="line"/>
      <point x="372" y="546" type="line"/>
      <point x="288" y="449" type="line"/>
    </contour>
  </outline>
</glyph>
<glyph name="Iacute_J.loclNLD.ss01" format="1">
  <advance width="469"/>
  <outline>
    <contour>
      <point x="439" y="138" type="curve" smooth="yes"/>
      <point x="439" y="415" type="line"/>
      <point x="279" y="415" type="line"/>
      <point x="279" y="130" type="line" smooth="yes"/>
      <point x="279" y="76"/>
      <point x="257" y="52"/>
      <point x="203" y="52" type="curve" smooth="yes"/>
      <point x="166" y="52"/>
      <point x="118" y="65"/>
      <point x="75" y="90" type="curve"/>
      <point x="16" y="-14" type="line"/>
      <point x="64" y="-46"/>
      <point x="132" y="-65"/>
      <point x="211" y="-65" type="curve" smooth="yes"/>
      <point x="348" y="-65"/>
      <point x="439" y="7"/>
    </contour>
    <contour>
      <point x="190" y="142" type="line"/>
      <point x="190" y="415" type="line"/>
      <point x="30" y="415" type="line"/>
      <point x="30" y="142" type="line"/>
    </contour>
    <contour>
      <point x="140" y="449" type="line"/>
      <point x="268" y="546" type="line"/>
      <point x="123" y="546" type="line"/>
      <point x="39" y="449" type="line"/>
    </contour>
    <contour>
      <point x="389" y="449" type="line"/>
      <point x="517" y="546" type="line"/>
      <point x="372" y="546" type="line"/>
      <point x="288" y="449" type="line"/>
    </contour>
  </outline>
</glyph>
<glyph name="J.ss01" format="1">
  <advance width="373"/>
  <outline>
    <contour>
      <point x="343" y="104" type="curve" smooth="yes"/>
      <point x="343" y="415" type="line"/>
      <point x="33" y="415" type="line"/>
      <point x="33" y="304" type="line"/>
      <point x="185" y="304" type="line"/>
      <point x="185" y="95" type="line" smooth="yes"/>
      <point x="185" y="63"/>
      <point x="168" y="46"/>
      <point x="139" y="46" type="curve" smooth="yes"/>
      <point x="115" y="46"/>
      <point x="93" y="60"/>
      <point x="70" y="87" type="curve"/>
      <point x="-17" y="-7" type="line"/>
      <point x="22" y="-48"/>
      <point x="81" y="-69"/>
      <point x="153" y="-69" type="curve" smooth="yes"/>
      <point x="276" y="-69"/>
      <point x="343" y="-13"/>
    </contour>
    <contour>
      <point x="188" y="415" type="move" name="top"/>
    </contour>
  </outline>
</glyph>
<glyph name="M.ss01" format="1">
  <advance width="745"/>
  <outline>
    <contour>
      <point x="715" y="0" type="line"/>
      <point x="715" y="251" type="line" smooth="yes"/>
      <point x="715" y="365"/>
      <point x="654" y="425"/>
      <point x="554" y="425" type="curve" smooth="yes"/>
      <point x="453" y="425"/>
      <point x="384" y="363"/>
      <point x="384" y="252" type="curve" smooth="yes"/>
      <point x="384" y="177" type="line"/>
      <point x="454" y="177" type="line"/>
      <point x="454" y="243" type="line" smooth="yes"/>
      <point x="454" y="290"/>
      <point x="478" y="306"/>
      <point x="507" y="306" type="curve" smooth="yes"/>
      <point x="535" y="306"/>
      <point x="555" y="290"/>
      <point x="555" y="247" type="curve" smooth="yes"/>
      <point x="555" y="0" type="line"/>
    </contour>
    <contour>
      <point x="194" y="0" type="line"/>
      <point x="194" y="312" type="line"/>
      <point x="189" y="329" type="line"/>
      <point x="189" y="415" type="line"/>
      <point x="34" y="415" type="line"/>
      <point x="34" y="0" type="line"/>
    </contour>
    <contour>
      <point x="454" y="0" type="line"/>
      <point x="454" y="251" type="line" smooth="yes"/>
      <point x="454" y="365"/>
      <point x="398" y="425"/>
      <point x="305" y="425" type="curve" smooth="yes"/>
      <point x="202" y="425"/>
      <point x="152" y="357"/>
      <point x="152" y="246" type="curve" smooth="yes"/>
      <point x="152" y="178" type="line"/>
      <point x="194" y="178" type="line"/>
      <point x="194" y="243" type="line" smooth="yes"/>
      <point x="194" y="290"/>
      <point x="218" y="306"/>
      <point x="246" y="306" type="curve" smooth="yes"/>
      <point x="275" y="306"/>
      <point x="294" y="290"/>
      <point x="294" y="247" type="curve" smooth="yes"/>
      <point x="294" y="0" type="line"/>
    </contour>
    <contour>
      <point x="374" y="415" type="move" name="top"/>
    </contour>
    <contour>
      <point x="374" y="0" type="move" name="bottom"/>
    </contour>
  </outline>
</glyph>
<glyph name="N.ss01" format="1">
  <advance width="510"/>
  <outline>
    <contour>
      <point x="480" y="0" type="line"/>
      <point x="480" y="240" type="line" smooth="yes"/>
      <point x="480" y="359"/>
      <point x="419" y="425"/>
      <point x="313" y="425" type="curve" smooth="yes"/>
      <point x="207" y="425"/>
      <point x="145" y="351"/>
      <point x="145" y="234" type="curve" smooth="yes"/>
      <point x="145" y="178" type="line"/>
      <point x="194" y="178" type="line"/>
      <point x="194" y="231" type="line" smooth="yes"/>
      <point x="194" y="282"/>
      <point x="224" y="306"/>
      <point x="259" y="306" type="curve" smooth="yes"/>
      <point x="296" y="306"/>
      <point x="320" y="284"/>
      <point x="320" y="235" type="curve" smooth="yes"/>
      <point x="320" y="0" type="line"/>
    </contour>
    <contour>
      <point x="194" y="0" type="line"/>
      <point x="194" y="312" type="line"/>
      <point x="189" y="329" type="line"/>
      <point x="189" y="415" type="line"/>
      <point x="34" y="415" type="line"/>
      <point x="34" y="0" type="line"/>
    </contour>
    <contour>
      <point x="257" y="415" type="move" name="top"/>
    </contour>
    <contour>
      <point x="257" y="0" type="move" name="bottom"/>
    </contour>
  </outline>
</glyph>
<glyph name="Oogonek" format="1">
  <advance width="546"/>
  <outline>
    <contour>
      <point x="371" y="-130" type="curve"/>
      <point x="353" y="-72" type="line"/>
      <point x="343" y="-76"/>
      <point x="329" y="-80"/>
      <point x="315" y="-80" type="curve" smooth="yes"/>
      <point x="292" y="-80"/>
      <point x="282" y="-69"/>
      <point x="282" y="-56" type="curve" smooth="yes"/>
      <point x="282" y="-38"/>
      <point x="299" y="-18"/>
      <point x="365" y="3" type="curve" smooth="yes"/>
      <point x="459" y="33"/>
      <point x="528" y="106"/>
      <point x="528" y="208" type="curve" smooth="yes"/>
      <point x="528" y="334"/>
      <point x="420" y="425"/>
      <point x="273" y="425" type="curve" smooth="yes"/>
      <point x="125" y="425"/>
      <point x="17" y="334"/>
      <point x="17" y="208" type="curve" smooth="yes"/>
      <point x="17" y="81"/>
      <point x="125" y="-10"/>
      <point x="273" y="-10" type="curve" smooth="yes"/>
      <point x="283" y="-10"/>
      <point x="293" y="-9"/>
      <point x="310" y="-8" type="curve"/>
      <point x="301" y="30" type="line"/>
      <point x="233" y="11"/>
      <point x="193" y="-24"/>
      <point x="193" y="-69" type="curve" smooth="yes"/>
      <point x="193" y="-114"/>
      <point x="231" y="-143"/>
      <point x="297" y="-143" type="curve" smooth="yes"/>
      <point x="325" y="-143"/>
      <point x="356" y="-137"/>
    </contour>
    <contour>
      <point x="179" y="208" type="curve" smooth="yes"/>
      <point x="179" y="269"/>
      <point x="221" y="306"/>
      <point x="273" y="306" type="curve" smooth="yes"/>
      <point x="325" y="306"/>
      <point x="367" y="269"/>
      <point x="367" y="208" type="curve" smooth="yes"/>
      <point x="367" y="146"/>
      <point x="325" y="110"/>
      <point x="273" y="110" type="curve" smooth="yes"/>
      <point x="221" y="110"/>
      <point x="179" y="146"/>
    </contour>
    <contour>
      <point x="273" y="415" type="move" name="top"/>
    </contour>
  </outline>
</glyph>
<glyph name="Q.ss01" format="1">
  <advance width="546"/>
  <outline>
    <contour>
      <point x="528" y="208" type="curve" smooth="yes"/>
      <point x="528" y="334"/>
      <point x="420" y="425"/>
      <point x="273" y="425" type="curve" smooth="yes"/>
      <point x="125" y="425"/>
      <point x="17" y="334"/>
      <point x="17" y="208" type="curve" smooth="yes"/>
      <point x="17" y="81"/>
      <point x="125" y="-10"/>
      <point x="273" y="-10" type="curve" smooth="yes"/>
      <point x="420" y="-10"/>
      <point x="528" y="81"/>
    </contour>
    <contour>
      <point x="353" y="-80" type="line"/>
      <point x="353" y="16" type="line"/>
      <point x="346" y="58" type="line"/>
      <point x="346" y="191" type="line"/>
      <point x="199" y="191" type="line"/>
      <point x="199" y="58" type="line"/>
      <point x="193" y="16" type="line"/>
      <point x="193" y="-80" type="line"/>
    </contour>
    <contour>
      <point x="179" y="208" type="curve" smooth="yes"/>
      <point x="179" y="269"/>
      <point x="221" y="306"/>
      <point x="273" y="306" type="curve" smooth="yes"/>
      <point x="325" y="306"/>
      <point x="367" y="269"/>
      <point x="367" y="208" type="curve" smooth="yes"/>
      <point x="367" y="143"/>
      <point x="334" y="110"/>
      <point x="273" y="110" type="curve" smooth="yes"/>
      <point x="211" y="110"/>
      <point x="179" y="143"/>
    </contour>
  </outline>
</glyph>
<glyph name="Saltillo" format="1">
  <advance width="225"/>
  <outline>
    <contour>
      <point x="171" y="175" type="line"/>
      <point x="191" y="416" type="line"/>
      <point x="34" y="416" type="line"/>
      <point x="34" y="175" type="line"/>
    </contour>
  </outline>
</glyph>
<glyph name="Schwa" format="1">
  <advance width="526"/>
  <outline>
    <contour>
      <point x="509" y="208" type="curve" smooth="yes"/>
      <point x="509" y="336"/>
      <point x="402" y="425"/>
      <point x="250" y="425" type="curve" smooth="yes"/>
      <point x="167" y="425"/>
      <point x="84" y="390"/>
      <point x="41" y="346" type="curve"/>
      <point x="135" y="257" type="line"/>
      <point x="162" y="288"/>
      <point x="214" y="306"/>
      <point x="248" y="306" type="curve" smooth="yes"/>
      <point x="308" y="306"/>
      <point x="347" y="268"/>
      <point x="347" y="214" type="curve" smooth="yes"/>
      <point x="347" y="182" type="line" smooth="yes"/>
      <point x="347" y="129"/>
      <point x="320" y="98"/>
      <point x="263" y="98" type="curve" smooth="yes"/>
      <point x="206" y="98"/>
      <point x="179" y="129"/>
      <point x="179" y="182" type="curve"/>
      <point x="127" y="156" type="line"/>
      <point x="364" y="156" type="line"/>
      <point x="364" y="237" type="line"/>
      <point x="17" y="237" type="line"/>
      <point x="17" y="214" type="line" smooth="yes"/>
      <point x="17" y="78"/>
      <point x="117" y="-10"/>
      <point x="263" y="-10" type="curve" smooth="yes"/>
      <point x="405" y="-10"/>
      <point x="509" y="78"/>
    </contour>
    <contour>
      <point x="263" y="415" type="move" name="top"/>
    </contour>
    <contour>
      <point x="263" y="0" type="move" name="bottom"/>
    </contour>
  </outline>
</glyph>
<glyph name="Schwa.ss01" format="1">
  <advance width="526"/>
  <outline>
    <contour>
      <point x="509" y="208" type="curve" smooth="yes"/>
      <point x="509" y="336"/>
      <point x="402" y="425"/>
      <point x="250" y="425" type="curve" smooth="yes"/>
      <point x="167" y="425"/>
      <point x="84" y="390"/>
      <point x="41" y="346" type="curve"/>
      <point x="135" y="257" type="line"/>
      <point x="162" y="288"/>
      <point x="214" y="306"/>
      <point x="248" y="306" type="curve" smooth="yes"/>
      <point x="308" y="306"/>
      <point x="347" y="268"/>
      <point x="347" y="214" type="curve" smooth="yes"/>
      <point x="347" y="184" type="line" smooth="yes"/>
      <point x="347" y="129"/>
      <point x="320" y="98"/>
      <point x="263" y="98" type="curve" smooth="yes"/>
      <point x="197" y="98"/>
      <point x="175" y="132"/>
      <point x="184" y="189" type="curve"/>
      <point x="133" y="102" type="line"/>
      <point x="388" y="198" type="line"/>
      <point x="355" y="278" type="line"/>
      <point x="24" y="156" type="line"/>
      <point x="48" y="54"/>
      <point x="139" y="-10"/>
      <point x="263" y="-10" type="curve" smooth="yes"/>
      <point x="405" y="-10"/>
      <point x="509" y="78"/>
    </contour>
    <contour>
      <point x="263" y="415" type="move" name="top"/>
    </contour>
    <contour>
      <point x="263" y="0" type="move" name="bottom"/>
    </contour>
  </outline>
</glyph>
<glyph name="T.ss01" format="1">
  <advance width="445"/>
  <outline>
    <contour>
      <point x="223" y="307" type="curve" smooth="yes"/>
      <point x="295" y="307"/>
      <point x="351" y="292"/>
      <point x="405" y="264" type="curve"/>
      <point x="457" y="369" type="line"/>
      <point x="392" y="406"/>
      <point x="308" y="425"/>
      <point x="223" y="425" type="curve" smooth="yes"/>
      <point x="137" y="425"/>
      <point x="53" y="406"/>
      <point x="-12" y="369" type="curve"/>
      <point x="40" y="264" type="line"/>
      <point x="94" y="292"/>
      <point x="150" y="307"/>
    </contour>
    <contour>
      <point x="303" y="0" type="line"/>
      <point x="303" y="356" type="line"/>
      <point x="142" y="356" type="line"/>
      <point x="142" y="0" type="line"/>
    </contour>
    <contour>
      <point x="226" y="416" type="move" name="top"/>
    </contour>
    <contour>
      <point x="222" y="176" type="move" name="center"/>
    </contour>
    <contour>
      <point x="223" y="0" type="move" name="bottom"/>
    </contour>
  </outline>
</glyph>
<glyph name="T_h" format="1">
  <advance width="836"/>
  <outline>
    <contour>
      <point x="292" y="0" type="line"/>
      <point x="292" y="301" type="line"/>
      <point x="420" y="301" type="line"/>
      <point x="420" y="415" type="line"/>
      <point x="3" y="415" type="line"/>
      <point x="3" y="301" type="line"/>
      <point x="132" y="301" type="line"/>
      <point x="132" y="0" type="line"/>
    </contour>
    <contour>
      <point x="808" y="0" type="line"/>
      <point x="808" y="185" type="line" smooth="yes"/>
      <point x="808" y="288"/>
      <point x="744" y="332"/>
      <point x="663" y="332" type="curve" smooth="yes"/>
      <point x="588" y="332"/>
      <point x="524" y="289"/>
      <point x="511" y="200" type="curve"/>
      <point x="567" y="152" type="line"/>
      <point x="567" y="198"/>
      <point x="590" y="213"/>
      <point x="616" y="213" type="curve" smooth="yes"/>
      <point x="639" y="213"/>
      <point x="655" y="199"/>
      <point x="655" y="161" type="curve" smooth="yes"/>
      <point x="655" y="0" type="line"/>
    </contour>
    <contour>
      <point x="567" y="0" type="line"/>
      <point x="567" y="415" type="line"/>
      <point x="413" y="415" type="line"/>
      <point x="413" y="0" type="line"/>
    </contour>
  </outline>
</glyph>
<glyph name="U.ss01" format="1">
  <advance width="510"/>
  <outline>
    <contour>
      <point x="365" y="181" type="curve" smooth="yes"/>
      <point x="365" y="237" type="line"/>
      <point x="317" y="237" type="line"/>
      <point x="317" y="184" type="line" smooth="yes"/>
      <point x="317" y="133"/>
      <point x="287" y="110"/>
      <point x="251" y="110" type="curve" smooth="yes"/>
      <point x="214" y="110"/>
      <point x="190" y="131"/>
      <point x="190" y="180" type="curve" smooth="yes"/>
      <point x="190" y="415" type="line"/>
      <point x="30" y="415" type="line"/>
      <point x="30" y="176" type="line" smooth="yes"/>
      <point x="30" y="56"/>
      <point x="91" y="-10"/>
      <point x="204" y="-10" type="curve" smooth="yes"/>
      <point x="303" y="-10"/>
      <point x="365" y="65"/>
    </contour>
    <contour>
      <point x="477" y="0" type="line"/>
      <point x="477" y="415" type="line"/>
      <point x="317" y="415" type="line"/>
      <point x="317" y="103" type="line"/>
      <point x="321" y="86" type="line"/>
      <point x="321" y="0" type="line"/>
    </contour>
    <contour>
      <point x="477" y="0" type="move" name="ogonek"/>
    </contour>
    <contour>
      <point x="253" y="415" type="move" name="top"/>
    </contour>
    <contour>
      <point x="405" y="415" type="move" name="topright"/>
    </contour>
    <contour>
      <point x="253" y="0" type="move" name="bottom"/>
    </contour>
  </outline>
</glyph>
<glyph name="Udieresis.alt" format="1">
  <advance width="504"/>
  <outline>
    <contour>
      <point x="474" y="188" type="curve" smooth="yes"/>
      <point x="474" y="415" type="line"/>
      <point x="317" y="415" type="line"/>
      <point x="317" y="192" type="line" smooth="yes"/>
      <point x="317" y="131"/>
      <point x="292" y="110"/>
      <point x="253" y="110" type="curve" smooth="yes"/>
      <point x="214" y="110"/>
      <point x="190" y="131"/>
      <point x="190" y="192" type="curve" smooth="yes"/>
      <point x="190" y="415" type="line"/>
      <point x="30" y="415" type="line"/>
      <point x="30" y="188" type="line" smooth="yes"/>
      <point x="30" y="63"/>
      <point x="112" y="-10"/>
      <point x="252" y="-10" type="curve" smooth="yes"/>
      <point x="392" y="-10"/>
      <point x="474" y="63"/>
    </contour>
    <contour>
      <point x="268" y="366" type="curve" smooth="yes"/>
      <point x="268" y="399"/>
      <point x="242" y="421"/>
      <point x="208" y="421" type="curve" smooth="yes"/>
      <point x="174" y="421"/>
      <point x="148" y="399"/>
      <point x="148" y="366" type="curve" smooth="yes"/>
      <point x="148" y="333"/>
      <point x="174" y="312"/>
      <point x="208" y="312" type="curve" smooth="yes"/>
      <point x="242" y="312"/>
      <point x="268" y="333"/>
    </contour>
    <contour>
      <point x="359" y="366" type="curve" smooth="yes"/>
      <point x="359" y="399"/>
      <point x="333" y="421"/>
      <point x="298" y="421" type="curve" smooth="yes"/>
      <point x="264" y="421"/>
      <point x="238" y="399"/>
      <point x="238" y="366" type="curve" smooth="yes"/>
      <point x="238" y="333"/>
      <point x="264" y="312"/>
      <point x="298" y="312" type="curve" smooth="yes"/>
      <point x="333" y="312"/>
      <point x="359" y="333"/>
    </contour>
  </outline>
</glyph>
